<?xml version="1.0" encoding="UTF-8" standalone="no"?>
<!-- Generator: Adobe Illustrator 17.0.0, SVG Export Plug-In . SVG Version: 6.00 Build 0)  -->

<svg
   version="1.1"
   id="Layer_1"
   x="0px"
   y="0px"
   width="613px"
   height="613px"
   viewBox="0 0 613 613"
   enable-background="new 0 0 613 613"
   xml:space="preserve"
   sodipodi:docname="dragon-c.svg"
   inkscape:version="1.3 (0e150ed6c4, 2023-07-21)"
   xmlns:inkscape="http://www.inkscape.org/namespaces/inkscape"
   xmlns:sodipodi="http://sodipodi.sourceforge.net/DTD/sodipodi-0.dtd"
   xmlns="http://www.w3.org/2000/svg"
   xmlns:svg="http://www.w3.org/2000/svg"><defs
   id="defs1" /><sodipodi:namedview
   id="namedview1"
   pagecolor="#ffffff"
   bordercolor="#000000"
   borderopacity="0.25"
   inkscape:showpageshadow="2"
   inkscape:pageopacity="0.0"
   inkscape:pagecheckerboard="0"
   inkscape:deskcolor="#d1d1d1"
   inkscape:zoom="1.4632953"
   inkscape:cx="306.5"
   inkscape:cy="306.15831"
   inkscape:window-width="1920"
   inkscape:window-height="1111"
   inkscape:window-x="-9"
   inkscape:window-y="1341"
   inkscape:window-maximized="1"
   inkscape:current-layer="Layer_1" />&#10;<g
   id="g1"
   style="fill:#dde6e7;fill-opacity:1">&#10;	<path
   d="M567.374,279.854h0.002c-55.853-5.309-97.651-36.669-111.517-80.852c-7.963-25.372-39.507-43.702-75.798-54.802   C341.031,47.155,314.615-5.685,192.211,8.175c43.967,34.395,79.184,80.555,97.221,122.878   c-35.309-10.128-68.442-15.485-99.272-16.804C122.957,99.524,47.571,129.9,25.413,201.546V586.85h254.281   C113.119,526.538,69.332,222.242,244.06,280.394c-3.071,9.087-6.178,17.773-9.13,25.802   c39.256,101.886,135.991,192.075,202.598,201.048c7.932,0.285,20.237-3.258,34.472-10.005c-2.656-0.835-5.226-1.947-7.681-3.363   c-14.883-8.583-22.339-26.215-21.845-46.629c-14.065,7.385-28.938,8.557-40.787,1.723c-17.531-10.111-23.178-34.707-15.76-60.16   c-13.55,3.312-26.451,1.1-34.888-7.328c-10.609-10.598-11.398-28.241-3.698-45.364c-4.395-0.734-8.322-2.588-11.386-5.648   c-10.526-10.515-6.899-31.185,8.1-46.169c14.999-14.983,35.693-18.606,46.219-8.091c4.619,4.614,6.511,11.184,5.915,18.37   c13.368-3.137,26.056-0.875,34.39,7.45c7.354,7.346,9.98,18.081,8.34,29.679c10.22-2.694,20.302-1.93,28.82,2.983   c11.166,6.44,17.51,18.758,18.732,33.428c18.183-12.111,38.432-15.21,54.102-6.172c18.49,10.663,25.534,35.283,20.085,61.864   C589.339,383.943,602.005,333.301,567.374,279.854z"
   id="path1"
   style="fill:#dde6e7;fill-opacity:1" />&#10;</g>&#10;</svg>
