<?xml version="1.0" encoding="UTF-8" standalone="no"?><!DOCTYPE svg PUBLIC "-//W3C//DTD SVG 1.1//EN" "http://www.w3.org/Graphics/SVG/1.1/DTD/svg11.dtd"><svg width="100%" height="100%" viewBox="0 0 22596 2738" version="1.1" xmlns="http://www.w3.org/2000/svg" xmlns:xlink="http://www.w3.org/1999/xlink" xml:space="preserve" xmlns:serif="http://www.serif.com/" style="fill-rule:evenodd;clip-rule:evenodd;stroke-linejoin:round;stroke-miterlimit:2;"><rect id="Header-View" serif:id="Header View" x="0" y="0" width="22593.375" height="2736.946" style="fill:none;"/><g id="Header"><path d="M3407.357,759.83c0,0 18.5,-32.167 55.504,-96.496l81.438,23.046l5.871,112.737c0,0 6.837,3.063 20.517,9.192c36.771,22.812 63.45,42.767 80.037,59.867c0,0 12.458,14.425 37.371,43.279c0,0 42.654,-8.604 127.967,-25.808l36.858,76.967l-97.838,94.667c0,0 3.317,15.504 9.954,46.517c6.637,31.008 7.375,58.942 2.221,83.796c0,0 35.15,19.908 105.45,59.729l-23.342,82.479l-119.967,5.517c-8.262,14.579 -16.371,29.292 -24.333,44.142c-7.963,14.85 -19.571,31.958 -34.825,51.321c-15.254,19.362 -24.596,29.125 -28.021,29.283c0,0 10.488,41.308 31.458,123.929l-73.154,41.321l-94.929,-84.942c-27.463,10.7 -48.108,17.579 -61.946,20.642c-13.833,3.058 -35.629,6.025 -65.392,8.908c0,0 -9.942,-0.742 -29.821,-2.221l-64.954,109.971l-82.479,-23.342l-4.492,-127.571c0,0 -14.55,-7.688 -43.654,-23.067c-29.063,-19.504 -49.421,-35.225 -61.079,-47.171c-11.654,-11.946 -18.354,-18.821 -20.1,-20.629c-1.742,-1.808 -4.863,-6.733 -9.354,-14.771c0,0 -37.729,12.442 -113.183,37.321l-44.304,-74.562l85.454,-98.733c-11.954,-39.846 -18.158,-76.842 -18.613,-110.988c-0.45,-34.146 -0.233,-54.1 0.646,-59.867c0,0 -31.383,-17.529 -94.15,-52.583l22.9,-80.917l67.783,-1.679l48.5,-1.496c0.887,-3.133 4.162,-10.379 9.829,-21.746c5.671,-11.362 8.85,-18.263 9.542,-20.7c0.687,-2.438 8.329,-12.771 22.917,-31.008c14.588,-18.238 33.637,-36.246 57.146,-54.025c0,0 -10.588,-42.279 -31.767,-126.833l74.721,-40.875l94.646,89.938c0.446,-0.25 10.771,-3.529 30.975,-9.842c42.696,-12.725 81.442,-14.163 116.246,-4.312c2.088,0.592 4.004,1.133 5.742,1.625l0.004,-0.008Zm53.346,84.45c-90.183,-24.021 -173.9,-14.446 -251.146,28.721c-36.517,20.112 -69.037,47.371 -97.571,81.771c-28.529,34.4 -48.704,72.483 -60.525,114.246c-11.821,41.763 -14.767,85.379 -8.842,130.846c5.925,45.471 19.033,86.487 39.321,123.05c20.287,36.567 47.729,68.767 82.329,96.6c34.6,27.833 73.475,47.858 116.629,60.071c43.154,12.212 86.671,15.508 130.55,9.883c43.879,-5.625 84.104,-18.579 120.667,-38.867c36.567,-20.288 68.767,-47.729 96.6,-82.329c27.833,-34.6 47.858,-73.475 60.071,-116.629c12.213,-43.154 15.533,-86.758 9.958,-130.812c-11.3,-88.904 -51.725,-161.238 -121.271,-217.008c-31.858,-25.558 -70.788,-45.408 -116.779,-59.55l0.008,0.008Z" style="fill:url(#_Linear1);fill-rule:nonzero;"/><path d="M8271.825,1052.406c0,0 -7.013,-36.438 -21.033,-109.317l76.708,-35.762l78.108,81.508c0,0 7.179,-2.15 21.537,-6.45c42.742,-6.758 75.979,-9.083 99.708,-6.979c0,0 18.854,2.783 56.567,8.346c0,0 26.671,-34.383 80.013,-103.15l78.192,34.179l-12.208,135.587c0,0 12.642,9.571 37.929,28.708c25.283,19.137 44.096,39.8 56.433,61.983c0,0 39.617,-7.896 118.854,-23.688l36.221,77.692l-87.213,82.562c3.271,16.433 6.746,32.871 10.421,49.317c3.675,16.446 6.067,36.979 7.171,61.604c1.104,24.625 0.413,38.117 -2.079,40.479c0,0 34.929,24.421 104.792,73.258l-28.379,79.079l-127.367,-2.275c-13.796,26.042 -24.933,44.742 -33.404,56.1c-8.475,11.354 -23.033,27.842 -43.679,49.471c0,0 -8.008,5.933 -24.025,17.804l22.683,125.692l-77.692,36.221l-86.754,-93.638c0,0 -16.042,3.688 -48.121,11.062c-34.746,4.225 -60.429,5.625 -77.058,4.2c-16.629,-1.425 -26.192,-2.254 -28.696,-2.483c-2.5,-0.229 -8.079,-1.921 -16.729,-5.071c0,0 -20.433,34.067 -61.296,102.204l-82.258,-27.496l0.179,-130.579c-35.083,-22.354 -63.954,-46.308 -86.608,-71.858c-22.65,-25.554 -35.529,-40.804 -38.629,-45.742c0,0 -35.212,7.238 -105.633,21.713l-35.533,-76.217l50.217,-45.558l35.737,-32.825c-1.375,-2.95 -3.633,-10.579 -6.767,-22.883c-3.133,-12.308 -5.233,-19.608 -6.304,-21.904c-1.071,-2.296 -2.042,-15.112 -2.913,-38.45c-0.871,-23.338 1.779,-49.417 7.963,-78.237c0,0 -35.642,-25.087 -106.921,-75.258l29.854,-79.767l130.413,6.242c0.175,-0.479 5.85,-9.708 17.021,-27.688c24.004,-37.529 52.4,-63.938 85.179,-79.221c1.967,-0.917 3.771,-1.758 5.408,-2.521l-0.008,0.004Zm95.562,29.075c-83.962,40.742 -141.083,102.688 -171.354,185.842c-14.5,39.083 -21.312,80.971 -20.433,125.654c0.879,44.683 10.487,86.696 28.829,126.033c18.342,39.337 44.608,74.279 78.804,104.829c34.196,30.55 70.917,53.037 110.167,67.458c39.25,14.425 81.062,20.871 125.442,19.333c44.379,-1.533 86.892,-11.779 127.542,-30.729c40.65,-18.95 75.746,-44.892 105.287,-77.821c29.542,-32.929 51.525,-69.017 65.95,-108.267c14.425,-39.25 20.871,-81.062 19.333,-125.442c-1.533,-44.379 -11.779,-86.892 -30.729,-127.542c-18.95,-40.65 -44.929,-75.825 -77.933,-105.533c-66.642,-59.917 -144.508,-88.263 -233.596,-85.042c-40.817,1.471 -83.254,11.879 -127.312,31.221l0.004,0.004Z" style="fill:url(#_Linear2);fill-rule:nonzero;"/><path d="M10724.122,2712.53c0,0 34.465,13.749 103.396,41.252l-11.261,83.883l-110.765,21.808c0,0 -2.062,7.205 -6.186,21.615c-17.363,39.636 -33.333,68.878 -47.904,87.725c0,0 -12.513,14.375 -37.539,43.131c0,0 14.567,41.004 43.701,123.013l-70.956,47.406l-107.588,-83.414c0,0 -14.878,5.483 -44.633,16.454c-29.752,10.968 -57.299,15.664 -82.633,14.088c0,0 -14.72,37.619 -44.162,112.859l-84.958,-11.405l-22.482,-117.971c-15.602,-6.11 -31.318,-12.05 -47.148,-17.826c-15.831,-5.776 -34.411,-14.837 -55.742,-27.19c-21.331,-12.353 -32.319,-20.212 -32.964,-23.585c0,0 -39.404,16.24 -118.211,48.727l-51.282,-66.551l70.615,-106.023c-14.487,-25.663 -24.227,-45.128 -29.222,-58.388c-4.99,-13.261 -11.021,-34.413 -18.098,-63.464c0,0 -0.677,-9.944 -2.034,-29.834l-118.075,-48.695l11.405,-84.958l125.642,-22.546c0,0 5.548,-15.497 16.64,-46.488c15.184,-31.537 27.858,-53.919 38.027,-67.153c10.169,-13.234 16.025,-20.839 17.569,-22.824c1.541,-1.982 5.975,-5.767 13.293,-11.352c0,0 -17.665,-35.581 -53,-106.742l67.522,-54.436l109.859,70.583c37.747,-17.485 73.49,-28.875 107.224,-34.17c33.735,-5.289 53.523,-7.909 59.353,-7.856c0,0 12.899,-33.555 38.694,-100.661l83.345,11.189l11.277,66.859l8.364,47.798c3.226,0.433 10.868,2.647 22.919,6.645c12.054,4 19.334,6.17 21.845,6.506c2.511,0.337 13.827,6.432 33.948,18.287c20.121,11.855 40.652,28.153 61.586,48.905c0,0 40.35,-16.481 121.043,-49.441l51.066,68.164l-75.598,106.449c0.309,0.406 5.02,10.163 14.134,29.267c18.654,40.456 25.576,78.611 20.765,114.456c-0.289,2.15 -0.553,4.124 -0.794,5.914l0.001,-0.009Zm-76.028,64.787c10.981,-92.677 -10.371,-174.189 -64.064,-244.53c-25.089,-33.291 -56.687,-61.621 -94.787,-84.982c-38.1,-23.361 -78.66,-37.931 -121.678,-43.704c-43.018,-5.773 -86.609,-2.502 -130.778,9.815c-44.17,12.317 -82.912,31.109 -116.226,56.381c-33.318,25.27 -61.298,57.002 -83.941,95.201c-22.646,38.197 -36.949,79.522 -42.918,123.973c-5.969,44.451 -3.055,87.996 8.74,130.634c11.794,42.637 30.324,80.614 55.595,113.931c25.27,33.318 57.002,61.298 95.201,83.941c38.197,22.646 79.522,36.949 123.973,42.918c44.451,5.969 88.083,3.066 130.901,-8.702c86.399,-23.798 152.268,-74.077 197.608,-150.832c20.777,-35.163 34.903,-76.512 42.38,-124.045l-0.006,0.001Z" style="fill:url(#_Linear3);fill-rule:nonzero;"/><path d="M-49.181,-82.374c0,0 -7.013,-36.438 -21.033,-109.317l76.708,-35.762l78.108,81.508c0,0 7.179,-2.15 21.537,-6.45c42.742,-6.758 75.979,-9.083 99.708,-6.979c0,0 18.854,2.783 56.567,8.346c0,0 26.671,-34.383 80.013,-103.15l78.192,34.179l-12.208,135.587c0,0 12.642,9.571 37.929,28.708c25.283,19.137 44.096,39.8 56.433,61.983c0,0 39.617,-7.896 118.854,-23.688l36.221,77.692l-87.213,82.562c3.271,16.433 6.746,32.871 10.421,49.317c3.675,16.446 6.067,36.979 7.171,61.604c1.104,24.625 0.413,38.117 -2.079,40.479c0,0 34.929,24.421 104.792,73.258l-28.379,79.079l-127.367,-2.275c-13.796,26.042 -24.933,44.742 -33.404,56.1c-8.475,11.354 -23.033,27.842 -43.679,49.471c0,0 -8.008,5.933 -24.025,17.804l22.683,125.692l-77.692,36.221l-86.754,-93.638c0,0 -16.042,3.688 -48.121,11.062c-34.746,4.225 -60.429,5.625 -77.058,4.2c-16.629,-1.425 -26.192,-2.254 -28.696,-2.483c-2.5,-0.229 -8.079,-1.921 -16.729,-5.071c0,0 -20.433,34.067 -61.296,102.204l-82.258,-27.496l0.179,-130.579c-35.083,-22.354 -63.954,-46.308 -86.608,-71.858c-22.65,-25.554 -35.529,-40.804 -38.629,-45.742c0,0 -35.212,7.238 -105.633,21.713l-35.533,-76.217l50.217,-45.558l35.737,-32.825c-1.375,-2.95 -3.633,-10.579 -6.767,-22.883c-3.133,-12.308 -5.233,-19.608 -6.304,-21.904c-1.071,-2.296 -2.042,-15.112 -2.913,-38.45c-0.871,-23.338 1.779,-49.417 7.963,-78.237c0,0 -35.642,-25.087 -106.921,-75.258l29.854,-79.767l130.413,6.242c0.175,-0.479 5.85,-9.708 17.021,-27.688c24.004,-37.529 52.4,-63.938 85.179,-79.221c1.967,-0.917 3.771,-1.758 5.408,-2.521l-0.008,0.004Zm95.562,29.075c-83.962,40.742 -141.083,102.688 -171.354,185.842c-14.5,39.083 -21.312,80.971 -20.433,125.654c0.879,44.683 10.487,86.696 28.829,126.033c18.342,39.337 44.608,74.279 78.804,104.829c34.196,30.55 70.917,53.037 110.167,67.458c39.25,14.425 81.062,20.871 125.442,19.333c44.379,-1.533 86.892,-11.779 127.542,-30.729c40.65,-18.95 75.746,-44.892 105.287,-77.821c29.542,-32.929 51.525,-69.017 65.95,-108.267c14.425,-39.25 20.871,-81.062 19.333,-125.442c-1.533,-44.379 -11.779,-86.892 -30.729,-127.542c-18.95,-40.65 -44.929,-75.825 -77.933,-105.533c-66.642,-59.917 -144.508,-88.263 -233.596,-85.042c-40.817,1.471 -83.254,11.879 -127.312,31.221l0.004,0.004Z" style="fill:url(#_Linear4);fill-rule:nonzero;"/><path d="M919.666,2375.411c4.525,-3.696 8.275,-8.233 11.254,-13.617c9.279,-16.775 10.275,-40.612 2.988,-71.512c-9.429,-30.021 -19.525,-48.008 -30.288,-53.963c-0.633,-0.35 -1.108,-0.613 -1.425,-0.788c-9.388,-3.954 -23.887,0.217 -43.504,12.508c-16.283,10.004 -27.754,21.021 -34.408,33.046c-1.575,2.85 -2.908,5.625 -3.992,8.333c-0.242,1.933 -0.571,5.883 -0.979,11.858c-0.521,4.675 -1.567,8.433 -3.142,11.283c-0.175,0.317 -0.438,0.792 -0.788,1.425c-17.379,-14.162 -25.429,-26.883 -24.146,-38.162c-0.462,-4.392 1.142,-9.908 4.821,-16.554c2.625,-4.746 6.5,-10.25 11.617,-16.513c7.012,-8.933 12.179,-16.408 15.508,-22.421c2.45,-4.429 4.062,-8.087 4.829,-10.971c1.429,-7.062 0.55,-13.129 -2.638,-18.2c-3.188,-5.071 -7.975,-10.613 -14.363,-16.629c-6.387,-6.012 -11.079,-11.917 -14.075,-17.708c4.95,-2.221 11.142,-3.137 18.571,-2.746c7.429,0.392 13.462,-0.612 18.096,-3.008c3.475,-1.796 6.787,-5.546 9.942,-11.242c0.875,-1.583 1.925,-3.479 3.15,-5.696c5.946,-14.483 4.817,-28.129 -3.388,-40.938c-5.917,-9.475 -14.258,-17.192 -25.017,-23.142c-4.771,-2.642 -9.962,-4.892 -15.579,-6.758c-11.333,-5.033 -25.742,-6.392 -43.221,-4.075c-19.771,2.7 -39.4,10.958 -58.883,24.771c-19.483,13.817 -36.142,33.221 -49.975,58.225c-1.05,1.9 -2.1,3.796 -3.15,5.696c-16.112,29.117 -26.571,60.325 -31.383,93.625c-5.404,35.867 -4.5,67.783 2.717,95.75c9.363,34.529 27.633,66.754 54.812,96.675c22.371,25.192 49.983,46.879 82.829,65.054c6.637,3.671 13.604,7.112 20.9,10.325c73.046,34.629 145.779,35.604 218.2,2.925c67.167,-30.629 121.238,-82.971 162.212,-157.025c2.975,-5.379 6.042,-10.917 9.192,-16.617c9.983,-18.037 17.688,-34.029 23.117,-47.975c5.429,-13.946 9.604,-31.267 12.529,-51.971c2.929,-20.7 1.813,-39.921 -3.346,-57.654c-6.654,-21.042 -14.6,-34.121 -23.837,-39.233c-1.65,-0.912 -3.392,-1.671 -5.217,-2.267c-5.167,-0.792 -8.542,0.233 -10.117,3.083c-0.35,0.633 -0.788,1.425 -1.312,2.375c-1.225,2.217 -2.354,5 -3.383,8.358c-1.029,3.358 -2.158,6.142 -3.383,8.358c-0.525,0.95 -0.963,1.742 -1.312,2.375c-2.183,-2.033 -6.425,-8.929 -12.733,-20.687c-5.708,-10.6 -12.838,-18.263 -21.379,-22.992c-0.95,-0.525 -2.058,-1.138 -3.325,-1.838c-4.325,-1.15 -10.088,-1.758 -17.288,-1.817c-7.2,-0.058 -12.558,-0.646 -16.075,-1.763c18.083,-25.958 40.012,-41.312 65.792,-46.062c24.479,-4.642 50.008,0.388 76.592,15.1c1.583,0.875 3.008,1.663 4.271,2.363c-0.179,0.321 -0.354,0.642 -0.533,0.963c-1.237,2.242 -4.896,3.25 -10.975,3.025c-6.075,-0.225 -10,1.267 -11.775,4.471c-0.175,0.317 -0.442,0.796 -0.796,1.438c10.442,5.779 20.713,16.171 30.804,31.171c10.096,14.996 18.15,24.158 24.162,27.488c2.708,1.083 4.762,0.362 6.162,-2.171c0.7,-1.267 1.346,-3.183 1.942,-5.746c0.521,-4.675 1.392,-8.117 2.617,-10.333c0.525,-0.95 1.121,-1.654 1.787,-2.112c10.667,12.1 16.308,25.25 16.929,39.442c0.621,14.192 -2.017,31.85 -7.921,52.971c-0.208,1.125 -1.013,3.883 -2.408,8.279c-1.396,4.392 -2.217,7.558 -2.462,9.488c-0.242,1.933 -0.475,4.596 -0.696,7.983c-0.221,3.392 0.054,6.438 0.833,9.142c0.779,2.704 2.083,5.387 3.912,8.054c2.85,1.575 5.963,0.613 9.35,-2.887c3.383,-3.5 5.796,-5.058 7.238,-4.675c8.221,20.258 3.4,46.525 -14.463,78.804c-1.925,3.479 -5.888,9.146 -11.879,16.988c-3.925,4.854 -7.029,9.338 -9.304,13.454c-1.225,2.217 -2.204,4.358 -2.942,6.433c-2.171,5.412 -1.913,10.929 0.767,16.546c0.633,0.35 1.267,0.7 1.9,1.05c2.85,1.575 5.85,1.379 9.008,-0.596c4.142,-2.254 7.479,-2.683 10.008,-1.283c-0.062,5.342 -2.104,11.65 -6.133,18.929c-1.575,2.85 -3.317,5.604 -5.217,8.275c-7.629,11.488 -15.075,21.113 -22.342,28.871c-7.262,7.762 -15.554,16.812 -24.888,27.154c-9.325,10.342 -16.229,18.408 -20.704,24.196c-2.1,3.796 -4.029,7.279 -5.779,10.442c-8.229,14.875 -8.742,25.133 -1.529,30.775c0.317,0.175 0.633,0.35 0.95,0.525c3.796,2.1 8.275,1.479 13.433,-1.867c5.825,-3.804 10.725,-4.812 14.696,-3.029c-1.608,3.658 -3.292,7.067 -5.042,10.233c-8.929,16.142 -19.713,28.154 -32.346,36.046c-15.125,9.404 -36.075,16.829 -62.854,22.267c-26.779,5.438 -44.029,9.533 -51.754,12.287l-5.425,1.958c-3.792,1.621 -5.933,2.504 -6.425,2.646c-0.492,0.142 -2.342,0.875 -5.554,2.196c-3.213,1.321 -5.283,2.45 -6.213,3.383c-0.929,0.933 -2.683,2.233 -5.263,3.908c-2.579,1.675 -4.388,3.258 -5.421,4.75c-1.033,1.496 -2.162,3.35 -3.388,5.567c-0.667,0.458 -1.087,0.846 -1.262,1.162c-0.875,1.583 -1.521,3.5 -1.942,5.746c-0.417,2.25 -0.854,4.904 -1.304,7.958c0.633,0.35 1.267,0.7 1.9,1.05c3.167,1.75 7.804,3.079 13.917,3.979c3.55,0.308 6.746,1.254 9.596,2.829c1.9,1.05 3.621,2.417 5.171,4.1c-0.525,0.95 -0.962,1.742 -1.312,2.375c-5.254,9.496 -18.121,15.192 -38.596,17.088c-11.238,1.633 -27.621,1.354 -49.142,-0.838c-21.521,-2.196 -37.55,-3.108 -48.087,-2.737c-24.592,-0.379 -39.075,3.387 -43.454,11.3c-0.175,0.317 -0.35,0.633 -0.525,0.95c-1.817,4.779 -1.971,8.417 -0.454,10.908c1.375,2 4.275,4.225 8.704,6.679c0.633,0.35 11.233,6.217 12.817,7.092c-8.992,16.254 -32.583,18.917 -70.771,7.996c-5.438,-1.375 -11.642,-3.992 -18.604,-7.842c-12.975,-7.179 -28.046,-18.412 -45.217,-33.7c-3.762,-2.908 -8.354,-7.312 -13.775,-13.204c-5.421,-5.892 -9.925,-10.45 -13.512,-13.679c-2.812,-2.383 -5.963,-4.537 -9.442,-6.467c-1.267,-0.7 -2.692,-1.488 -4.271,-2.362c-5.554,-2.663 -11.425,-3.633 -17.604,-2.921c-5.125,2.537 -8.65,5.546 -10.575,9.029c-0.525,0.95 -0.892,1.987 -1.1,3.112c-1.504,4.954 -1.392,9.05 0.337,12.279c1.725,3.229 3.612,7.475 5.658,12.742c2.046,5.267 3.004,9.517 2.867,12.746c-5.617,2.679 -12.537,1.742 -20.767,-2.808c-4.429,-2.45 -8.988,-5.8 -13.667,-10.042c-6.962,-3.854 -13.375,-9.075 -19.237,-15.662c-5.862,-6.588 -12.212,-14.913 -19.05,-24.967c-6.842,-10.05 -12.263,-17.433 -16.263,-22.154c-22.879,-28.129 -41.912,-46.396 -57.104,-54.8c-2.587,-1.429 -5.096,-2.613 -7.533,-3.546c-9.746,-3.737 -17,-3.208 -21.771,1.596c-0.875,1.583 -1.663,3.008 -2.362,4.271c-2.8,5.062 -2.704,10.492 0.292,16.283c3.913,7.125 4.729,12.746 2.454,16.858c0,0 -0.087,0.158 -0.263,0.475c-14.875,-8.229 -27.442,-18.387 -37.704,-30.475c-10.262,-12.083 -18.208,-26.3 -23.838,-42.642c-5.629,-16.342 -9.617,-30.433 -11.954,-42.267c-2.338,-11.833 -4.562,-27.429 -6.667,-46.783c-0.358,-3.092 -0.571,-9.617 -0.637,-19.575c-0.071,-9.958 -0.463,-18.029 -1.175,-24.213c-0.713,-6.183 -2.196,-11.342 -4.454,-15.483c-2.504,-5.933 -6.763,-10.563 -12.775,-13.892c-2.533,-1.4 -5.238,-2.483 -8.121,-3.254c-10.229,-3.179 -18.408,-1.092 -24.546,6.258c-0.667,0.458 -1.175,1.004 -1.525,1.637c-1.4,2.533 -2.608,6.204 -3.617,11.021c-1.221,5.938 -2.3,10.508 -3.246,13.708c-0.033,0.808 -0.138,1.371 -0.313,1.687c-1.4,2.533 -4.154,4.521 -8.262,5.967c-6.087,-5.433 -10.579,-12.258 -13.471,-20.475c-2.896,-8.217 -4.471,-15.079 -4.725,-20.596c-0.254,-5.517 -0.287,-14.421 -0.1,-26.717c0.433,-33.654 4.887,-58.888 13.362,-75.696c2.346,-5.729 5.617,-12.392 9.821,-19.988c5.779,-10.442 13.083,-22.525 21.913,-36.237c8.829,-13.717 15.958,-25.479 21.387,-35.292c4.029,-7.279 7.037,-13.467 9.033,-18.562c4.446,-9.529 6.117,-18.525 5.012,-26.987c-0.679,-6.992 -4.658,-12.5 -11.938,-16.525c-1.267,-0.7 -2.779,-1.329 -4.533,-1.887c-7.171,-2.729 -15.712,-0.738 -25.625,5.971c-9.913,6.708 -17.154,10.454 -21.717,11.233c-1.55,-1.683 -2.396,-3.704 -2.542,-6.054c-0.146,-2.354 -0.058,-4.375 0.254,-6.062c0.312,-1.688 1.012,-3.883 2.096,-6.592c1.083,-2.708 1.571,-4.708 1.467,-6.008c2.796,-8.787 6.646,-17.612 11.55,-26.471c4.029,-7.279 8.862,-14.525 14.508,-21.733c12.162,-16.004 25.283,-27.762 39.358,-35.267c12.95,-7.717 33.883,-14.733 62.804,-21.054c28.921,-6.321 49.646,-12.213 62.179,-17.679c21.1,-8.996 34.1,-17.921 39,-26.783c3.854,-6.962 2.192,-13.671 -4.988,-20.121c-0.775,-0.842 -1.796,-1.612 -3.058,-2.312c-3.479,-1.925 -8.208,-3.096 -14.179,-3.508c-6.462,-0.271 -11.279,-1.279 -14.446,-3.033c-0.633,-0.35 -1.179,-0.858 -1.637,-1.525c6.979,-8.125 22.104,-15.671 45.383,-22.629c26.479,-6.017 62.246,-1.933 107.308,12.254c21.371,7.692 35.183,10.375 41.433,8.046c4.425,-1.271 7.775,-3.967 10.05,-8.079c2.275,-4.113 3.042,-7.929 2.3,-11.438c-0.742,-3.513 -1.567,-6.138 -2.462,-7.875c-0.9,-1.737 -3.371,-4.554 -7.417,-8.446c-4.046,-3.892 -6.687,-6.592 -7.917,-8.1c9.725,-4.125 19.913,-3.862 30.567,0.792c2.217,1.225 4.429,2.45 6.646,3.679c7.596,4.204 14.667,9.354 21.208,15.458c7.917,8.1 17.258,16.992 28.025,26.671c7.496,6.625 14.246,11.604 20.262,14.929c2.85,1.575 5.467,2.817 7.858,3.729c10.971,4.829 21.508,4.458 31.617,-1.108c4.633,-2.396 8.175,-5.812 10.629,-10.242c2.8,-5.062 3.95,-11.25 3.446,-18.554c-1.083,-16.721 -21.563,-37.975 -61.446,-63.762c1.367,-1.725 2.954,-2.912 4.763,-3.567c1.808,-0.654 3.483,-1.067 5.029,-1.246c1.546,-0.179 3.487,-0.137 5.825,0.121c2.337,0.258 4.067,0.492 5.192,0.704c1.125,0.208 3.004,0.733 5.642,1.571c2.638,0.838 4.112,1.346 4.429,1.521c6.537,2.379 12.971,5.317 19.3,8.821c6.329,3.504 12.712,7.654 19.15,12.458c48.217,31.642 78.987,81.738 92.317,150.287c0.812,3.758 3.383,21.713 7.704,53.867c4.325,32.154 8.992,56.025 14.008,71.617c0.708,2.458 2.913,8.742 6.621,18.854c3.704,10.112 5.721,17.117 6.042,21.017c-0.412,5.971 -3.871,16.15 -10.383,30.529c-6.508,14.379 -10.604,24.204 -12.279,29.479c-1.679,5.271 -2.888,11.008 -3.633,17.213c-0.746,6.2 -1.321,13.221 -1.729,21.054c-0.408,7.833 -0.783,13.929 -1.129,18.287c-3.113,28.037 -7.208,46.65 -12.288,55.825c-0.525,0.95 -0.962,1.742 -1.312,2.375c-2.7,2.637 -6.667,5.508 -11.896,8.608c-5.229,3.1 -9.179,5.567 -11.846,7.396c-2.033,2.183 -4.925,5.542 -8.679,10.079c-3.75,4.537 -6.608,7.092 -8.575,7.654c-7.058,2.296 -14.979,2.046 -23.767,-0.75c-3.2,-0.942 -6.379,-2.292 -9.546,-4.042c-5.062,-2.8 -9.758,-6.642 -14.087,-11.517l-0.021,-0.017Z" style="fill:url(#_Linear5);fill-rule:nonzero;"/><path d="M6382.598,487.745c2.593,-5.236 4.133,-10.917 4.621,-17.05c1.517,-19.11 -7.428,-41.228 -26.834,-66.354c-20.993,-23.44 -37.62,-35.647 -49.881,-36.621c-0.721,-0.057 -1.262,-0.1 -1.623,-0.128c-10.182,0.279 -21.663,10.069 -34.446,29.369c-10.693,15.839 -16.586,30.612 -17.675,44.312c-0.256,3.246 -0.324,6.324 -0.191,9.238c0.579,1.86 1.912,5.593 4.009,11.203c1.458,4.472 2.059,8.327 1.802,11.573c-0.028,0.361 -0.071,0.902 -0.128,1.623c-21.679,-5.714 -34.266,-13.971 -37.759,-24.772c-2.236,-3.808 -3.055,-9.494 -2.452,-17.067c0.429,-5.406 1.683,-12.02 3.754,-19.837c2.694,-11.033 4.309,-19.975 4.856,-26.826c0.401,-5.046 0.357,-9.043 -0.137,-11.986c-1.617,-7.022 -4.925,-12.183 -9.923,-15.483c-4.998,-3.3 -11.648,-6.368 -19.951,-9.207c-8.301,-2.835 -15.014,-6.273 -20.135,-10.308c3.59,-4.068 8.849,-7.462 15.776,-10.175c6.927,-2.714 12.006,-6.121 15.235,-10.218c2.422,-3.071 3.889,-7.855 4.407,-14.345c0.142,-1.803 0.315,-3.964 0.514,-6.488c-0.571,-15.646 -7.239,-27.605 -20.003,-35.878c-9.304,-6.183 -20.089,-9.762 -32.344,-10.734c-5.436,-0.434 -11.094,-0.337 -16.98,0.284c-12.4,0.1 -26.082,4.818 -41.041,14.151c-16.888,10.629 -31.349,26.262 -43.382,46.892c-12.032,20.634 -19.181,45.188 -21.445,73.673c-0.171,2.164 -0.344,4.324 -0.514,6.488c-2.639,33.173 0.735,65.913 10.115,98.225c9.902,34.894 23.915,63.584 42.045,86.068c22.796,27.573 52.751,49.367 89.866,65.38c30.782,13.694 64.889,22.032 102.31,25.007c7.561,0.6 15.327,0.854 23.299,0.765c80.827,1.345 147.462,-27.826 199.903,-87.513c48.504,-55.649 76.11,-125.658 82.817,-210.026c0.486,-6.128 0.99,-12.438 1.503,-18.93c1.636,-20.551 2.043,-38.297 1.223,-53.24c-0.82,-14.943 -4.176,-32.441 -10.069,-52.503c-5.887,-20.06 -14.848,-37.101 -26.874,-51.117c-14.755,-16.411 -27.396,-25.037 -37.921,-25.875c-1.88,-0.149 -3.779,-0.12 -5.687,0.092c-5.032,1.414 -7.682,3.743 -7.938,6.989c-0.057,0.721 -0.128,1.623 -0.214,2.705c-0.199,2.525 -0.077,5.526 0.373,9.009c0.451,3.483 0.573,6.485 0.373,9.009c-0.085,1.082 -0.157,1.984 -0.214,2.705c-2.828,-0.949 -9.541,-5.476 -20.145,-13.576c-9.579,-7.293 -19.237,-11.325 -28.97,-12.101c-1.082,-0.085 -2.344,-0.185 -3.787,-0.299c-4.414,0.74 -9.912,2.568 -16.493,5.49c-6.58,2.922 -11.703,4.602 -15.366,5.038c5.739,-31.111 19.362,-54.156 40.874,-69.135c20.373,-14.343 45.698,-20.314 75.985,-17.903c1.803,0.142 3.426,0.271 4.865,0.386c-0.031,0.366 -0.057,0.731 -0.088,1.097c-0.2,2.553 -3.115,4.983 -8.744,7.29c-5.625,2.306 -8.583,5.286 -8.875,8.937c-0.028,0.361 -0.073,0.907 -0.131,1.638c11.897,0.947 25.544,6.165 40.933,15.654c15.391,9.483 26.512,14.498 33.362,15.045c2.914,-0.133 4.487,-1.638 4.714,-4.524c0.114,-1.443 -0.09,-3.455 -0.607,-6.035c-1.458,-4.472 -2.087,-7.966 -1.888,-10.491c0.085,-1.082 0.337,-1.97 0.755,-2.662c14.714,6.61 25.286,16.253 31.716,28.919c6.43,12.666 11.326,29.836 14.679,51.509c0.275,1.111 0.683,3.955 1.229,8.534c0.544,4.576 1.105,7.799 1.679,9.657c0.579,1.86 1.467,4.381 2.666,7.557c1.201,3.18 2.71,5.84 4.537,7.98c1.827,2.14 4.124,4.045 6.891,5.717c3.246,0.256 5.683,-1.906 7.321,-6.494c1.634,-4.585 3.187,-7.001 4.658,-7.248c15.858,15.05 22.324,40.961 19.398,77.737c-0.315,3.964 -1.581,10.761 -3.797,20.378c-1.568,6.042 -2.542,11.408 -2.912,16.097c-0.199,2.525 -0.206,4.88 -0.02,7.074c0.26,5.826 2.775,10.743 7.536,14.75c0.721,0.057 1.443,0.114 2.164,0.171c3.246,0.256 5.897,-1.162 7.957,-4.265c2.84,-3.764 5.702,-5.534 8.583,-5.305c2.151,4.89 2.899,11.478 2.238,19.772c-0.256,3.246 -0.704,6.474 -1.33,9.691c-2.2,13.614 -5.002,25.455 -8.413,35.523c-3.405,10.07 -7.216,21.738 -11.441,35.012c-4.217,13.271 -7.171,23.47 -8.854,30.589c-0.344,4.324 -0.661,8.294 -0.947,11.897c-1.346,16.946 2.427,26.499 11.326,28.656c0.361,0.028 0.721,0.057 1.082,0.085c4.324,0.344 8.147,-2.073 11.461,-7.251c3.732,-5.871 7.777,-8.815 12.13,-8.832c0.047,3.996 -0.077,7.795 -0.362,11.402c-1.46,18.389 -6.315,33.784 -14.557,46.191c-9.886,14.814 -25.895,30.234 -48.033,46.252c-22.138,16.019 -36.153,26.877 -42.05,32.578l-4.131,4.025c-2.783,3.043 -4.368,4.732 -4.757,5.065c-0.389,0.332 -1.771,1.765 -4.15,4.295c-2.379,2.53 -3.799,4.414 -4.259,5.648c-0.46,1.234 -1.52,3.143 -3.177,5.734c-1.656,2.591 -2.649,4.78 -2.973,6.566c-0.323,1.789 -0.585,3.944 -0.784,6.469c-0.418,0.693 -0.641,1.22 -0.669,1.58c-0.142,1.803 0.062,3.816 0.607,6.035c0.55,2.221 1.249,4.819 2.101,7.786c0.721,0.057 1.443,0.114 2.164,0.171c3.607,0.285 8.379,-0.421 14.317,-2.128c3.36,-1.186 6.661,-1.646 9.907,-1.389c2.164,0.171 4.296,0.704 6.403,1.597c-0.085,1.082 -0.157,1.984 -0.214,2.705c-0.86,10.818 -10.223,21.323 -28.084,31.511c-9.558,6.132 -24.592,12.648 -45.095,19.546c-20.504,6.894 -35.478,12.688 -44.92,17.381c-22.55,9.818 -34.182,19.233 -34.9,28.248c-0.028,0.361 -0.057,0.721 -0.085,1.082c0.321,5.103 1.684,8.479 4.095,10.121c2.079,1.253 5.639,2.081 10.686,2.485c0.721,0.057 12.798,1.018 14.602,1.161c-1.47,18.517 -21.853,30.692 -61.14,36.529c-5.52,0.995 -12.251,1.176 -20.182,0.548c-14.782,-1.175 -33.148,-5.176 -55.102,-12c-4.628,-1.093 -10.629,-3.206 -18.001,-6.331c-7.371,-3.125 -13.356,-5.414 -17.958,-6.872c-3.546,-1.008 -7.305,-1.668 -11.27,-1.987c-1.443,-0.114 -3.066,-0.242 -4.865,-0.386c-6.158,-0.129 -11.905,1.413 -17.238,4.616c-3.618,4.429 -5.585,8.625 -5.898,12.592c-0.085,1.082 0.009,2.178 0.285,3.289c0.678,5.133 2.473,8.816 5.382,11.042c2.905,2.228 6.379,5.314 10.418,9.264c4.04,3.95 6.669,7.424 7.878,10.422c-4.007,4.761 -10.697,6.767 -20.071,6.025c-5.046,-0.401 -10.581,-1.567 -16.595,-3.496c-7.933,-0.632 -15.93,-2.736 -23.991,-6.312c-8.061,-3.576 -17.284,-8.532 -27.665,-14.862c-10.383,-6.324 -18.371,-10.807 -23.965,-13.453c-32.459,-16.159 -57.34,-24.927 -74.647,-26.301c-2.947,-0.232 -5.72,-0.273 -8.325,-0.116c-10.419,0.624 -16.806,4.104 -19.165,10.451c-0.142,1.803 -0.271,3.426 -0.386,4.865c-0.457,5.767 1.874,10.671 6.995,14.707c6.507,4.871 9.574,9.652 9.202,14.337c0,0 -0.014,0.18 -0.043,0.541c-16.946,-1.346 -32.588,-5.403 -46.928,-12.169c-14.339,-6.762 -27.45,-16.424 -39.329,-28.978c-11.88,-12.554 -21.334,-23.738 -28.353,-33.548c-7.019,-9.809 -15.49,-23.092 -25.405,-39.846c-1.604,-2.667 -4.494,-8.521 -8.67,-17.562c-4.18,-9.039 -7.872,-16.226 -11.076,-21.562c-3.204,-5.336 -6.687,-9.42 -10.455,-12.258c-4.732,-4.368 -10.523,-6.823 -17.374,-7.37c-2.885,-0.228 -5.796,-0.097 -8.74,0.393c-10.629,1.332 -17.214,6.614 -19.765,15.843c-0.418,0.693 -0.655,1.4 -0.712,2.121c-0.228,2.885 0.189,6.728 1.261,11.53c1.342,5.911 2.248,10.519 2.71,13.824c0.304,0.75 0.441,1.305 0.413,1.666c-0.228,2.885 -1.914,5.834 -5.058,8.848c-7.789,-2.432 -14.7,-6.79 -20.728,-13.077c-6.033,-6.285 -10.303,-11.883 -12.814,-16.802c-2.511,-4.918 -6.222,-13.013 -11.132,-24.287c-13.514,-30.825 -19.886,-55.643 -19.115,-74.451c-0.232,-6.186 -0.007,-13.605 0.683,-22.259c0.947,-11.897 2.605,-25.918 4.978,-42.054c2.371,-16.139 4.002,-29.797 4.89,-40.976c0.661,-8.294 0.843,-15.171 0.554,-20.636c0.11,-10.515 -2.086,-19.397 -6.589,-26.647c-3.508,-6.086 -9.408,-9.457 -17.7,-10.114c-1.443,-0.114 -3.08,-0.062 -4.908,0.155c-7.658,0.478 -14.613,5.822 -20.867,16.027c-6.254,10.205 -11.3,16.609 -15.133,19.204c-2.107,-0.892 -3.713,-2.383 -4.816,-4.463c-1.106,-2.083 -1.861,-3.96 -2.274,-5.626c-0.413,-1.666 -0.683,-3.955 -0.816,-6.869c-0.133,-2.914 -0.515,-4.937 -1.148,-6.077c-1.086,-9.157 -1.227,-18.785 -0.422,-28.878c0.661,-8.294 2.067,-16.889 4.23,-25.786c4.461,-19.6 11.55,-35.73 21.265,-48.38c8.603,-12.379 24.765,-27.419 48.489,-45.127c23.723,-17.708 40.161,-31.638 49.314,-41.796c15.496,-16.912 23.645,-30.412 24.445,-40.507c0.632,-7.933 -3.654,-13.355 -12.857,-16.261c-1.054,-0.446 -2.302,-0.726 -3.741,-0.842c-3.964,-0.315 -8.754,0.573 -14.362,2.665c-5.997,2.424 -10.8,3.497 -14.408,3.208c-0.721,-0.057 -1.428,-0.294 -2.121,-0.712c2.997,-10.283 13.652,-23.405 31.974,-39.362c21.626,-16.422 55.882,-27.485 102.78,-33.189c22.639,-1.828 36.326,-5.093 41.055,-9.797c3.504,-2.986 5.441,-6.825 5.813,-11.51c0.372,-4.685 -0.507,-8.477 -2.632,-11.366c-2.127,-2.892 -3.963,-4.941 -5.497,-6.153c-1.538,-1.21 -4.952,-2.754 -10.244,-4.626c-5.292,-1.872 -8.814,-3.239 -10.556,-4.104c7.151,-7.775 16.536,-11.747 28.161,-11.912c2.525,0.199 5.046,0.401 7.572,0.604c8.654,0.689 17.221,2.457 25.701,5.312c10.556,4.104 22.738,8.34 36.542,12.705c9.564,2.935 17.768,4.679 24.621,5.221c3.246,0.256 6.142,0.306 8.697,0.148c11.986,-0.137 21.428,-4.829 28.332,-14.076c3.229,-4.097 5.042,-8.671 5.446,-13.719c0.457,-5.767 -1.052,-11.877 -4.53,-18.32c-7.897,-14.778 -35.329,-25.669 -82.304,-32.668c0.532,-2.136 1.486,-3.873 2.863,-5.216c1.376,-1.343 2.731,-2.411 4.065,-3.213c1.334,-0.802 3.119,-1.567 5.354,-2.297c2.235,-0.731 3.906,-1.233 5.019,-1.504c1.111,-0.275 3.039,-0.574 5.787,-0.901c2.748,-0.327 4.301,-0.474 4.662,-0.446c6.936,-0.535 14.009,-0.519 21.22,0.056c7.212,0.575 14.739,1.716 22.587,3.43c56.983,8.886 105.707,41.787 146.174,98.7c2.293,3.087 12.054,18.373 29.277,45.867c17.227,27.492 31.342,47.301 42.353,59.425c1.661,1.946 6.265,6.757 13.821,14.432c7.552,7.678 12.283,13.222 14.187,16.641c2.092,5.608 3.15,16.306 3.162,32.091c0.016,15.783 0.347,26.423 1.002,31.919c0.649,5.494 1.92,11.218 3.805,17.175c1.883,5.954 4.261,12.585 7.127,19.887c2.865,7.302 5.043,13.008 6.53,17.119c8.753,26.817 12.715,45.459 11.882,55.913c-0.085,1.082 -0.157,1.984 -0.214,2.705c-1.369,3.518 -3.794,7.771 -7.275,12.755c-3.481,4.984 -6.058,8.863 -7.73,11.63c-0.949,2.828 -2.194,7.082 -3.738,12.765c-1.54,5.682 -3.087,9.189 -4.645,10.514c-5.479,5.008 -12.795,8.053 -21.952,9.139c-3.303,0.465 -6.756,0.55 -10.363,0.265c-5.767,-0.457 -11.631,-2.015 -17.588,-4.665l-0.026,-0.007Z" style="fill:url(#_Linear6);fill-rule:nonzero;"/><path d="M22166.583,52.438c-5.432,-2.152 -11.221,-3.217 -17.374,-3.196c-19.17,0.067 -40.474,10.808 -63.911,32.224c-21.626,22.858 -32.418,40.437 -32.375,52.736c0.003,0.724 0.005,1.266 0.006,1.628c1.119,10.125 11.825,20.757 32.115,31.902c16.669,9.348 31.877,14 45.621,13.954c3.256,-0.013 6.329,-0.2 9.222,-0.573c1.806,-0.731 5.416,-2.367 10.833,-4.921c4.337,-1.822 8.128,-2.74 11.385,-2.752c0.362,-0.001 0.905,-0.004 1.628,-0.006c-3.904,22.077 -11.092,35.303 -21.568,39.676c-3.61,2.543 -9.21,3.829 -16.806,3.853c-5.423,0.019 -12.118,-0.684 -20.08,-2.102c-11.218,-1.773 -20.263,-2.644 -27.135,-2.623c-5.062,0.018 -9.042,0.391 -11.934,1.126c-6.864,2.192 -11.734,5.915 -14.61,11.169c-2.876,5.254 -5.384,12.134 -7.527,20.643c-2.14,8.507 -5.011,15.481 -8.61,20.918c-4.351,-3.241 -8.167,-8.202 -11.444,-14.881c-3.277,-6.679 -7.092,-11.459 -11.442,-14.339c-3.261,-2.16 -8.15,-3.227 -14.66,-3.207c-1.809,0.007 -3.976,0.013 -6.509,0.023c-15.545,1.862 -26.913,9.495 -34.103,22.899c-5.393,9.783 -8.069,20.826 -8.025,33.12c0.017,5.453 0.581,11.083 1.686,16.898c1.125,12.35 6.956,25.595 17.494,39.732c11.988,15.952 28.762,29.072 50.315,39.36c21.557,10.286 46.618,15.383 75.193,15.285c2.171,-0.008 4.338,-0.015 6.509,-0.023c33.277,-0.111 65.627,-6.178 97.054,-18.195c33.957,-12.751 61.391,-29.087 82.3,-49.012c25.596,-24.996 44.84,-56.649 57.732,-94.96c11.105,-31.808 16.595,-66.487 16.47,-104.026c-0.027,-7.585 -0.415,-15.346 -1.163,-23.282c-5.337,-80.662 -39.913,-144.659 -103.729,-191.99c-59.466,-43.741 -131.516,-65.468 -216.15,-65.183c-6.147,0.022 -12.477,0.041 -18.989,0.066c-20.616,0.067 -38.335,1.128 -53.159,3.179c-14.824,2.051 -31.985,6.842 -51.492,14.372c-19.505,7.525 -35.748,17.862 -48.723,31.005c-15.136,16.061 -22.688,29.371 -22.653,39.929c0.007,1.886 0.193,3.776 0.561,5.66c1.825,4.898 4.364,7.346 7.621,7.334c0.724,-0.003 1.628,-0.006 2.714,-0.011c2.533,-0.01 5.513,-0.379 8.948,-1.116c3.434,-0.737 6.415,-1.107 8.948,-1.116c1.085,-0.004 1.99,-0.008 2.714,-0.011c-0.712,2.897 -4.669,9.961 -11.865,21.197c-6.477,10.149 -9.697,20.107 -9.666,29.871c0.004,1.085 0.009,2.352 0.015,3.799c1.102,4.337 3.378,9.666 6.834,15.983c3.456,6.317 5.553,11.282 6.291,14.898c-31.479,-3.149 -55.57,-14.822 -72.275,-35.023c-15.977,-19.118 -24.02,-43.864 -24.12,-74.246c-0.007,-1.809 -0.013,-3.437 -0.017,-4.881c0.367,0 0.733,-0.003 1.1,-0.003c2.561,-0.011 5.223,2.693 7.988,8.112c2.763,5.415 5.977,8.117 9.64,8.106c0.362,-0.001 0.91,-0.002 1.643,-0.005c-0.039,-11.934 4.034,-25.966 12.219,-42.086c8.179,-16.122 12.258,-27.619 12.237,-34.491c-0.373,-2.893 -2.003,-4.336 -4.898,-4.325c-1.447,0.006 -3.436,0.375 -5.964,1.103c-4.337,1.822 -7.767,2.738 -10.299,2.748c-1.085,0.004 -1.991,-0.173 -2.716,-0.532c5.372,-15.21 14.108,-26.542 26.2,-33.997c12.092,-7.455 28.799,-13.753 50.12,-18.884c1.084,-0.366 3.885,-1.007 8.404,-1.929c4.515,-0.92 7.681,-1.746 9.485,-2.471c1.806,-0.731 4.245,-1.824 7.311,-3.281c3.07,-1.459 5.596,-3.183 7.578,-5.181c1.982,-1.998 3.69,-4.444 5.128,-7.34c-0.013,-3.256 -2.369,-5.506 -7.076,-6.759c-4.705,-1.25 -7.241,-2.598 -7.608,-4.044c13.688,-17.047 38.977,-25.631 75.868,-25.754c3.976,-0.013 10.855,0.687 20.622,2.1c6.151,1.063 11.579,1.591 16.282,1.572c2.533,-0.01 4.88,-0.198 7.051,-0.565c5.784,-0.74 10.477,-3.653 14.077,-8.729c-0.003,-0.724 -0.006,-1.447 -0.008,-2.171c-0.013,-3.256 -1.645,-5.781 -4.908,-7.577c-3.986,-2.519 -5.987,-5.225 -5.996,-8.116c4.696,-2.547 11.199,-3.837 19.519,-3.864c3.256,-0.013 6.51,0.167 9.768,0.525c13.749,1.067 25.782,2.882 36.097,5.449c10.317,2.562 22.26,5.395 35.838,8.509c13.574,3.107 23.982,5.207 31.216,6.296c4.338,-0.015 8.32,-0.027 11.934,-0.039c16.999,-0.059 26.208,-4.608 27.622,-13.655c-0.001,-0.362 -0.003,-0.724 -0.004,-1.085c-0.015,-4.338 -2.739,-7.947 -8.174,-10.823c-6.16,-3.234 -9.427,-7.023 -9.804,-11.359c3.978,-0.377 7.775,-0.567 11.393,-0.581c18.447,-0.064 34.19,3.502 47.236,10.692c15.58,8.629 32.27,23.309 50.062,44.048c17.793,20.739 29.772,33.809 35.94,39.214l4.353,3.784c3.262,2.522 5.077,3.962 5.44,4.323c0.363,0.36 1.905,1.619 4.623,3.781c2.718,2.162 4.713,3.421 5.981,3.778c1.268,0.357 3.258,1.256 5.977,2.692c2.719,1.437 4.983,2.245 6.789,2.421c1.81,0.174 3.979,0.257 6.512,0.247c0.725,0.359 1.268,0.538 1.63,0.536c1.809,-0.007 3.798,-0.377 5.964,-1.103c2.168,-0.732 4.699,-1.643 7.586,-2.737c-0.003,-0.724 -0.006,-1.447 -0.008,-2.171c-0.014,-3.618 -1.112,-8.316 -3.303,-14.092c-1.46,-3.251 -2.191,-6.502 -2.203,-9.759c-0.008,-2.171 0.347,-4.339 1.062,-6.513c1.085,-0.004 1.99,-0.008 2.714,-0.011c10.852,-0.037 22.094,8.426 33.723,25.385c6.9,9.019 14.637,23.463 23.205,43.326c8.565,19.865 15.576,34.308 21.032,43.331c11.647,21.662 21.992,32.476 31.035,32.447c0.362,-0.001 0.724,-0.003 1.085,-0.004c5.059,-0.741 8.311,-2.378 9.748,-4.917c1.077,-2.175 1.608,-5.792 1.594,-10.855c-0.003,-0.724 -0.042,-12.839 -0.049,-14.648c18.575,-0.064 32.392,19.243 41.455,57.913c1.448,5.419 2.184,12.112 2.213,20.068c0.05,14.829 -2.42,33.462 -7.407,55.905c-0.707,4.703 -2.317,10.858 -4.822,18.462c-2.505,7.604 -4.292,13.758 -5.365,18.464c-0.712,3.617 -1.059,7.418 -1.049,11.396c0.006,1.447 0.012,3.075 0.017,4.881c0.38,6.148 2.392,11.748 6.024,16.797c4.712,3.24 9.057,4.853 13.037,4.838c1.085,-0.004 2.17,-0.189 3.254,-0.555c5.059,-1.099 8.582,-3.193 10.56,-6.276c1.98,-3.079 4.769,-6.796 8.372,-11.148c3.603,-4.352 6.848,-7.259 9.735,-8.712c5.076,3.6 7.628,10.101 7.663,19.504c0.018,5.062 -0.688,10.674 -2.113,16.827c0.025,7.958 -1.411,16.101 -4.308,24.43c-2.898,8.329 -7.075,17.93 -12.526,28.798c-5.445,10.87 -9.252,19.201 -11.427,24.994c-13.422,33.683 -20.105,59.203 -20.045,76.565c0.012,2.956 0.201,5.723 0.573,8.306c1.483,10.332 5.479,16.41 11.998,18.236c1.809,-0.007 3.437,-0.013 4.881,-0.017c5.785,-0.021 10.48,-2.749 14.079,-8.186c4.317,-6.888 8.828,-10.339 13.528,-10.355c0,0 0.181,-0.001 0.543,-0.002c0.059,16.999 -2.692,32.923 -8.25,47.773c-5.554,14.848 -14.1,28.713 -25.63,41.589c-11.53,12.876 -21.895,23.223 -31.091,31.028c-9.196,7.805 -21.733,17.345 -37.611,28.61c-2.526,1.819 -8.121,5.183 -16.785,10.092c-8.663,4.912 -15.521,9.186 -20.574,12.82c-5.053,3.634 -8.836,7.442 -11.353,11.432c-3.962,5.077 -5.931,11.051 -5.91,17.924c0.011,2.894 0.382,5.784 1.114,8.677c2.206,10.482 8.013,16.609 17.422,18.389c0.725,0.359 1.449,0.537 2.173,0.534c2.894,-0.011 6.689,-0.744 11.387,-2.21c5.78,-1.826 10.298,-3.11 13.553,-3.842c0.722,-0.365 1.264,-0.548 1.626,-0.549c2.894,-0.011 5.972,1.426 9.236,4.31c-1.78,7.963 -5.553,15.21 -11.32,21.738c-5.765,6.531 -10.992,11.25 -15.686,14.159c-4.694,2.909 -12.454,7.275 -23.284,13.101c-29.603,16.014 -53.81,24.415 -72.618,25.201c-6.146,0.742 -13.558,1.131 -22.24,1.159c-11.934,0.039 -26.045,-0.455 -42.321,-1.486c-16.28,-1.03 -30.025,-1.527 -41.24,-1.488c-8.32,0.027 -15.189,0.413 -20.612,1.152c-10.488,0.759 -19.158,3.681 -26.011,8.768c-5.775,3.999 -8.648,10.157 -8.617,18.475c0.006,1.447 0.193,3.075 0.56,4.879c1.109,7.592 7.009,14.082 17.696,19.471c10.687,5.39 17.486,9.889 20.389,13.495c-0.715,2.174 -2.068,3.897 -4.049,5.169c-1.985,1.274 -3.792,2.182 -5.418,2.731c-1.626,0.549 -3.885,1.007 -6.778,1.38c-2.893,0.373 -4.877,0.922 -5.962,1.646c-9.036,1.839 -18.619,2.775 -28.744,2.807c-8.32,0.027 -17.002,-0.665 -26.048,-2.085c-19.902,-2.827 -36.562,-8.558 -49.971,-17.196c-13.047,-7.551 -29.372,-22.416 -48.979,-44.595c-19.607,-22.179 -34.848,-37.41 -45.727,-45.693c-18.134,-14.046 -32.261,-21.052 -42.388,-21.015c-7.958,0.025 -13.007,4.745 -15.143,14.157c-0.358,1.087 -0.534,2.354 -0.53,3.797c0.013,3.976 1.294,8.677 3.843,14.092c2.911,5.776 4.377,10.474 4.387,14.094c0.003,0.724 -0.175,1.448 -0.534,2.173c-10.495,-2.138 -24.453,-11.672 -41.869,-28.613c-18.152,-20.195 -32.008,-53.421 -41.567,-99.687c-3.692,-22.411 -8.077,-35.781 -13.155,-40.105c-3.265,-3.246 -7.251,-4.858 -11.951,-4.842c-4.7,0.016 -8.407,1.206 -11.109,3.562c-2.706,2.359 -4.597,4.358 -5.678,5.986c-1.079,1.632 -2.335,5.162 -3.764,10.591c-1.428,5.429 -2.499,9.051 -3.218,10.859c-8.34,-6.484 -13.073,-15.509 -14.197,-27.081c-0.01,-2.533 -0.018,-5.062 -0.024,-7.596c-0.028,-8.682 1.025,-17.365 3.17,-26.052c3.218,-10.859 6.433,-23.349 9.642,-37.467c2.135,-9.773 3.195,-18.094 3.169,-24.968c-0.013,-3.256 -0.203,-6.146 -0.571,-8.68c-1.126,-11.934 -6.583,-20.956 -16.368,-27.073c-4.349,-2.88 -9.058,-4.308 -14.122,-4.294c-5.785,0.021 -11.749,2.03 -17.883,6.028c-14.075,9.091 -22.663,37.329 -25.757,84.722c-2.172,-0.353 -3.983,-1.161 -5.435,-2.422c-1.452,-1.261 -2.628,-2.523 -3.538,-3.785c-0.909,-1.263 -1.819,-2.979 -2.732,-5.146c-0.913,-2.167 -1.551,-3.791 -1.914,-4.877c-0.366,-1.084 -0.823,-2.981 -1.376,-5.692c-0.553,-2.711 -0.828,-4.247 -0.829,-4.609c-1.107,-6.868 -1.675,-13.918 -1.697,-21.152c-0.023,-7.234 0.493,-14.831 1.553,-22.793c4.148,-57.522 32.911,-108.797 86.287,-153.829c2.887,-2.54 17.315,-13.531 43.292,-32.966c25.975,-19.439 44.55,-35.142 55.723,-47.118c1.802,-1.816 6.216,-6.802 13.241,-14.966c7.027,-8.161 12.162,-13.334 15.412,-15.514c5.416,-2.548 15.99,-4.486 31.72,-5.802c15.728,-1.32 26.304,-2.529 31.727,-3.635c5.421,-1.101 11.021,-2.84 16.802,-5.211c5.778,-2.369 12.19,-5.286 19.23,-8.745c7.04,-3.459 12.547,-6.101 16.521,-7.922c26.003,-10.939 44.253,-16.427 54.74,-16.461c1.085,-0.004 1.99,-0.008 2.714,-0.011c3.619,1.073 8.058,3.139 13.312,6.196c5.254,3.057 9.333,5.305 12.229,6.743c2.897,0.712 7.239,1.602 13.03,2.67c5.789,1.065 9.412,2.317 10.862,3.761c5.443,5.046 9.083,12.086 10.922,21.122c0.736,3.253 1.106,6.688 1.12,10.306c0.021,5.785 -1.047,11.758 -3.196,17.913l-0.004,0.026Z" style="fill:url(#_Linear7);fill-rule:nonzero;"/><path d="M11388.969,966.354c4.541,-3.676 8.311,-8.197 11.314,-13.567c9.353,-16.734 10.453,-40.567 3.301,-71.499c-9.297,-30.062 -19.314,-48.094 -30.05,-54.095c-0.632,-0.353 -1.106,-0.617 -1.422,-0.794c-9.37,-3.995 -23.888,0.112 -43.559,12.317c-16.327,9.933 -27.846,20.899 -34.553,32.894c-1.587,2.843 -2.933,5.612 -4.028,8.316c-0.25,1.932 -0.597,5.881 -1.031,11.854c-0.541,4.673 -1.604,8.426 -3.191,11.269c-0.176,0.316 -0.441,0.79 -0.794,1.422c-17.317,-14.239 -25.311,-26.995 -23.978,-38.268c-0.443,-4.394 1.185,-9.903 4.893,-16.533c2.646,-4.734 6.545,-10.221 11.689,-16.461c7.052,-8.902 12.251,-16.355 15.607,-22.353c2.469,-4.418 4.098,-8.07 4.877,-10.95c1.46,-7.056 0.608,-13.127 -2.558,-18.211c-3.165,-5.085 -7.928,-10.647 -14.289,-16.692c-6.361,-6.04 -11.027,-11.965 -13.997,-17.77c4.96,-2.199 11.155,-3.089 18.583,-2.664c7.427,0.424 13.465,-0.553 18.109,-2.929c3.483,-1.781 6.812,-5.516 9.991,-11.198c0.882,-1.579 1.94,-3.471 3.175,-5.682c6.009,-14.457 4.94,-28.108 -3.208,-40.952c-5.875,-9.501 -14.183,-17.254 -24.915,-23.251c-4.759,-2.663 -9.941,-4.935 -15.549,-6.827c-11.311,-5.083 -25.713,-6.505 -43.203,-4.265c-19.782,2.613 -39.448,10.785 -58.992,24.512c-19.544,13.731 -36.287,33.062 -50.23,58.005c-1.058,1.895 -2.117,3.787 -3.175,5.682c-16.24,29.046 -26.835,60.208 -31.794,93.486c-5.562,35.843 -4.798,67.763 2.296,95.761c9.211,34.57 27.34,66.875 54.388,96.915c22.26,25.29 49.777,47.098 82.543,65.417c6.621,3.7 13.573,7.172 20.854,10.417c72.893,34.95 145.621,36.244 218.185,3.883c67.3,-30.334 121.601,-82.438 162.9,-156.311c2.999,-5.366 6.09,-10.89 9.265,-16.576c10.062,-17.993 17.837,-33.951 23.327,-47.873c5.49,-13.922 9.741,-31.224 12.757,-51.915c3.02,-20.687 1.988,-39.912 -3.093,-57.668c-6.562,-21.071 -14.45,-34.185 -23.665,-39.338c-1.646,-0.92 -3.384,-1.686 -5.207,-2.29c-5.163,-0.814 -8.543,0.196 -10.13,3.039c-0.353,0.632 -0.794,1.422 -1.323,2.369c-1.235,2.211 -2.376,4.99 -3.42,8.343c-1.044,3.354 -2.185,6.132 -3.42,8.343c-0.529,0.948 -0.97,1.737 -1.323,2.369c-2.174,-2.043 -6.386,-8.957 -12.642,-20.743c-5.662,-10.625 -12.757,-18.319 -21.278,-23.085c-0.948,-0.529 -2.053,-1.147 -3.317,-1.852c-4.32,-1.169 -10.08,-1.803 -17.279,-1.893c-7.2,-0.09 -12.555,-0.701 -16.067,-1.833c18.197,-25.879 40.193,-41.136 65.993,-45.773c24.499,-4.534 50.006,0.607 76.525,15.436c1.579,0.882 3.001,1.676 4.26,2.381c-0.181,0.32 -0.357,0.64 -0.538,0.96c-1.247,2.236 -4.91,3.228 -10.988,2.977c-6.074,-0.252 -10.005,1.223 -11.795,4.419c-0.176,0.316 -0.445,0.794 -0.802,1.434c10.416,5.825 20.641,16.262 30.667,31.306c10.03,15.04 18.044,24.238 24.042,27.593c2.704,1.095 4.761,0.383 6.172,-2.144c0.706,-1.264 1.36,-3.177 1.967,-5.737c0.541,-4.673 1.427,-8.11 2.662,-10.322c0.529,-0.948 1.128,-1.649 1.797,-2.105c10.613,12.147 16.197,25.321 16.756,39.516c0.559,14.194 -2.156,31.841 -8.153,52.936c-0.213,1.124 -1.03,3.879 -2.445,8.269c-1.415,4.385 -2.25,7.549 -2.504,9.477c-0.25,1.932 -0.495,4.594 -0.731,7.98c-0.236,3.391 0.026,6.438 0.793,9.145c0.767,2.708 2.06,5.397 3.877,8.071c2.843,1.587 5.96,0.639 9.363,-2.846c3.399,-3.485 5.818,-5.033 7.258,-4.643c8.132,20.294 3.196,46.539 -14.808,78.74c-1.94,3.471 -5.928,9.12 -11.954,16.935c-3.946,4.837 -7.07,9.307 -9.363,13.413c-1.235,2.211 -2.223,4.349 -2.97,6.42c-2.195,5.403 -1.96,10.921 0.694,16.549c0.632,0.353 1.264,0.706 1.895,1.058c2.843,1.587 5.844,1.405 9.011,-0.556c4.152,-2.236 7.491,-2.65 10.014,-1.239c-0.086,5.341 -2.155,11.641 -6.216,18.902c-1.587,2.843 -3.341,5.59 -5.253,8.252c-7.68,11.454 -15.168,21.046 -22.468,28.772c-7.297,7.731 -15.628,16.744 -25.006,27.045c-9.37,10.301 -16.31,18.337 -20.81,24.105c-2.117,3.787 -4.061,7.261 -5.825,10.416c-8.294,14.839 -8.852,25.095 -1.664,30.768c0.316,0.176 0.632,0.353 0.948,0.529c3.787,2.117 8.268,1.515 13.441,-1.808c5.842,-3.779 10.746,-4.765 14.709,-2.965c-1.624,3.651 -3.323,7.052 -5.087,10.211c-9,16.102 -19.836,28.067 -32.504,35.903c-15.166,9.338 -36.149,16.671 -62.951,21.991c-26.803,5.32 -44.071,9.34 -51.808,12.06l-5.434,1.934c-3.799,1.604 -5.944,2.478 -6.437,2.618c-0.492,0.14 -2.345,0.865 -5.564,2.171c-3.218,1.307 -5.294,2.427 -6.227,3.356c-0.933,0.929 -2.693,2.222 -5.28,3.885c-2.586,1.664 -4.402,3.239 -5.442,4.726c-1.04,1.491 -2.177,3.34 -3.412,5.552c-0.669,0.455 -1.091,0.841 -1.268,1.157c-0.882,1.579 -1.536,3.493 -1.967,5.737c-0.427,2.248 -0.876,4.9 -1.339,7.953c0.632,0.353 1.264,0.706 1.895,1.058c3.159,1.764 7.791,3.113 13.899,4.04c3.549,0.324 6.74,1.284 9.583,2.871c1.895,1.058 3.61,2.433 5.153,4.123c-0.529,0.948 -0.97,1.737 -1.323,2.369c-5.296,9.473 -18.187,15.112 -38.67,16.918c-11.245,1.584 -27.627,1.233 -49.138,-1.053c-21.511,-2.29 -37.536,-3.273 -48.075,-2.949c-24.59,-0.487 -39.089,3.216 -43.503,11.109c-0.176,0.316 -0.353,0.632 -0.529,0.948c-1.838,4.771 -2.008,8.408 -0.502,10.906c1.366,2.006 4.256,4.244 8.675,6.717c0.632,0.353 11.206,6.266 12.785,7.148c-9.063,16.215 -32.666,18.773 -70.805,7.685c-5.431,-1.399 -11.624,-4.043 -18.57,-7.923c-12.943,-7.236 -27.965,-18.535 -45.068,-33.898c-3.75,-2.925 -8.322,-7.349 -13.717,-13.265c-5.395,-5.915 -9.879,-10.493 -13.452,-13.738c-2.802,-2.396 -5.943,-4.564 -9.413,-6.508c-1.264,-0.706 -2.685,-1.499 -4.26,-2.381c-5.542,-2.687 -11.409,-3.683 -17.591,-2.998c-5.136,2.515 -8.674,5.508 -10.615,8.983c-0.529,0.948 -0.9,1.984 -1.114,3.108c-1.526,4.948 -1.431,9.044 0.284,12.281c1.711,3.237 3.58,7.491 5.602,12.766c2.023,5.276 2.962,9.53 2.811,12.758c-5.628,2.654 -12.545,1.687 -20.754,-2.899c-4.418,-2.469 -8.962,-5.839 -13.622,-10.102c-6.946,-3.885 -13.335,-9.134 -19.169,-15.747c-5.834,-6.613 -12.147,-14.966 -18.94,-25.05c-6.797,-10.08 -12.186,-17.487 -16.165,-22.225c-22.755,-28.229 -41.708,-46.579 -56.863,-55.05c-2.581,-1.441 -5.084,-2.635 -7.518,-3.579c-9.729,-3.78 -16.986,-3.283 -21.778,1.5c-0.882,1.579 -1.676,3.001 -2.381,4.26c-2.822,5.05 -2.75,10.48 0.22,16.284c3.881,7.142 4.673,12.766 2.38,16.869c0,0 -0.088,0.158 -0.265,0.474c-14.839,-8.294 -27.361,-18.508 -37.57,-30.64c-10.209,-12.128 -18.093,-26.38 -23.65,-42.746c-5.557,-16.366 -9.483,-30.475 -11.769,-42.319c-2.286,-11.843 -4.442,-27.449 -6.461,-46.812c-0.345,-3.093 -0.529,-9.619 -0.552,-19.578c-0.027,-9.959 -0.383,-18.031 -1.069,-24.217c-0.685,-6.186 -2.146,-11.351 -4.386,-15.503c-2.478,-5.944 -6.716,-10.592 -12.714,-13.948c-2.527,-1.411 -5.227,-2.506 -8.106,-3.29c-10.215,-3.224 -18.403,-1.172 -24.573,6.151c-0.669,0.455 -1.179,0.999 -1.532,1.631c-1.411,2.527 -2.636,6.193 -3.665,11.005c-1.247,5.932 -2.346,10.498 -3.306,13.694c-0.037,0.808 -0.144,1.37 -0.32,1.686c-1.411,2.527 -4.174,4.503 -8.289,5.93c-6.064,-5.46 -10.525,-12.305 -13.381,-20.534c-2.86,-8.229 -4.405,-15.099 -4.635,-20.616c-0.23,-5.518 -0.224,-14.422 0.017,-26.717c0.581,-33.652 5.146,-58.865 13.695,-75.636c2.371,-5.719 5.671,-12.367 9.908,-19.944c5.825,-10.416 13.182,-22.467 22.071,-36.141c8.889,-13.678 16.07,-25.409 21.542,-35.197c4.061,-7.261 7.097,-13.436 9.115,-18.523c4.488,-9.51 6.198,-18.498 5.131,-26.965c-0.648,-6.995 -4.603,-12.52 -11.865,-16.577c-1.264,-0.706 -2.773,-1.341 -4.525,-1.907c-7.159,-2.761 -15.709,-0.806 -25.651,5.858c-9.942,6.665 -17.2,10.379 -21.766,11.138c-1.543,-1.69 -2.38,-3.715 -2.515,-6.065c-0.135,-2.355 -0.039,-4.375 0.281,-6.061c0.32,-1.686 1.03,-3.879 2.125,-6.582c1.095,-2.704 1.591,-4.701 1.493,-6.002c2.834,-8.775 6.723,-17.583 11.666,-26.42c4.061,-7.261 8.926,-14.486 14.604,-21.669c12.233,-15.951 25.405,-27.651 39.513,-35.094c12.984,-7.66 33.948,-14.584 62.896,-20.778c28.948,-6.194 49.699,-11.994 62.256,-17.406c21.139,-8.903 34.178,-17.771 39.117,-26.612c3.885,-6.946 2.252,-13.661 -4.899,-20.143c-0.771,-0.845 -1.789,-1.62 -3.048,-2.326c-3.471,-1.94 -8.195,-3.132 -14.164,-3.571c-6.461,-0.299 -11.273,-1.329 -14.432,-3.097c-0.632,-0.353 -1.175,-0.864 -1.631,-1.532c7.015,-8.094 22.173,-15.574 45.482,-22.43c26.505,-5.9 62.254,-1.66 107.254,12.725c21.337,7.785 35.137,10.529 41.398,8.228c4.431,-1.251 7.792,-3.932 10.085,-8.035c2.293,-4.102 3.076,-7.916 2.35,-11.427c-0.726,-3.516 -1.54,-6.144 -2.428,-7.886c-0.892,-1.741 -3.351,-4.569 -7.38,-8.478c-4.029,-3.909 -6.658,-6.621 -7.881,-8.135c9.743,-4.082 19.929,-3.775 30.563,0.926c2.211,1.235 4.418,2.469 6.63,3.708c7.577,4.237 14.625,9.418 21.14,15.551c7.881,8.135 17.184,17.067 27.908,26.794c7.467,6.658 14.195,11.667 20.197,15.018c2.843,1.587 5.454,2.841 7.842,3.764c10.95,4.877 21.489,4.553 31.621,-0.97c4.644,-2.375 8.2,-5.777 10.674,-10.195c2.822,-5.05 3.999,-11.233 3.527,-18.539c-1.01,-16.725 -21.396,-38.069 -61.165,-64.032c1.374,-1.719 2.967,-2.9 4.778,-3.546c1.811,-0.646 3.488,-1.051 5.035,-1.224c1.547,-0.172 3.488,-0.122 5.824,0.146c2.336,0.269 4.064,0.51 5.189,0.727c1.124,0.213 3.001,0.747 5.635,1.596c2.634,0.849 4.107,1.364 4.422,1.54c6.527,2.408 12.947,5.374 19.261,8.905c6.314,3.532 12.679,7.71 19.095,12.542c48.077,31.853 78.628,82.083 91.656,150.691c0.796,3.762 3.288,21.727 7.468,53.9c4.184,32.173 8.746,56.064 13.694,71.677c0.698,2.461 2.874,8.754 6.538,18.883c3.66,10.129 5.646,17.142 5.949,21.043c-0.439,5.969 -3.942,16.133 -10.517,30.483c-6.571,14.35 -10.71,24.157 -12.408,29.425c-1.702,5.263 -2.936,10.996 -3.709,17.196c-0.773,6.197 -1.379,13.215 -1.822,21.046c-0.443,7.831 -0.844,13.926 -1.209,18.282c-3.236,28.024 -7.413,46.618 -12.532,55.771c-0.529,0.948 -0.97,1.737 -1.323,2.369c-2.712,2.626 -6.691,5.479 -11.934,8.556c-5.243,3.077 -9.204,5.526 -11.878,7.344c-2.043,2.174 -4.949,5.52 -8.723,10.041c-3.77,4.521 -6.639,7.063 -8.609,7.616c-7.068,2.265 -14.988,1.98 -23.763,-0.854c-3.196,-0.956 -6.369,-2.32 -9.528,-4.084c-5.05,-2.822 -9.729,-6.684 -14.037,-11.578l-0.021,-0.017Z" style="fill:url(#_Linear8);fill-rule:nonzero;"/><path d="M7112.895,2538.793c-0.837,-5.783 -2.796,-11.333 -5.875,-16.658c-9.6,-16.592 -29.521,-29.721 -59.767,-39.383c-30.592,-7.375 -51.208,-7.983 -61.854,-1.825c-0.625,0.363 -1.096,0.633 -1.408,0.817c-8.221,6.012 -12.117,20.588 -11.679,43.737c0.192,19.112 3.729,34.613 10.613,46.512c1.629,2.817 3.325,5.388 5.087,7.713c1.533,1.204 4.75,3.521 9.658,6.946c3.737,2.85 6.425,5.688 8.054,8.504c0.179,0.313 0.454,0.783 0.817,1.408c-21.092,7.604 -36.137,7.954 -45.15,1.046c-4.004,-1.862 -7.904,-6.083 -11.708,-12.658c-2.717,-4.696 -5.442,-10.85 -8.175,-18.463c-4.05,-10.613 -7.796,-18.892 -11.237,-24.838c-2.538,-4.383 -4.842,-7.646 -6.917,-9.788c-5.321,-4.862 -10.975,-7.233 -16.962,-7.108c-5.988,0.121 -13.204,1.371 -21.65,3.75c-8.446,2.379 -15.921,3.358 -22.425,2.946c0.646,-5.388 3.046,-11.167 7.208,-17.333c4.163,-6.167 6.408,-11.854 6.737,-17.062c0.25,-3.904 -1.258,-8.675 -4.517,-14.308c-0.904,-1.567 -1.992,-3.446 -3.258,-5.633c-9.354,-12.558 -21.633,-18.617 -36.837,-18.175c-11.171,0.196 -22.075,3.371 -32.721,9.529c-4.721,2.729 -9.325,6.021 -13.817,9.875c-10.15,7.125 -18.733,18.775 -25.75,34.954c-7.867,18.342 -10.896,39.417 -9.088,63.233c1.808,23.817 9.871,48.088 24.179,72.821c1.087,1.879 2.175,3.758 3.258,5.633c16.663,28.804 38.029,53.842 64.096,75.113c27.962,23.1 55.787,38.758 83.479,46.975c34.421,9.754 71.454,10.683 111.096,2.796c33.117,-6.204 65.921,-18.708 98.421,-37.504c6.567,-3.796 13.104,-7.996 19.612,-12.6c67.3,-44.783 105.587,-106.629 114.867,-185.542c8.329,-73.346 -8.696,-146.65 -51.075,-219.908c-3.079,-5.321 -6.25,-10.8 -9.508,-16.438c-10.325,-17.846 -20.062,-32.683 -29.221,-44.521c-9.158,-11.833 -21.858,-24.333 -38.1,-37.504c-16.237,-13.171 -33.288,-22.113 -51.146,-26.821c-21.467,-5.133 -36.767,-5.054 -45.904,0.233c-1.633,0.946 -3.179,2.046 -4.629,3.304c-3.342,4.021 -4.196,7.442 -2.567,10.258c0.362,0.625 0.817,1.408 1.358,2.35c1.267,2.192 3.075,4.592 5.421,7.204c2.346,2.612 4.154,5.012 5.421,7.204c0.542,0.938 0.996,1.721 1.358,2.35c-2.867,0.821 -10.962,0.912 -24.292,0.263c-12.025,-0.562 -22.267,1.6 -30.721,6.487c-0.938,0.542 -2.033,1.179 -3.288,1.9c-3.212,3.113 -6.7,7.742 -10.458,13.883c-3.758,6.146 -7.021,10.433 -9.792,12.871c-12.938,-28.867 -14.808,-55.575 -5.608,-80.117c8.625,-23.375 26.083,-42.667 52.383,-57.883c1.567,-0.904 2.975,-1.721 4.225,-2.446c0.183,0.317 0.367,0.638 0.55,0.954c1.283,2.217 0.263,5.871 -3.058,10.967c-3.321,5.096 -4.062,9.225 -2.229,12.396c0.179,0.312 0.454,0.788 0.825,1.425c10.333,-5.975 24.525,-9.429 42.583,-10.358c18.054,-0.933 30.058,-3.121 36.004,-6.558c2.325,-1.763 2.763,-3.896 1.313,-6.4c-0.725,-1.254 -2.033,-2.792 -3.929,-4.621c-3.738,-2.85 -6.242,-5.371 -7.508,-7.562c-0.542,-0.938 -0.842,-1.812 -0.888,-2.621c15.867,-2.912 30.042,-0.979 42.525,5.796c12.488,6.775 26.263,18.129 41.333,34.067c0.858,0.758 2.808,2.867 5.854,6.329c3.046,3.463 5.337,5.792 6.867,6.996c1.533,1.204 3.692,2.775 6.483,4.708c2.792,1.938 5.546,3.267 8.267,3.992c2.717,0.725 5.692,0.992 8.921,0.792c2.817,-1.629 3.596,-4.796 2.337,-9.5c-1.258,-4.704 -1.354,-7.575 -0.283,-8.613c21.596,3.383 41.633,21.042 60.108,52.975c1.992,3.446 4.808,9.754 8.446,18.933c2.142,5.867 4.388,10.833 6.742,14.904c1.267,2.192 2.6,4.138 4,5.833c3.525,4.646 8.383,7.267 14.579,7.862c0.625,-0.362 1.254,-0.725 1.879,-1.088c2.817,-1.629 4.196,-4.308 4.129,-8.029c0.2,-4.712 1.55,-7.792 4.054,-9.242c4.546,2.804 8.9,7.804 13.067,15.004c1.629,2.817 3.1,5.729 4.404,8.733c5.921,12.454 10.333,23.792 13.246,34.017c2.917,10.221 6.404,21.992 10.462,35.317c4.062,13.321 7.421,23.388 10.083,30.208c2.175,3.758 4.167,7.2 5.975,10.333c8.513,14.713 17.046,20.433 25.596,17.158c0.312,-0.179 0.625,-0.363 0.937,-0.542c3.758,-2.175 5.529,-6.333 5.317,-12.479c-0.263,-6.954 1.396,-11.671 4.971,-14.158c2.304,3.263 4.363,6.458 6.175,9.592c9.237,15.967 13.983,31.396 14.242,46.292c0.275,17.808 -4.154,39.592 -13.279,65.346c-9.125,25.754 -14.5,42.65 -16.117,50.692l-1.112,5.658c-0.562,4.087 -0.908,6.375 -1.042,6.871c-0.133,0.496 -0.458,2.458 -0.979,5.892c-0.521,3.433 -0.621,5.792 -0.3,7.067c0.321,1.275 0.533,3.45 0.642,6.525c0.104,3.071 0.533,5.438 1.283,7.092c0.75,1.654 1.758,3.579 3.025,5.771c0.05,0.808 0.163,1.367 0.346,1.679c0.904,1.567 2.217,3.104 3.929,4.621c1.713,1.517 3.763,3.254 6.15,5.217c0.625,-0.362 1.254,-0.725 1.879,-1.087c3.129,-1.812 6.658,-5.104 10.579,-9.883c2.092,-2.883 4.55,-5.137 7.367,-6.767c1.879,-1.087 3.938,-1.858 6.179,-2.321c0.542,0.938 0.996,1.721 1.358,2.35c5.433,9.392 3.692,23.354 -5.229,41.883c-4.387,10.475 -13.058,24.375 -26.021,41.692c-12.962,17.317 -22,30.592 -27.108,39.812c-12.987,20.887 -17.221,35.242 -12.692,43.067c0.179,0.312 0.363,0.625 0.542,0.938c3.163,4.021 6.2,6.025 9.117,6.008c2.421,-0.146 5.825,-1.487 10.208,-4.025c0.625,-0.363 11.112,-6.429 12.679,-7.333c9.3,16.079 -0.562,37.675 -29.588,64.783c-3.979,3.954 -9.413,7.925 -16.3,11.908c-12.837,7.425 -30.229,14.562 -52.175,21.408c-4.433,1.729 -10.571,3.4 -18.413,5.012c-7.842,1.612 -14.071,3.125 -18.683,4.542c-3.492,1.183 -6.962,2.775 -10.404,4.767c-1.254,0.725 -2.662,1.538 -4.225,2.446c-5.142,3.392 -8.996,7.921 -11.571,13.587c-0.462,5.7 0.3,10.271 2.292,13.717c0.542,0.938 1.242,1.787 2.1,2.546c3.475,3.842 7.042,5.85 10.7,6.033c3.658,0.183 8.271,0.754 13.837,1.708c5.567,0.958 9.704,2.325 12.404,4.104c-0.596,6.196 -4.963,11.646 -13.104,16.354c-4.383,2.538 -9.6,4.717 -15.646,6.542c-6.888,3.983 -14.667,6.792 -23.333,8.425c-8.667,1.633 -19.071,2.787 -31.208,3.475c-12.137,0.687 -21.258,1.533 -27.367,2.533c-35.892,5.129 -61.354,12.038 -76.383,20.733c-2.558,1.479 -4.867,3.025 -6.921,4.629c-8.221,6.429 -11.504,12.921 -9.842,19.483c0.904,1.567 1.721,2.975 2.446,4.225c2.896,5.008 7.6,7.721 14.108,8.133c8.121,0.317 13.358,2.508 15.712,6.579c0,0 0.092,0.158 0.271,0.471c-14.712,8.512 -29.892,14.054 -45.538,16.629c-15.642,2.575 -31.921,2.067 -48.829,-1.525c-16.908,-3.587 -31.042,-7.429 -42.388,-11.517c-11.35,-4.088 -25.863,-10.213 -43.538,-18.375c-2.833,-1.287 -8.538,-4.463 -17.108,-9.533c-8.575,-5.067 -15.692,-8.888 -21.358,-11.463c-5.667,-2.571 -10.854,-3.958 -15.567,-4.158c-6.375,-0.908 -12.538,0.358 -18.487,3.8c-2.504,1.45 -4.829,3.212 -6.971,5.287c-7.992,7.129 -10.417,15.221 -7.275,24.267c0.05,0.808 0.254,1.525 0.617,2.15c1.45,2.504 3.975,5.429 7.583,8.775c4.462,4.104 7.825,7.383 10.079,9.838c0.675,0.446 1.104,0.825 1.283,1.138c1.45,2.504 1.737,5.892 0.862,10.158c-7.792,2.421 -15.958,2.754 -24.492,1.004c-8.533,-1.75 -15.229,-3.933 -20.087,-6.554c-4.858,-2.621 -12.508,-7.179 -22.954,-13.675c-28.625,-17.704 -47.962,-34.513 -58.008,-50.429c-3.704,-4.958 -7.729,-11.196 -12.079,-18.713c-5.975,-10.333 -12.571,-22.812 -19.783,-37.446c-7.212,-14.633 -13.625,-26.8 -19.237,-36.504c-4.167,-7.2 -7.921,-12.967 -11.263,-17.3c-5.879,-8.717 -12.729,-14.783 -20.554,-18.196c-6.342,-3.017 -13.112,-2.442 -20.312,1.725c-1.254,0.725 -2.571,1.696 -3.954,2.917c-6.029,4.742 -8.725,13.092 -8.075,25.042c0.646,11.954 0.129,20.088 -1.554,24.404c-2.242,0.463 -4.408,0.146 -6.5,-0.942c-2.092,-1.088 -3.779,-2.2 -5.067,-3.338c-1.283,-1.138 -2.808,-2.867 -4.571,-5.192c-1.763,-2.325 -3.229,-3.775 -4.396,-4.35c-6.092,-6.921 -11.675,-14.767 -16.746,-23.529c-4.167,-7.2 -7.888,-15.075 -11.163,-23.629c-7.458,-18.667 -10.779,-35.967 -9.967,-51.9c0.054,-15.075 4.817,-36.633 14.292,-64.679c9.475,-28.046 15.096,-48.846 16.863,-62.404c3.154,-22.717 2.196,-38.458 -2.875,-47.225c-3.983,-6.887 -10.592,-8.917 -19.817,-6.087c-1.121,0.229 -2.308,0.708 -3.558,1.433c-3.446,1.992 -6.879,5.442 -10.308,10.35c-3.558,5.404 -6.904,9.008 -10.038,10.821c-0.625,0.363 -1.342,0.567 -2.15,0.617c-3.375,-10.167 -2.05,-27.021 3.971,-50.558c8.475,-25.796 30.396,-54.354 65.762,-85.679c17.6,-14.358 27.008,-24.817 28.229,-31.375c1.188,-4.446 0.604,-8.708 -1.75,-12.775c-2.354,-4.071 -5.229,-6.692 -8.621,-7.862c-3.392,-1.171 -6.067,-1.817 -8.017,-1.942c-1.954,-0.125 -5.638,0.546 -11.058,2.008c-5.421,1.463 -9.096,2.338 -11.021,2.617c1.471,-10.463 6.942,-19.058 16.417,-25.792c2.192,-1.267 4.383,-2.537 6.575,-3.804c7.513,-4.346 15.571,-7.754 24.171,-10.221c11.021,-2.617 23.454,-6.046 37.292,-10.292c9.542,-3.013 17.283,-6.238 23.233,-9.679c2.817,-1.629 5.233,-3.237 7.242,-4.817c9.788,-6.917 14.9,-16.142 15.329,-27.671c0.329,-5.204 -0.771,-10 -3.308,-14.383c-2.896,-5.008 -7.608,-9.179 -14.129,-12.508c-14.892,-7.683 -43.658,-1.067 -86.3,19.842c-0.775,-2.058 -0.975,-4.033 -0.604,-5.917c0.371,-1.887 0.879,-3.537 1.521,-4.954c0.642,-1.417 1.679,-3.058 3.104,-4.929c1.425,-1.871 2.517,-3.233 3.275,-4.088c0.758,-0.858 2.175,-2.2 4.25,-4.025c2.075,-1.829 3.271,-2.833 3.583,-3.012c5.404,-4.379 11.237,-8.383 17.5,-12.004c6.262,-3.621 13.108,-6.954 20.538,-10c51.954,-25.042 110.742,-25.621 176.367,-1.746c3.642,1.237 20.354,8.279 50.146,21.133c29.792,12.85 52.658,21.142 68.604,24.871c2.471,0.658 8.996,2.004 19.571,4.033c10.575,2.029 17.617,3.908 21.125,5.642c4.908,3.429 11.85,11.633 20.825,24.621c8.975,12.983 15.288,21.554 18.946,25.708c3.654,4.154 7.95,8.146 12.883,11.975c4.933,3.833 10.654,7.942 17.158,12.325c6.504,4.383 11.538,7.846 15.096,10.383c22.433,17.108 36.275,30.2 41.529,39.279c0.542,0.938 0.996,1.721 1.358,2.35c0.871,3.675 1.292,8.55 1.254,14.629c-0.033,6.079 0.046,10.733 0.242,13.963c0.821,2.867 2.212,7.075 4.171,12.629c1.958,5.554 2.675,9.317 2.146,11.296c-1.667,7.233 -5.958,13.896 -12.883,19.987c-2.454,2.254 -5.25,4.292 -8.379,6.1c-5.008,2.896 -10.717,4.946 -17.129,6.146l0.038,-0.017Z" style="fill:url(#_Linear9);fill-rule:nonzero;"/><path d="M15644.682,662.906c0,0 -21.488,-30.254 -64.462,-90.758l54.979,-64.346l104.871,41.792c0,0 5.642,-4.933 16.925,-14.796c36.096,-23.871 65.375,-39.767 87.842,-47.687c0,0 18.312,-5.288 54.938,-15.858c0,0 10.017,-42.346 30.046,-127.038l85.325,-1.312l45.1,128.45c0,0 15.471,3.467 46.417,10.4c30.946,6.933 56.629,17.938 77.054,33.008c0,0 32.779,-23.608 98.338,-70.829l65.171,55.683l-45.138,111.292c9.792,13.596 19.767,27.117 29.929,40.558c10.162,13.442 20.85,31.138 32.067,53.087c11.217,21.95 16.179,34.517 14.887,37.696c0,0 41.913,7.742 125.733,23.225l6.958,83.729l-116.846,50.733c-1.758,29.421 -4.137,51.054 -7.142,64.9c-3.004,13.846 -9.421,34.887 -19.237,63.129c0,0 -4.825,8.721 -14.479,26.162l72.75,104.975l-55.683,65.171l-117.771,-49.246c0,0 -13.067,10.004 -39.204,30.013c-29.867,18.25 -52.658,30.171 -68.383,35.767c-15.721,5.596 -24.771,8.808 -27.142,9.633c-2.371,0.829 -8.146,1.6 -17.325,2.321c0,0 -4.471,39.475 -13.408,118.421l-86.254,9.079l-53.971,-118.904c-41.192,-5.796 -77.396,-15.625 -108.608,-29.487c-31.208,-13.862 -49.246,-22.4 -54.117,-25.612c0,0 -29.042,21.183 -87.125,63.55l-63.933,-54.625l26.808,-62.279l18.913,-44.688c-2.475,-2.112 -7.692,-8.121 -15.646,-18.017c-7.954,-9.9 -12.892,-15.675 -14.817,-17.321c-1.925,-1.646 -8.121,-12.904 -18.592,-33.779c-10.471,-20.875 -18.867,-45.708 -25.192,-74.496c0,0 -42.833,-8.054 -128.5,-24.158l-5.9,-84.967l121.267,-48.388c-0.042,-0.508 1.296,-11.262 4.008,-32.254c6.287,-44.104 21.175,-79.908 44.671,-107.404c1.408,-1.65 2.7,-3.162 3.875,-4.537l0.004,0.012Zm99.017,-13.163c-59.517,71.888 -85.812,151.938 -78.887,240.158c3.008,41.579 14.175,82.521 33.5,122.817c19.325,40.3 45.487,74.546 78.487,102.742c33,28.196 71.387,49.104 115.171,62.725c43.783,13.621 86.525,18.862 128.221,15.717c41.696,-3.146 82.421,-14.617 122.171,-34.413c39.75,-19.796 74.192,-46.742 103.325,-80.842c29.133,-34.1 50.317,-72.254 63.55,-114.467c13.233,-42.213 18.275,-84.171 15.133,-125.867c-3.146,-41.696 -14.617,-82.421 -34.413,-122.171c-19.796,-39.75 -46.742,-74.192 -80.842,-103.325c-34.1,-29.133 -72.321,-50.375 -114.675,-63.725c-85.487,-26.896 -168.096,-20.412 -247.829,19.454c-36.533,18.263 -70.837,45.325 -102.913,81.192l0,0.004Z" style="fill:url(#_Linear10);fill-rule:nonzero;"/><path d="M22347.717,2655.298c0,0 10.642,35.55 31.925,106.646l-72.721,43.296l-85.908,-73.238c0,0 -6.925,2.863 -20.779,8.583c-41.846,11.021 -74.679,16.679 -98.5,16.971c0,0 -19.042,-0.871 -57.121,-2.613c0,0 -23.075,36.892 -69.229,110.675l-81.233,-26.142l-1.492,-136.129c0,0 -13.542,-8.25 -40.621,-24.75c-27.083,-16.5 -47.875,-35.163 -62.383,-55.992c0,0 -38.621,11.842 -115.867,35.521l-43.854,-73.654l78.467,-90.917c-4.908,-16.021 -10.017,-32.025 -15.329,-48.017c-5.312,-15.992 -9.754,-36.179 -13.333,-60.571c-3.575,-24.392 -4.246,-37.883 -2.004,-40.479c0,0 -37.208,-20.783 -111.625,-62.346l20.283,-81.529l126.95,-10.546c11.108,-27.3 20.304,-47.025 27.592,-59.175c7.292,-12.146 20.117,-30.021 38.483,-53.613c0,0 7.371,-6.708 22.112,-20.129l-35.212,-122.771l73.654,-43.854l95.733,84.438c0,0 15.587,-5.283 46.763,-15.846c34.142,-7.7 59.558,-11.675 76.246,-11.929c16.688,-0.254 26.288,-0.392 28.8,-0.412c2.513,-0.021 8.229,1.1 17.154,3.362c0,0 16.9,-35.95 50.704,-107.85l84.604,19.083l12.954,129.933c37.154,18.713 68.288,39.637 93.396,62.783c25.108,23.146 39.45,37.021 43.033,41.625c0,0 34.304,-10.742 102.912,-32.225l43.021,72.254l-45.379,50.379l-32.254,36.25c1.667,2.796 4.679,10.158 9.037,22.088c4.354,11.929 7.179,18.983 8.475,21.158c1.296,2.175 3.55,14.829 6.767,37.963c3.217,23.133 3.2,49.346 -0.05,78.642c0,0 37.983,21.375 113.946,64.125l-21.679,82.362l-130.379,6.908c-0.125,0.496 -4.842,10.25 -14.15,29.262c-20.108,39.754 -45.704,68.883 -76.779,87.387c-1.867,1.108 -3.575,2.129 -5.129,3.054l-0,-0.025Zm-98.004,-19.317c79.442,-48.979 130.038,-116.358 151.792,-202.133c10.496,-40.346 13.058,-82.704 7.692,-127.071c-5.371,-44.371 -19.154,-85.2 -41.358,-122.496c-22.204,-37.292 -51.854,-69.417 -88.946,-96.371c-37.096,-26.954 -75.892,-45.633 -116.396,-56.038c-40.5,-10.404 -82.75,-12.608 -126.75,-6.621c-44,5.992 -85.267,20.458 -123.804,43.404c-38.538,22.946 -70.846,52.283 -96.925,88.017c-26.079,35.733 -44.325,73.85 -54.729,114.35c-10.404,40.5 -12.608,82.75 -6.621,126.75c5.992,44 20.458,85.267 43.404,123.804c22.946,38.538 52.329,70.925 88.154,97.158c72.333,52.908 152.654,73.279 240.963,61.112c40.463,-5.571 81.638,-20.192 123.525,-43.867Z" style="fill:url(#_Linear11);fill-rule:nonzero;"/><path d="M14013.987,2208.338c2.171,-5.425 3.254,-11.213 3.254,-17.362c0,-19.171 -10.671,-40.508 -32.008,-64.021c-22.788,-21.7 -40.329,-32.55 -52.625,-32.55l-1.629,0c-10.129,1.083 -20.796,11.754 -32.008,32.008c-9.404,16.637 -14.104,31.829 -14.104,45.575c0,3.254 0.179,6.329 0.542,9.225c0.725,1.808 2.35,5.425 4.883,10.85c1.808,4.342 2.712,8.138 2.712,11.392l0,1.629c-22.062,-3.979 -35.267,-11.213 -39.604,-21.7c-2.533,-3.617 -3.796,-9.225 -3.796,-16.817c0,-5.425 0.725,-12.117 2.171,-20.075c1.808,-11.213 2.712,-20.254 2.712,-27.125c0,-5.062 -0.362,-9.042 -1.083,-11.938c-2.171,-6.871 -5.879,-11.754 -11.121,-14.65c-5.246,-2.892 -12.117,-5.425 -20.617,-7.596c-8.5,-2.171 -15.462,-5.062 -20.888,-8.679c3.254,-4.342 8.229,-8.137 14.921,-11.392c6.692,-3.254 11.483,-7.054 14.379,-11.392c2.171,-3.254 3.254,-8.138 3.254,-14.65l0,-6.508c-1.808,-15.554 -9.404,-26.946 -22.788,-34.179c-9.767,-5.425 -20.796,-8.137 -33.096,-8.137c-5.454,0 -11.088,0.542 -16.904,1.629c-12.354,1.083 -25.617,6.871 -39.792,17.362c-15.992,11.938 -29.171,28.663 -39.529,50.183c-10.358,21.521 -15.538,46.567 -15.538,75.142l0,6.508c0,33.275 5.958,65.646 17.871,97.113c12.638,34 28.883,61.488 48.733,82.467c24.912,25.679 56.5,45.029 94.767,58.05c31.771,11.213 66.429,16.817 103.971,16.817c7.583,0 15.346,-0.362 23.287,-1.083c80.679,-5.062 144.792,-39.425 192.338,-103.083c43.942,-59.317 65.908,-131.292 65.908,-215.929l0,-18.987c0,-20.617 -1,-38.338 -3,-53.167c-2,-14.829 -6.733,-32.008 -14.2,-51.542c-7.458,-19.533 -17.742,-35.808 -30.842,-48.829c-16.013,-15.192 -29.296,-22.788 -39.85,-22.788c-1.887,0 -3.775,0.179 -5.662,0.542c-4.904,1.808 -7.358,4.342 -7.358,7.596l0,2.713c0,2.533 0.362,5.517 1.083,8.95c0.725,3.438 1.083,6.421 1.083,8.95l0,2.713c-2.892,-0.725 -9.946,-4.7 -21.158,-11.938c-10.129,-6.508 -20.075,-9.767 -29.838,-9.767l-3.796,0c-4.342,1.083 -9.675,3.346 -16.004,6.783c-6.329,3.438 -11.304,5.517 -14.921,6.237c3.254,-31.467 15.008,-55.521 35.267,-72.158c19.171,-15.912 43.946,-23.871 74.329,-23.871l4.883,0l0,1.1c0,2.558 -2.712,5.213 -8.138,7.958c-5.425,2.746 -8.137,5.95 -8.137,9.612l0,1.646c11.937,0 25.95,4.121 42.046,12.358c16.096,8.233 27.579,12.35 34.45,12.35c2.892,-0.363 4.342,-1.988 4.342,-4.883c0,-1.446 -0.363,-3.438 -1.083,-5.967c-1.808,-4.342 -2.712,-7.775 -2.712,-10.308c0,-1.083 0.179,-1.987 0.542,-2.712c15.192,5.425 26.496,14.196 33.908,26.312c7.417,12.117 13.654,28.846 18.717,50.183c0.362,1.083 0.996,3.887 1.9,8.408c0.904,4.521 1.717,7.688 2.442,9.496c0.725,1.808 1.808,4.25 3.254,7.325c1.446,3.075 3.167,5.604 5.154,7.596c1.988,1.987 4.429,3.708 7.325,5.154c3.254,0 5.517,-2.35 6.783,-7.054c1.267,-4.7 2.621,-7.233 4.071,-7.596c17,13.746 25.5,39.062 25.5,75.954c0,3.979 -0.725,10.85 -2.171,20.617c-1.083,6.15 -1.629,11.575 -1.629,16.275c0,2.533 0.179,4.883 0.542,7.054c0.725,5.787 3.617,10.488 8.679,14.104l2.171,0c3.254,0 5.788,-1.629 7.596,-4.883c2.533,-3.979 5.246,-5.967 8.137,-5.967c2.533,4.7 3.796,11.212 3.796,19.533c0,3.254 -0.188,6.508 -0.558,9.767c-1.112,13.746 -2.971,25.771 -5.571,36.079c-2.596,10.308 -5.471,22.246 -8.629,35.808c-3.154,13.562 -5.287,23.963 -6.4,31.196l0,11.938c0,17 4.521,26.221 13.562,27.671l1.083,0c4.342,0 7.958,-2.713 10.85,-8.138c3.254,-6.15 7.054,-9.404 11.392,-9.767c0.362,3.979 0.542,7.775 0.542,11.392c0,18.446 -3.617,34.179 -10.85,47.2c-8.679,15.554 -23.421,32.192 -44.217,49.912c-20.796,17.721 -33.908,29.658 -39.333,35.808l-3.796,4.342c-2.533,3.254 -3.979,5.062 -4.342,5.425c-0.363,0.363 -1.629,1.9 -3.796,4.613c-2.171,2.713 -3.438,4.7 -3.796,5.967c-0.363,1.267 -1.267,3.254 -2.712,5.967c-1.446,2.713 -2.263,4.975 -2.442,6.783c-0.179,1.808 -0.271,3.979 -0.271,6.508c-0.362,0.725 -0.542,1.267 -0.542,1.629c0,1.808 0.363,3.796 1.083,5.967c0.725,2.171 1.629,4.7 2.712,7.596l2.171,0c3.617,0 8.321,-1.083 14.104,-3.254c3.254,-1.446 6.508,-2.171 9.767,-2.171c2.171,0 4.342,0.362 6.508,1.083l0,2.713c0,10.85 -8.5,22.062 -25.5,33.638c-9.042,6.871 -23.508,14.558 -43.404,23.058c-19.892,8.5 -34.362,15.462 -43.404,20.887c-21.7,11.575 -32.55,21.883 -32.55,30.925l0,1.083c0.725,5.062 2.35,8.321 4.883,9.767c2.171,1.083 5.788,1.629 10.85,1.629l14.65,0c0,18.575 -19.35,32.329 -58.05,41.258c-5.425,1.429 -12.117,2.146 -20.075,2.146c-14.829,0 -33.458,-2.533 -55.879,-7.596c-4.7,-0.725 -10.85,-2.35 -18.446,-4.883c-7.596,-2.533 -13.746,-4.342 -18.446,-5.425c-3.617,-0.725 -7.417,-1.083 -11.392,-1.083l-4.883,0c-6.15,0.362 -11.754,2.35 -16.817,5.967c-3.254,4.7 -4.883,9.042 -4.883,13.021c0,1.083 0.179,2.171 0.542,3.254c1.083,5.062 3.167,8.592 6.237,10.579c3.075,1.988 6.783,4.792 11.121,8.408c4.342,3.617 7.233,6.871 8.679,9.767c-3.617,5.062 -10.129,7.596 -19.533,7.596c-5.063,0 -10.671,-0.725 -16.817,-2.171c-7.958,0 -16.096,-1.462 -24.413,-4.392c-8.321,-2.929 -17.904,-7.133 -28.754,-12.621c-10.85,-5.483 -19.171,-9.321 -24.958,-11.512c-33.637,-13.533 -59.138,-20.304 -76.496,-20.304c-2.954,0 -5.725,0.179 -8.308,0.542c-10.338,1.446 -16.429,5.425 -18.275,11.938l0,4.883c0,5.788 2.712,10.488 8.137,14.104c6.871,4.342 10.308,8.863 10.308,13.562l0,0.542c-17,0 -32.912,-2.804 -47.742,-8.408c-14.829,-5.604 -28.663,-14.196 -41.504,-25.771c-12.842,-11.575 -23.15,-21.971 -30.925,-31.196c-7.775,-9.225 -17.271,-21.792 -28.483,-37.704c-1.808,-2.533 -5.154,-8.138 -10.038,-16.817c-4.883,-8.679 -9.133,-15.554 -12.75,-20.617c-3.617,-5.062 -7.417,-8.863 -11.392,-11.392c-5.062,-3.979 -11.033,-5.967 -17.904,-5.967c-2.892,0 -5.788,0.363 -8.679,1.083c-10.487,2.171 -16.637,7.958 -18.446,17.363c-0.362,0.725 -0.542,1.446 -0.542,2.171c0,2.892 0.725,6.692 2.171,11.392c1.808,5.787 3.075,10.308 3.796,13.562c0.362,0.725 0.542,1.267 0.542,1.629c0,2.892 -1.446,5.967 -4.342,9.225c-7.958,-1.808 -15.192,-5.604 -21.7,-11.392c-6.508,-5.787 -11.212,-11.033 -14.104,-15.733c-2.892,-4.7 -7.233,-12.479 -13.021,-23.329c-15.912,-29.658 -24.233,-53.892 -24.958,-72.7c-0.725,-6.15 -1.083,-13.562 -1.083,-22.246c0,-11.938 0.542,-26.042 1.629,-42.317c1.083,-16.275 1.629,-30.021 1.629,-41.233c0,-8.321 -0.363,-15.192 -1.083,-20.617c-0.725,-10.487 -3.617,-19.171 -8.679,-26.042c-3.979,-5.787 -10.129,-8.679 -18.446,-8.679c-1.446,0 -3.075,0.179 -4.883,0.542c-7.596,1.083 -14.104,6.963 -19.533,17.633c-5.425,10.671 -9.946,17.45 -13.562,20.346c-2.171,-0.725 -3.888,-2.079 -5.154,-4.071c-1.267,-1.988 -2.171,-3.796 -2.712,-5.425c-0.542,-1.629 -0.996,-3.887 -1.358,-6.783c-0.362,-2.892 -0.904,-4.883 -1.629,-5.967c-1.808,-9.042 -2.712,-18.625 -2.712,-28.754c0,-8.321 0.725,-17 2.171,-26.042c2.892,-19.892 8.679,-36.529 17.362,-49.912c7.596,-13.021 22.517,-29.296 44.758,-48.829c22.246,-19.533 37.525,-34.721 45.846,-45.575c14.104,-18.083 21.158,-32.192 21.158,-42.317c0,-7.958 -4.7,-13.021 -14.104,-15.192c-1.083,-0.362 -2.35,-0.542 -3.796,-0.542c-3.979,0 -8.679,1.267 -14.104,3.796c-5.788,2.892 -10.487,4.342 -14.104,4.342c-0.725,0 -1.446,-0.179 -2.171,-0.542c2.171,-10.487 11.754,-24.412 28.754,-41.775c20.254,-18.083 53.529,-31.829 99.825,-41.233c22.425,-3.617 35.808,-7.958 40.146,-13.021c3.254,-3.254 4.883,-7.233 4.883,-11.938c0,-4.7 -1.175,-8.408 -3.525,-11.121c-2.35,-2.713 -4.342,-4.612 -5.967,-5.696c-1.629,-1.083 -5.154,-2.35 -10.579,-3.796c-5.425,-1.446 -9.042,-2.533 -10.85,-3.254c6.508,-8.321 15.554,-13.021 27.125,-14.104l7.596,0c8.679,0 17.362,1.083 26.042,3.254c10.85,3.254 23.329,6.508 37.433,9.767c9.767,2.171 18.083,3.254 24.958,3.254c3.254,0 6.15,-0.179 8.679,-0.542c11.938,-1.083 20.979,-6.508 27.125,-16.275c2.892,-4.342 4.342,-9.042 4.342,-14.104c0,-5.788 -1.987,-11.754 -5.967,-17.904c-9.042,-14.104 -37.254,-22.787 -84.633,-26.042c0.362,-2.171 1.175,-3.979 2.442,-5.425c1.267,-1.446 2.533,-2.621 3.796,-3.525c1.267,-0.904 2.983,-1.808 5.154,-2.713c2.171,-0.904 3.796,-1.537 4.883,-1.9c1.083,-0.362 2.983,-0.812 5.696,-1.358c2.712,-0.542 4.25,-0.812 4.612,-0.812c6.871,-1.083 13.925,-1.629 21.158,-1.629c7.233,0 14.829,0.542 22.788,1.629c57.508,4.342 108.688,33.275 153.538,86.804c2.533,2.892 13.475,17.362 32.825,43.404c19.35,26.042 34.992,44.667 46.929,55.879c1.808,1.808 6.783,6.237 14.921,13.292c8.138,7.054 13.292,12.208 15.462,15.462c2.533,5.425 4.429,16.004 5.696,31.738c1.267,15.733 2.442,26.312 3.525,31.737c1.083,5.425 2.804,11.033 5.154,16.817c2.35,5.787 5.246,12.208 8.679,19.258c3.437,7.054 6.058,12.567 7.867,16.546c10.85,26.042 16.275,44.308 16.275,54.796l0,2.713c-1.083,3.617 -3.167,8.046 -6.237,13.292c-3.075,5.246 -5.333,9.312 -6.783,12.208c-0.725,2.892 -1.629,7.233 -2.712,13.021c-1.083,5.787 -2.35,9.404 -3.796,10.85c-5.062,5.425 -12.117,9.042 -21.158,10.85c-3.254,0.725 -6.692,1.083 -10.308,1.083c-5.788,0 -11.754,-1.083 -17.904,-3.254l-0.025,0.004Z" style="fill:url(#_Linear12);fill-rule:nonzero;"/><path d="M17430.376,2830.516c3.823,4.419 8.467,8.038 13.931,10.861c17.032,8.8 40.886,9.115 71.57,0.952c29.739,-10.283 47.431,-20.887 53.075,-31.81l0.748,-1.447c3.687,-9.496 -0.896,-23.871 -13.743,-43.13c-10.464,-15.992 -21.803,-27.142 -34.015,-33.452c-2.891,-1.494 -5.705,-2.746 -8.444,-3.754c-1.939,-0.186 -5.898,-0.403 -11.881,-0.642c-4.687,-0.387 -8.475,-1.326 -11.366,-2.82l-1.447,-0.748c13.663,-17.774 26.151,-26.184 37.459,-25.223c4.376,-0.59 9.938,0.863 16.683,4.347c4.82,2.49 10.432,6.206 16.838,11.144c9.131,6.754 16.749,11.708 22.853,14.862c4.498,2.324 8.199,3.829 11.103,4.517c7.101,1.225 13.141,0.173 18.12,-3.155c4.977,-3.333 10.382,-8.274 16.212,-14.829c5.831,-6.555 11.596,-11.413 17.299,-14.572c2.363,4.884 3.452,11.046 3.271,18.485c-0.181,7.439 0.996,13.44 3.52,18.004c1.895,3.422 5.736,6.627 11.521,9.616l5.782,2.988c14.649,5.534 28.256,4.015 40.826,-4.555c9.303,-6.186 16.776,-14.74 22.422,-25.667c2.504,-4.846 4.609,-10.099 6.313,-15.766c4.709,-11.473 5.655,-25.912 2.841,-43.322c-3.264,-19.687 -12.073,-39.073 -26.437,-58.155c-14.364,-19.082 -34.238,-35.18 -59.624,-48.298l-5.782,-2.988c-29.562,-15.275 -61.056,-24.841 -94.479,-28.703c-36.007,-4.381 -67.885,-2.566 -95.635,5.439c-34.25,10.344 -65.941,29.524 -95.075,57.544c-24.546,23.078 -45.435,51.297 -62.668,84.649c-3.481,6.737 -6.722,13.8 -9.728,21.186c-32.538,74 -31.441,146.732 3.287,218.195c32.526,66.268 86.385,118.823 161.578,157.676l16.869,8.716c18.316,9.464 34.518,16.711 48.611,21.741c14.092,5.031 31.527,8.712 52.309,11.045c20.777,2.341 39.957,0.676 57.538,-4.985c20.847,-7.252 33.693,-15.566 38.538,-24.942c0.866,-1.677 1.574,-3.436 2.118,-5.279c0.645,-5.187 -0.479,-8.53 -3.37,-10.024l-2.41,-1.245c-2.251,-1.163 -5.067,-2.21 -8.449,-3.146c-3.387,-0.934 -6.202,-1.985 -8.449,-3.146l-2.41,-1.245c1.972,-2.236 8.741,-6.678 20.318,-13.317c10.432,-6.011 17.892,-13.351 22.374,-22.024l1.742,-3.372c1.031,-4.354 1.469,-10.131 1.32,-17.332c-0.148,-7.201 0.288,-12.575 1.308,-16.119c26.461,17.336 42.436,38.821 47.917,64.456c5.336,24.336 1.034,50 -12.914,76.993l-2.242,4.338l-0.977,-0.505c-2.273,-1.174 -3.386,-4.803 -3.335,-10.883c0.051,-6.08 -1.55,-9.961 -4.804,-11.642l-1.462,-0.756c-5.48,10.605 -15.573,21.163 -30.28,31.681c-14.703,10.52 -23.632,18.832 -26.786,24.936c-1.005,2.735 -0.227,4.77 2.345,6.099c1.284,0.664 3.22,1.256 5.798,1.777c4.687,0.387 8.153,1.159 10.403,2.322c0.962,0.497 1.683,1.072 2.161,1.726c-11.793,11.006 -24.775,17.023 -38.942,18.046c-14.169,1.027 -31.895,-1.111 -53.175,-6.409c-1.129,-0.175 -3.911,-0.9 -8.342,-2.172c-4.431,-1.272 -7.618,-2.004 -9.557,-2.19c-1.939,-0.186 -4.606,-0.344 -8.001,-0.472c-3.396,-0.127 -6.432,0.241 -9.114,1.092c-2.678,0.853 -5.328,2.233 -7.942,4.142c-1.494,2.891 -0.445,5.98 3.153,9.265c3.594,3.283 5.223,5.649 4.879,7.103c-20.016,8.793 -46.409,4.723 -79.184,-12.213c-3.535,-1.827 -9.306,-5.625 -17.32,-11.393c-4.966,-3.786 -9.535,-6.761 -13.711,-8.918c-2.251,-1.163 -4.421,-2.083 -6.516,-2.757c-5.474,-2.013 -10.977,-1.601 -16.514,1.236l-0.997,1.929c-1.494,2.891 -1.209,5.89 0.852,8.99c2.372,4.077 2.893,7.399 1.565,9.968c-5.338,0.093 -11.704,-1.775 -19.096,-5.595c-2.891,-1.494 -5.696,-3.154 -8.42,-4.979c-11.701,-7.298 -21.531,-14.469 -29.496,-21.511c-7.966,-7.038 -17.252,-15.072 -27.851,-24.104c-10.601,-9.028 -18.861,-15.698 -24.777,-20.006l-10.605,-5.48c-15.103,-7.804 -25.37,-8.02 -30.809,-0.653l-0.497,0.962c-1.993,3.857 -1.243,8.315 2.249,13.375c3.97,5.714 5.117,10.584 3.447,14.604c-3.702,-1.505 -7.156,-3.088 -10.369,-4.748c-16.387,-8.468 -28.705,-18.903 -36.952,-31.307c-9.834,-14.851 -17.848,-35.585 -24.045,-62.195c-6.197,-26.61 -10.783,-43.739 -13.756,-51.382l-2.115,-5.365c-1.728,-3.744 -2.671,-5.859 -2.827,-6.348c-0.156,-0.488 -0.94,-2.32 -2.355,-5.49c-1.413,-3.174 -2.598,-5.211 -3.558,-6.111c-0.959,-0.904 -2.31,-2.619 -4.056,-5.149c-1.746,-2.53 -3.381,-4.294 -4.906,-5.283c-1.524,-0.989 -3.411,-2.067 -5.658,-3.228c-0.478,-0.655 -0.877,-1.063 -1.199,-1.229c-1.607,-0.83 -3.539,-1.42 -5.798,-1.777c-2.261,-0.352 -4.923,-0.71 -7.993,-1.077l-0.997,1.929c-1.66,3.213 -2.857,7.89 -3.584,14.024c-0.209,3.555 -1.059,6.779 -2.555,9.673c-0.997,1.929 -2.315,3.691 -3.95,5.285l-2.41,-1.245c-9.639,-4.981 -15.699,-17.679 -18.178,-38.096c-1.954,-11.187 -2.142,-27.568 -0.56,-49.146c1.58,-21.574 2.037,-37.626 1.368,-48.149c-0.322,-24.592 -4.499,-38.963 -12.532,-43.114l-0.962,-0.497c-4.83,-1.68 -8.471,-1.732 -10.919,-0.145c-1.959,1.431 -4.104,4.394 -6.428,8.891l-6.725,13.015c-16.502,-8.527 -19.839,-32.031 -10.006,-70.512c1.221,-5.476 3.656,-11.75 7.309,-18.82c6.807,-13.174 17.61,-28.562 32.4,-46.157c2.802,-3.843 7.068,-8.56 12.806,-14.146c5.738,-5.585 10.167,-10.219 13.287,-13.897c2.304,-2.88 4.367,-6.092 6.192,-9.623l2.242,-4.338c2.501,-5.63 3.308,-11.521 2.419,-17.679c-2.682,-5.049 -5.791,-8.489 -9.326,-10.316c-0.962,-0.497 -2.011,-0.837 -3.14,-1.013c-4.995,-1.362 -9.087,-1.131 -12.262,0.685c-3.177,1.819 -7.371,3.827 -12.575,6.02c-5.206,2.197 -9.425,3.272 -12.661,3.227c-2.837,-5.537 -2.098,-12.486 2.219,-20.84c2.324,-4.498 5.543,-9.147 9.648,-13.944c3.653,-7.07 8.688,-13.628 15.108,-19.672c6.422,-6.048 14.556,-12.632 24.412,-19.752c9.852,-7.122 17.081,-12.753 21.685,-16.888c27.465,-23.671 45.186,-43.218 53.154,-58.639c1.356,-2.625 2.469,-5.168 3.333,-7.63c3.461,-9.848 2.722,-17.086 -2.216,-21.716l-4.338,-2.242c-5.142,-2.657 -10.562,-2.405 -16.266,0.755c-7.011,4.111 -12.606,5.09 -16.781,2.932l-0.481,-0.249c7.804,-15.103 17.6,-27.953 29.386,-38.554c11.786,-10.602 25.769,-18.947 41.948,-25.043c16.178,-6.095 30.146,-10.481 41.911,-13.154c11.765,-2.673 27.288,-5.34 46.572,-7.997c3.081,-0.444 9.595,-0.843 19.548,-1.198c9.952,-0.354 18.011,-0.974 24.169,-1.863c6.158,-0.889 11.278,-2.521 15.35,-4.891c5.859,-2.671 10.366,-7.063 13.52,-13.167c1.327,-2.569 2.335,-5.308 3.022,-8.208c2.886,-10.314 0.567,-18.434 -6.957,-24.358c-0.478,-0.655 -1.036,-1.145 -1.68,-1.478c-2.569,-1.327 -6.278,-2.428 -11.117,-3.301c-5.972,-1.05 -10.57,-2 -13.792,-2.854c-0.811,-0.011 -1.374,-0.1 -1.696,-0.267c-2.569,-1.327 -4.637,-4.024 -6.203,-8.092c5.26,-6.24 11.953,-10.924 20.082,-14.049c8.129,-3.125 14.949,-4.896 20.452,-5.308c5.503,-0.411 14.407,-0.698 26.703,-0.859c33.653,-0.522 59.002,3.21 76.045,11.2c5.797,2.179 12.546,5.263 20.261,9.25c10.605,5.48 22.887,12.436 36.847,20.873c13.962,8.434 25.923,15.229 35.884,20.376c7.392,3.82 13.663,6.652 18.813,8.502c9.65,4.17 18.692,5.587 27.12,4.244c6.968,-0.878 12.36,-5.015 16.178,-12.403c0.664,-1.284 1.252,-2.814 1.76,-4.587c2.524,-7.246 0.289,-15.726 -6.699,-25.448c-6.99,-9.718 -10.937,-16.846 -11.85,-21.389c1.641,-1.596 3.632,-2.499 5.983,-2.71c2.347,-0.213 4.369,-0.186 6.065,0.081c1.696,0.267 3.911,0.9 6.65,1.907c2.735,1.005 4.753,1.438 6.049,1.292c8.863,2.544 17.792,6.14 26.791,10.79c7.392,3.82 14.77,8.448 22.139,13.883c16.345,11.7 28.469,24.479 36.372,38.337c8.081,12.725 15.69,33.452 22.834,62.179c7.142,28.73 13.62,49.276 19.444,61.651c9.591,20.831 18.887,33.575 27.882,38.223c7.07,3.653 13.725,1.802 19.971,-5.556c0.819,-0.796 1.56,-1.839 2.224,-3.124c1.827,-3.535 2.859,-8.292 3.102,-14.273c0.088,-6.469 0.957,-11.31 2.617,-14.523c0.333,-0.644 0.823,-1.202 1.478,-1.68c8.321,6.743 16.293,21.649 23.914,44.722c6.768,26.295 3.705,62.167 -9.193,107.614c-7.081,21.583 -9.368,35.466 -6.861,41.643c1.397,4.385 4.184,7.659 8.364,9.818c4.176,2.158 8.009,2.816 11.498,1.973c3.489,-0.843 6.091,-1.74 7.799,-2.686c1.71,-0.95 4.454,-3.5 8.229,-7.656c3.775,-4.156 6.401,-6.87 7.872,-8.145c4.405,9.602 4.428,19.796 0.078,30.573l-3.487,6.748c-3.984,7.711 -8.933,14.928 -14.846,21.642c-7.872,8.145 -16.491,17.738 -25.861,28.773c-6.412,7.68 -11.192,14.572 -14.348,20.679c-1.494,2.891 -2.664,5.546 -3.503,7.959c-4.517,11.103 -3.848,21.626 2.007,31.569c2.53,4.562 6.04,8.008 10.537,10.332c5.142,2.657 11.355,3.63 18.645,2.918c16.681,-1.558 37.346,-22.636 61.987,-63.235c1.762,1.319 2.996,2.871 3.699,4.66c0.703,1.789 1.165,3.454 1.389,4.99c0.222,1.54 0.237,3.481 0.044,5.824c-0.193,2.344 -0.377,4.078 -0.554,5.211c-0.175,1.129 -0.648,3.023 -1.408,5.684c-0.764,2.658 -1.229,4.149 -1.396,4.471c-2.192,6.601 -4.945,13.119 -8.265,19.545c-3.32,6.426 -7.289,12.926 -11.908,19.497c-30.257,49.098 -79.455,81.284 -147.599,96.556c-3.732,0.923 -21.611,4.001 -53.629,9.237c-32.018,5.236 -55.745,10.583 -71.187,16.041c-2.437,0.776 -8.655,3.163 -18.658,7.154c-10.003,3.991 -16.948,6.204 -20.835,6.639c-5.983,-0.24 -16.251,-3.412 -30.811,-9.509c-14.559,-6.097 -24.497,-9.91 -29.814,-11.438c-5.317,-1.528 -11.089,-2.574 -17.306,-3.141c-6.22,-0.569 -13.254,-0.944 -21.093,-1.13c-7.845,-0.184 -13.945,-0.386 -18.311,-0.607c-28.116,-2.315 -46.835,-5.881 -56.152,-10.695l-2.41,-1.245c-2.716,-2.623 -5.694,-6.507 -8.945,-11.643c-3.249,-5.14 -5.825,-9.013 -7.732,-11.631c-2.236,-1.972 -5.678,-4.768 -10.323,-8.387c-4.644,-3.619 -7.276,-6.405 -7.897,-8.353c-2.496,-6.988 -2.471,-14.915 0.074,-23.778c0.85,-3.224 2.109,-6.442 3.77,-9.655c2.657,-5.142 6.358,-9.945 11.11,-14.412l0.008,-0.024Z" style="fill:url(#_Linear13);fill-rule:nonzero;"/><path d="M19164.853,1304.833c3.329,4.8 7.558,8.9 12.688,12.288c15.992,10.571 39.679,13.438 71.058,8.596c30.667,-7.042 49.392,-15.696 56.175,-25.954c0.4,-0.604 0.7,-1.054 0.896,-1.358c4.679,-9.046 1.662,-23.833 -9.054,-44.354c-8.696,-17.021 -18.775,-29.317 -30.242,-36.896c-2.717,-1.796 -5.379,-3.338 -7.992,-4.633c-1.908,-0.392 -5.821,-1.029 -11.746,-1.908c-4.617,-0.883 -8.283,-2.225 -11,-4.021c-0.3,-0.2 -0.754,-0.5 -1.358,-0.896c15.483,-16.213 28.8,-23.237 39.942,-21.075c4.413,-0.117 9.788,1.917 16.125,6.104c4.525,2.992 9.708,7.283 15.55,12.879c8.358,7.692 15.4,13.433 21.133,17.221c4.225,2.792 7.742,4.683 10.554,5.675c6.929,1.979 13.046,1.579 18.354,-1.2c5.304,-2.779 11.208,-7.117 17.704,-13.013c6.496,-5.896 12.75,-10.108 18.758,-12.638c1.825,5.108 2.25,11.35 1.279,18.729c-0.975,7.375 -0.45,13.471 1.575,18.275c1.521,3.604 4.996,7.204 10.425,10.792c1.508,0.996 3.321,2.196 5.429,3.592c13.971,7.067 27.667,7.013 41.079,-0.162c9.913,-5.154 18.258,-12.862 25.038,-23.121c3.008,-4.55 5.663,-9.55 7.962,-15c5.908,-10.904 8.392,-25.162 7.458,-42.767c-1.138,-19.925 -7.829,-40.142 -20.071,-60.65c-12.242,-20.508 -30.279,-38.642 -54.117,-54.396c-1.808,-1.196 -3.621,-2.392 -5.429,-3.592c-27.758,-18.35 -58.05,-31.229 -90.871,-38.642c-35.329,-8.204 -67.221,-9.808 -95.667,-4.817c-35.158,6.621 -68.721,22.304 -100.683,47.046c-26.875,20.325 -50.658,46.146 -71.363,77.463c-4.183,6.325 -8.158,13 -11.933,20.025c-40.262,70.1 -46.95,142.529 -20.062,217.296c25.254,69.362 73.188,127.379 143.792,174.05c5.129,3.392 10.408,6.879 15.842,10.471c17.2,11.367 32.537,20.304 46.008,26.812c13.475,6.508 30.417,12.033 50.825,16.575c20.408,4.546 39.654,4.946 57.737,1.196c21.5,-4.979 35.163,-11.875 40.983,-20.679c1.042,-1.575 1.929,-3.25 2.671,-5.025c1.196,-5.088 0.437,-8.533 -2.279,-10.325c-0.604,-0.4 -1.358,-0.896 -2.263,-1.496c-2.112,-1.396 -4.8,-2.742 -8.067,-4.029c-3.267,-1.292 -5.954,-2.633 -8.067,-4.029c-0.904,-0.6 -1.658,-1.096 -2.262,-1.496c2.2,-2.017 9.408,-5.704 21.625,-11.071c11.017,-4.858 19.217,-11.362 24.6,-19.508c0.6,-0.904 1.296,-1.963 2.096,-3.167c1.487,-4.221 2.546,-9.917 3.167,-17.092c0.625,-7.175 1.629,-12.471 3.021,-15.888c24.454,20.067 38.042,43.138 40.75,69.208c2.704,24.767 -4.317,49.825 -21.071,75.171c-0.996,1.508 -1.896,2.867 -2.692,4.075c-0.308,-0.204 -0.612,-0.404 -0.921,-0.608c-2.138,-1.412 -2.854,-5.138 -2.154,-11.179c0.7,-6.042 -0.479,-10.071 -3.533,-12.092c-0.3,-0.2 -0.758,-0.5 -1.371,-0.908c-6.583,9.958 -17.746,19.379 -33.496,28.263c-15.746,8.887 -25.512,16.196 -29.3,21.929c-1.296,2.613 -0.733,4.717 1.679,6.312c1.208,0.796 3.067,1.592 5.575,2.387c4.617,0.883 7.983,2.025 10.096,3.421c0.904,0.6 1.558,1.246 1.962,1.95c-12.904,9.683 -26.45,14.275 -40.65,13.779c-14.196,-0.496 -31.592,-4.517 -52.188,-12.058c-1.104,-0.296 -3.792,-1.312 -8.062,-3.054c-4.271,-1.737 -7.358,-2.804 -9.267,-3.2c-1.908,-0.392 -4.542,-0.833 -7.904,-1.325c-3.362,-0.488 -6.421,-0.45 -9.179,0.112c-2.758,0.562 -5.537,1.65 -8.338,3.267c-1.796,2.717 -1.079,5.896 2.146,9.546c3.225,3.65 4.587,6.175 4.092,7.583c-20.838,6.604 -46.646,-0.267 -77.425,-20.608c-3.321,-2.196 -8.654,-6.588 -16.004,-13.179c-4.529,-4.296 -8.758,-7.742 -12.679,-10.333c-2.112,-1.396 -4.175,-2.542 -6.183,-3.438c-5.225,-2.587 -10.746,-2.767 -16.554,-0.537c-0.4,0.604 -0.796,1.208 -1.196,1.808c-1.796,2.717 -1.833,5.725 -0.117,9.029c1.925,4.304 2.088,7.667 0.492,10.079c-5.317,-0.479 -11.446,-3.012 -18.387,-7.6c-2.717,-1.796 -5.329,-3.746 -7.838,-5.85c-10.85,-8.508 -19.862,-16.688 -27.029,-24.542c-7.171,-7.85 -15.542,-16.829 -25.112,-26.942c-9.575,-10.108 -17.075,-17.625 -22.496,-22.542c-3.621,-2.392 -6.942,-4.587 -9.958,-6.583c-14.183,-9.375 -24.371,-10.688 -30.562,-3.942c-0.2,0.3 -0.4,0.604 -0.6,0.904c-2.392,3.621 -2.125,8.133 0.804,13.538c3.333,6.104 3.954,11.071 1.867,14.887c-3.517,-1.892 -6.788,-3.833 -9.804,-5.829c-15.388,-10.171 -26.521,-21.862 -33.392,-35.079c-8.188,-15.817 -13.942,-37.287 -17.258,-64.408c-3.317,-27.121 -6.046,-44.642 -8.183,-52.558l-1.525,-5.562c-1.321,-3.908 -2.029,-6.112 -2.133,-6.612c-0.104,-0.5 -0.688,-2.404 -1.754,-5.712c-1.067,-3.304 -2.029,-5.458 -2.883,-6.458c-0.858,-1 -2.017,-2.85 -3.483,-5.554c-1.467,-2.704 -2.904,-4.629 -4.312,-5.775c-1.408,-1.15 -3.171,-2.421 -5.283,-3.817c-0.404,-0.7 -0.758,-1.15 -1.058,-1.35c-1.508,-0.996 -3.367,-1.792 -5.575,-2.387c-2.208,-0.592 -4.821,-1.233 -7.833,-1.925c-0.4,0.604 -0.796,1.208 -1.196,1.808c-1.996,3.017 -3.683,7.538 -5.062,13.562c-0.587,3.513 -1.779,6.629 -3.575,9.342c-1.196,1.808 -2.696,3.421 -4.496,4.833c-0.904,-0.6 -1.658,-1.096 -2.263,-1.496c-9.05,-5.983 -13.721,-19.258 -14,-39.821c-0.746,-11.333 0.817,-27.642 4.696,-48.921c3.879,-21.283 6.046,-37.192 6.508,-47.725c2.312,-24.487 -0.304,-39.221 -7.85,-44.208c-0.3,-0.2 -0.604,-0.4 -0.904,-0.6c-4.625,-2.187 -8.237,-2.625 -10.837,-1.312c-2.1,1.213 -4.55,3.929 -7.342,8.154c-0.4,0.604 -7.079,10.713 -8.079,12.221c-15.496,-10.242 -16.3,-33.971 -2.408,-71.179c1.8,-5.312 4.892,-11.292 9.279,-17.929c8.175,-12.371 20.558,-26.513 37.15,-42.429c3.196,-3.525 7.946,-7.754 14.246,-12.696c6.3,-4.942 11.2,-9.071 14.696,-12.396c2.596,-2.617 4.992,-5.588 7.188,-8.908c0.796,-1.208 1.696,-2.567 2.692,-4.075c3.087,-5.329 4.521,-11.104 4.296,-17.321c-2.129,-5.308 -4.85,-9.058 -8.171,-11.254c-0.904,-0.6 -1.908,-1.046 -3.017,-1.342c-4.821,-1.887 -8.913,-2.096 -12.267,-0.629c-3.354,1.467 -7.737,3.017 -13.15,4.642c-5.413,1.625 -9.721,2.246 -12.933,1.858c-2.229,-5.808 -0.754,-12.638 4.433,-20.483c2.792,-4.225 6.487,-8.504 11.083,-12.833c4.388,-6.638 10.096,-12.621 17.125,-17.946c7.029,-5.325 15.825,-11 26.383,-17.029c10.558,-6.029 18.346,-10.854 23.367,-14.471c29.838,-20.6 49.546,-38.138 59.117,-52.621c1.629,-2.467 3.004,-4.875 4.129,-7.229c4.492,-9.421 4.533,-16.696 0.121,-21.829c-1.508,-0.996 -2.867,-1.896 -4.075,-2.692c-4.829,-3.192 -10.246,-3.521 -16.254,-0.988c-7.408,3.342 -13.075,3.713 -17,1.121c0,0 -0.15,-0.1 -0.454,-0.3c9.375,-14.183 20.488,-25.913 33.342,-35.192c12.854,-9.279 27.65,-16.083 44.383,-20.412c16.737,-4.329 31.096,-7.196 43.075,-8.596c11.983,-1.4 27.704,-2.392 47.163,-2.971c3.108,-0.112 9.629,0.188 19.567,0.9c9.933,0.712 18.013,0.958 24.229,0.733c6.217,-0.225 11.479,-1.3 15.787,-3.221c6.112,-2.029 11.062,-5.912 14.85,-11.646c1.596,-2.412 2.888,-5.029 3.883,-7.842c3.975,-9.946 2.538,-18.267 -4.312,-24.962c-0.404,-0.7 -0.908,-1.25 -1.513,-1.65c-2.412,-1.596 -5.979,-3.087 -10.7,-4.471c-5.825,-1.683 -10.296,-3.121 -13.408,-4.312c-0.804,-0.096 -1.354,-0.246 -1.658,-0.446c-2.413,-1.596 -4.179,-4.496 -5.3,-8.708c5.896,-5.642 13.054,-9.583 21.471,-11.821c8.417,-2.242 15.388,-3.271 20.904,-3.092c5.517,0.179 14.4,0.846 26.642,2c33.517,3.079 58.321,9.5 74.408,19.267c5.529,2.787 11.913,6.575 19.154,11.358c9.958,6.583 21.425,14.812 34.404,24.692c12.979,9.879 24.146,17.912 33.5,24.092c6.942,4.587 12.871,8.075 17.796,10.463c9.15,5.179 17.987,7.554 26.513,7.117c7.021,-0.129 12.825,-3.663 17.412,-10.6c0.796,-1.208 1.546,-2.663 2.242,-4.371c3.283,-6.933 1.971,-15.608 -3.942,-26.017c-5.908,-10.408 -9.075,-17.921 -9.492,-22.533c1.8,-1.412 3.879,-2.096 6.238,-2.054c2.358,0.042 4.367,0.283 6.021,0.729c1.658,0.446 3.792,1.312 6.404,2.608c2.613,1.296 4.571,1.938 5.875,1.933c8.542,3.479 17.033,8.008 25.483,13.592c6.942,4.588 13.783,9.975 20.529,16.171c15,13.383 25.688,27.383 32.067,42.004c6.675,13.517 12.025,34.938 16.054,64.263c4.029,29.325 8.275,50.45 12.742,63.375c7.308,21.737 15.188,35.4 23.637,40.987c6.638,4.388 13.454,3.258 20.45,-3.392c0.9,-0.704 1.75,-1.662 2.546,-2.871c2.196,-3.321 3.729,-7.942 4.608,-13.862c0.779,-6.425 2.162,-11.142 4.158,-14.163c0.4,-0.604 0.95,-1.108 1.65,-1.512c7.554,7.596 13.887,23.267 18.996,47.025c3.917,26.871 -2.963,62.208 -20.646,106.017c-9.346,20.7 -13.104,34.258 -11.275,40.671c0.921,4.513 3.342,8.062 7.267,10.654c3.921,2.592 7.663,3.658 11.221,3.192c3.558,-0.467 6.242,-1.079 8.042,-1.837c1.804,-0.758 4.804,-3.004 9,-6.733c4.2,-3.729 7.1,-6.146 8.7,-7.258c3.35,10.017 2.288,20.154 -3.192,30.408c-1.396,2.113 -2.792,4.225 -4.188,6.338c-4.788,7.242 -10.479,13.883 -17.075,19.929c-8.7,7.258 -18.296,15.871 -28.787,25.846c-7.196,6.95 -12.688,13.292 -16.475,19.025c-1.796,2.717 -3.237,5.229 -4.333,7.542c-5.675,10.554 -6.138,21.092 -1.379,31.604c2.025,4.808 5.15,8.608 9.375,11.4c4.829,3.192 10.904,4.821 18.225,4.892c16.754,0.233 39.55,-18.513 68.392,-56.246c1.612,1.5 2.671,3.175 3.179,5.029c0.508,1.854 0.792,3.558 0.846,5.112c0.058,1.554 -0.138,3.487 -0.579,5.796c-0.442,2.308 -0.812,4.017 -1.108,5.121c-0.296,1.104 -0.967,2.938 -2.008,5.5c-1.042,2.562 -1.662,3.996 -1.862,4.296c-2.883,6.333 -6.321,12.512 -10.308,18.55c-3.987,6.033 -8.629,12.071 -13.921,18.112c-35.333,45.583 -87.692,72.325 -157.079,80.221c-3.808,0.517 -21.912,1.667 -54.308,3.45c-32.396,1.783 -56.558,4.563 -72.496,8.337c-2.504,0.513 -8.946,2.217 -19.317,5.117c-10.371,2.9 -17.513,4.358 -21.425,4.375c-5.921,-0.879 -15.796,-5.129 -29.617,-12.75c-13.825,-7.621 -23.296,-12.471 -28.421,-14.558c-5.125,-2.087 -10.75,-3.746 -16.871,-4.975c-6.125,-1.229 -13.075,-2.354 -20.854,-3.379c-7.779,-1.021 -13.825,-1.875 -18.142,-2.562c-27.708,-5.308 -45.938,-10.854 -54.688,-16.638c-0.904,-0.6 -1.658,-1.096 -2.263,-1.496c-2.421,-2.9 -4.967,-7.079 -7.65,-12.533c-2.679,-5.458 -4.829,-9.587 -6.446,-12.388c-2.017,-2.2 -5.138,-5.346 -9.367,-9.442c-4.229,-4.096 -6.55,-7.146 -6.958,-9.15c-1.733,-7.217 -0.863,-15.096 2.617,-23.633c1.192,-3.112 2.783,-6.179 4.779,-9.196c3.192,-4.829 7.388,-9.208 12.587,-13.142l0.033,0.025Z" style="fill:url(#_Linear14);fill-rule:nonzero;"/></g><defs><linearGradient id="_Linear1" x1="0" y1="0" x2="1" y2="0" gradientUnits="userSpaceOnUse" gradientTransform="matrix(1007.5902,1514.534892,-1514.534892,1007.5902,2776.00082,47.649415)"><stop offset="0" style="stop-color:#66b7f1;stop-opacity:0.47"/><stop offset="0.5" style="stop-color:#66b7f1;stop-opacity:0.35"/><stop offset="1" style="stop-color:#66b7f1;stop-opacity:0"/></linearGradient><linearGradient id="_Linear2" x1="0" y1="0" x2="1" y2="0" gradientUnits="userSpaceOnUse" gradientTransform="matrix(9.161308,-372.709571,372.709571,9.161308,8959.709855,1546.398617)"><stop offset="0" style="stop-color:#66b7f1;stop-opacity:0.47"/><stop offset="0.5" style="stop-color:#66b7f1;stop-opacity:0.35"/><stop offset="1" style="stop-color:#66b7f1;stop-opacity:0"/></linearGradient><linearGradient id="_Linear3" x1="0" y1="0" x2="1" y2="0" gradientUnits="userSpaceOnUse" gradientTransform="matrix(308.902529,208.74765,-208.74765,308.902529,9937.116763,3025.319696)"><stop offset="0" style="stop-color:#66b7f1;stop-opacity:0.47"/><stop offset="0.5" style="stop-color:#66b7f1;stop-opacity:0.35"/><stop offset="1" style="stop-color:#66b7f1;stop-opacity:0"/></linearGradient><linearGradient id="_Linear4" x1="0" y1="0" x2="1" y2="0" gradientUnits="userSpaceOnUse" gradientTransform="matrix(9.161308,-372.709571,372.709571,9.161308,638.704443,411.618733)"><stop offset="0" style="stop-color:#66b7f1;stop-opacity:0.47"/><stop offset="0.5" style="stop-color:#66b7f1;stop-opacity:0.35"/><stop offset="1" style="stop-color:#66b7f1;stop-opacity:0"/></linearGradient><linearGradient id="_Linear5" x1="0" y1="0" x2="1" y2="0" gradientUnits="userSpaceOnUse" gradientTransform="matrix(-493.557313,-92.455592,92.455592,-493.557313,814.259632,2288.563558)"><stop offset="0" style="stop-color:#66b7f1;stop-opacity:0.47"/><stop offset="0.5" style="stop-color:#66b7f1;stop-opacity:0.35"/><stop offset="1" style="stop-color:#66b7f1;stop-opacity:0"/></linearGradient><linearGradient id="_Linear6" x1="0" y1="0" x2="1" y2="0" gradientUnits="userSpaceOnUse" gradientTransform="matrix(-487.645879,119.784614,-119.784614,-487.645879,6250.72292,452.222895)"><stop offset="0" style="stop-color:#66b7f1;stop-opacity:0.47"/><stop offset="0.5" style="stop-color:#66b7f1;stop-opacity:0.35"/><stop offset="1" style="stop-color:#66b7f1;stop-opacity:0"/></linearGradient><linearGradient id="_Linear7" x1="0" y1="0" x2="1" y2="0" gradientUnits="userSpaceOnUse" gradientTransform="matrix(159.661736,476.082963,-476.082963,159.661736,22142.076909,186.797141)"><stop offset="0" style="stop-color:#66b7f1;stop-opacity:0.47"/><stop offset="0.5" style="stop-color:#66b7f1;stop-opacity:0.35"/><stop offset="1" style="stop-color:#66b7f1;stop-opacity:0"/></linearGradient><linearGradient id="_Linear8" x1="0" y1="0" x2="1" y2="0" gradientUnits="userSpaceOnUse" gradientTransform="matrix(-493.146678,-94.621411,94.621411,-493.146678,11283.944861,879.043954)"><stop offset="0" style="stop-color:#66b7f1;stop-opacity:0.47"/><stop offset="0.5" style="stop-color:#66b7f1;stop-opacity:0.35"/><stop offset="1" style="stop-color:#66b7f1;stop-opacity:0"/></linearGradient><linearGradient id="_Linear9" x1="0" y1="0" x2="1" y2="0" gradientUnits="userSpaceOnUse" gradientTransform="matrix(301.08055,-766.172479,766.172479,301.08055,6471.180543,2984.303094)"><stop offset="0" style="stop-color:#66b7f1;stop-opacity:0.47"/><stop offset="0.5" style="stop-color:#66b7f1;stop-opacity:0.35"/><stop offset="1" style="stop-color:#66b7f1;stop-opacity:0"/></linearGradient><linearGradient id="_Linear10" x1="0" y1="0" x2="1" y2="0" gradientUnits="userSpaceOnUse" gradientTransform="matrix(1164.216225,-330.425488,330.425488,1164.216225,15165.066834,814.715579)"><stop offset="0" style="stop-color:#66b7f1;stop-opacity:0.47"/><stop offset="0.5" style="stop-color:#66b7f1;stop-opacity:0.35"/><stop offset="1" style="stop-color:#66b7f1;stop-opacity:0"/></linearGradient><linearGradient id="_Linear11" x1="0" y1="0" x2="1" y2="0" gradientUnits="userSpaceOnUse" gradientTransform="matrix(-231.654617,137.921717,-137.921717,-231.654617,22039.641567,2287.914978)"><stop offset="0" style="stop-color:#66b7f1;stop-opacity:0.47"/><stop offset="1" style="stop-color:#66b7f1;stop-opacity:0"/></linearGradient><linearGradient id="_Linear12" x1="0" y1="0" x2="1" y2="0" gradientUnits="userSpaceOnUse" gradientTransform="matrix(548.877646,175.868967,-175.868967,548.877646,13638.873149,2272.628325)"><stop offset="0" style="stop-color:#66b7f1;stop-opacity:0.47"/><stop offset="0.5" style="stop-color:#66b7f1;stop-opacity:0.35"/><stop offset="1" style="stop-color:#66b7f1;stop-opacity:0"/></linearGradient><linearGradient id="_Linear13" x1="0" y1="0" x2="1" y2="0" gradientUnits="userSpaceOnUse" gradientTransform="matrix(-408.207217,406.894866,-406.894866,-408.207217,17545.457659,2467.748675)"><stop offset="0" style="stop-color:#66b7f1;stop-opacity:0.47"/><stop offset="0.5" style="stop-color:#66b7f1;stop-opacity:0.35"/><stop offset="1" style="stop-color:#66b7f1;stop-opacity:0"/></linearGradient><linearGradient id="_Linear14" x1="0" y1="0" x2="1" y2="0" gradientUnits="userSpaceOnUse" gradientTransform="matrix(860.523712,-215.515571,215.515571,860.523712,18643.873461,1370.843768)"><stop offset="0" style="stop-color:#66b7f1;stop-opacity:0.47"/><stop offset="0.5" style="stop-color:#66b7f1;stop-opacity:0.35"/><stop offset="1" style="stop-color:#66b7f1;stop-opacity:0"/></linearGradient></defs></svg>