<?xml version="1.0" encoding="UTF-8" standalone="no"?><!DOCTYPE svg PUBLIC "-//W3C//DTD SVG 1.1//EN" "http://www.w3.org/Graphics/SVG/1.1/DTD/svg11.dtd"><svg width="100%" height="100%" viewBox="0 0 7285 1483" version="1.1" xmlns="http://www.w3.org/2000/svg" xmlns:xlink="http://www.w3.org/1999/xlink" xml:space="preserve" xmlns:serif="http://www.serif.com/" style="fill-rule:evenodd;clip-rule:evenodd;stroke-linejoin:round;stroke-miterlimit:2;"><rect id="Artboard1" x="0" y="0" width="7284.865" height="1482.478" style="fill:none;"/><rect id="Header-View" serif:id="Header View" x="332.309" y="327.904" width="6236.958" height="755.541" style="fill:none;"/><g id="Header"><path d="M1272.918,537.657c0,0 5.107,-8.88 15.322,-26.638l22.481,6.362l1.621,31.121c0,0 1.888,0.845 5.664,2.537c10.151,6.297 17.516,11.806 22.095,16.526c0,0 3.439,3.982 10.316,11.947c0,0 11.775,-2.375 35.326,-7.124l10.175,21.247l-27.008,26.133c0,0 0.916,4.28 2.748,12.841c1.832,8.56 2.036,16.271 0.613,23.132c0,0 9.703,5.496 29.11,16.488l-6.444,22.769l-33.117,1.523c-2.281,4.025 -4.519,8.086 -6.717,12.185c-2.198,4.099 -5.403,8.822 -9.614,14.167c-4.211,5.345 -6.79,8.04 -7.735,8.084c0,0 2.895,11.403 8.684,34.211l-20.194,11.407l-26.205,-23.448c-7.581,2.954 -13.28,4.853 -17.1,5.698c-3.819,0.844 -9.836,1.663 -18.052,2.459c0,0 -2.744,-0.205 -8.232,-0.613l-17.931,30.358l-22.769,-6.444l-1.24,-35.216c0,0 -4.017,-2.122 -12.051,-6.368c-8.023,-5.384 -13.643,-9.724 -16.861,-13.022c-3.217,-3.298 -5.067,-5.196 -5.549,-5.695c-0.481,-0.499 -1.342,-1.859 -2.582,-4.078c0,0 -10.415,3.435 -31.245,10.303l-12.23,-20.583l23.59,-27.256c-3.3,-11 -5.013,-21.212 -5.138,-30.638c-0.124,-9.426 -0.064,-14.934 0.178,-16.526c0,0 -8.663,-4.839 -25.99,-14.516l6.322,-22.337l18.712,-0.464l13.389,-0.413c0.245,-0.865 1.149,-2.865 2.713,-6.003c1.565,-3.137 2.443,-5.041 2.634,-5.714c0.19,-0.673 2.299,-3.525 6.326,-8.56c4.027,-5.035 9.286,-10.006 15.775,-14.914c0,0 -2.923,-11.671 -8.769,-35.013l20.627,-11.284l26.127,24.827c0.123,-0.069 2.973,-0.974 8.551,-2.717c11.786,-3.513 22.482,-3.91 32.09,-1.19c0.576,0.163 1.105,0.313 1.585,0.449l0.001,-0.002Zm14.726,23.313c-24.895,-6.631 -48.006,-3.988 -69.329,7.928c-10.081,5.552 -19.058,13.077 -26.935,22.573c-7.876,9.496 -13.445,20.009 -16.708,31.538c-3.263,11.529 -4.076,23.569 -2.441,36.12c1.636,12.552 5.254,23.875 10.855,33.968c5.6,10.094 13.176,18.983 22.727,26.667c9.551,7.683 20.283,13.211 32.196,16.583c11.913,3.371 23.926,4.281 36.039,2.728c12.113,-1.553 23.217,-5.129 33.31,-10.729c10.094,-5.6 18.983,-13.176 26.667,-22.727c7.683,-9.551 13.211,-20.283 16.583,-32.196c3.371,-11.913 4.288,-23.95 2.749,-36.111c-3.119,-24.542 -14.279,-44.51 -33.477,-59.906c-8.795,-7.055 -19.541,-12.535 -32.237,-16.439l0.002,0.002Z" style="fill:url(#_Linear1);fill-rule:nonzero;"/><path d="M2615.767,618.424c0,0 -1.936,-10.059 -5.806,-30.177l21.176,-9.872l21.562,22.501c0,0 1.982,-0.594 5.945,-1.781c11.799,-1.866 20.974,-2.507 27.525,-1.927c0,0 5.205,0.768 15.615,2.304c0,0 7.363,-9.492 22.088,-28.475l21.585,9.435l-3.37,37.429c0,0 3.49,2.642 10.47,7.925c6.98,5.283 12.173,10.987 15.579,17.111c0,0 10.936,-2.18 32.81,-6.539l9.999,21.447l-24.075,22.792c0.903,4.536 1.862,9.074 2.877,13.614c1.014,4.54 1.675,10.208 1.98,17.006c0.305,6.798 0.114,10.522 -0.574,11.174c0,0 9.642,6.741 28.928,20.223l-7.834,21.83l-35.16,-0.628c-3.808,7.189 -6.883,12.351 -9.221,15.487c-2.34,3.134 -6.358,7.686 -12.058,13.657c0,0 -2.211,1.638 -6.632,4.915l6.262,34.697l-21.447,9.999l-23.949,-25.849c0,0 -4.428,1.018 -13.284,3.054c-9.592,1.166 -16.682,1.553 -21.272,1.159c-4.591,-0.393 -7.23,-0.622 -7.922,-0.686c-0.69,-0.063 -2.23,-0.53 -4.618,-1.4c0,0 -5.641,9.404 -16.921,28.214l-22.708,-7.59l0.049,-36.047c-9.685,-6.171 -17.655,-12.784 -23.908,-19.837c-6.253,-7.054 -9.808,-11.264 -10.664,-12.627c0,0 -9.72,1.998 -29.16,5.994l-9.809,-21.04l13.862,-12.576l9.865,-9.061c-0.38,-0.814 -1.003,-2.92 -1.868,-6.317c-0.865,-3.398 -1.445,-5.413 -1.74,-6.047c-0.296,-0.634 -0.564,-4.172 -0.804,-10.614c-0.24,-6.442 0.491,-13.642 2.198,-21.598c0,0 -9.839,-6.925 -29.516,-20.775l8.241,-22.02l36.001,1.723c0.048,-0.132 1.615,-2.68 4.699,-7.643c6.626,-10.36 14.465,-17.65 23.514,-21.869c0.543,-0.253 1.041,-0.485 1.493,-0.696l-0.002,0.001Zm26.38,8.026c-23.178,11.247 -38.946,28.347 -47.303,51.302c-4.003,10.789 -5.883,22.352 -5.641,34.687c0.243,12.335 2.895,23.933 7.958,34.792c5.063,10.859 12.314,20.505 21.754,28.938c9.44,8.433 19.577,14.641 30.412,18.622c10.835,3.982 22.378,5.761 34.628,5.337c12.251,-0.423 23.987,-3.252 35.208,-8.483c11.222,-5.231 20.91,-12.392 29.065,-21.483c8.155,-9.09 14.224,-19.052 18.206,-29.887c3.982,-10.835 5.761,-22.378 5.337,-34.628c-0.423,-12.251 -3.252,-23.987 -8.483,-35.208c-5.231,-11.222 -12.403,-20.932 -21.514,-29.133c-18.397,-16.54 -39.892,-24.365 -64.485,-23.476c-11.268,0.406 -22.983,3.279 -35.145,8.619l0.001,0.001Z" style="fill:url(#_Linear2);fill-rule:nonzero;"/><path d="M3292.729,1076.705c0,0 9.514,3.795 28.543,11.388l-3.109,23.156l-30.577,6.02c0,0 -0.569,1.989 -1.708,5.967c-4.793,10.942 -9.202,19.014 -13.224,24.217c0,0 -3.454,3.968 -10.363,11.906c0,0 4.021,11.319 12.064,33.958l-19.588,13.087l-29.7,-23.027c0,0 -4.107,1.514 -12.321,4.542c-8.213,3.028 -15.817,4.324 -22.811,3.889c0,0 -4.063,10.385 -12.191,31.155l-23.453,-3.149l-6.206,-32.566c-4.307,-1.687 -8.645,-3.326 -13.015,-4.921c-4.37,-1.594 -9.499,-4.096 -15.388,-7.506c-5.889,-3.41 -8.922,-5.58 -9.1,-6.511c0,0 -10.878,4.483 -32.632,13.451l-14.157,-18.372l19.493,-29.268c-3.999,-7.084 -6.688,-12.458 -8.067,-16.118c-1.377,-3.661 -3.042,-9.5 -4.996,-17.519c0,0 -0.187,-2.745 -0.561,-8.236l-32.595,-13.442l3.149,-23.453l34.684,-6.224c0,0 1.531,-4.278 4.594,-12.833c4.191,-8.706 7.69,-14.884 10.498,-18.538c2.807,-3.653 4.424,-5.753 4.85,-6.301c0.426,-0.547 1.649,-1.592 3.67,-3.134c0,0 -4.876,-9.822 -14.631,-29.466l18.64,-15.027l30.327,19.485c10.42,-4.827 20.287,-7.971 29.599,-9.433c9.313,-1.46 14.775,-2.183 16.385,-2.169c0,0 3.561,-9.263 10.681,-27.788l23.008,3.089l3.113,18.457l2.309,13.195c0.89,0.12 3,0.731 6.327,1.834c3.328,1.104 5.337,1.703 6.03,1.796c0.693,0.093 3.817,1.776 9.371,5.048c5.555,3.272 11.222,7.772 17.001,13.5c0,0 11.139,-4.55 33.414,-13.648l14.097,18.817l-20.869,29.385c0.085,0.112 1.386,2.805 3.902,8.079c5.15,11.168 7.06,21.701 5.732,31.596c-0.08,0.594 -0.153,1.138 -0.219,1.633l0,-0.003Zm-20.988,17.885c3.031,-25.584 -2.863,-48.085 -17.685,-67.503c-6.926,-9.19 -15.649,-17.011 -26.166,-23.459c-10.518,-6.449 -21.714,-10.471 -33.589,-12.065c-11.875,-1.594 -23.909,-0.691 -36.102,2.709c-12.193,3.4 -22.888,8.588 -32.084,15.564c-9.197,6.976 -16.922,15.736 -23.172,26.281c-6.252,10.544 -10.2,21.952 -11.848,34.223c-1.648,12.271 -0.843,24.292 2.413,36.062c3.256,11.77 8.371,22.254 15.347,31.451c6.976,9.197 15.736,16.922 26.281,23.172c10.544,6.252 21.952,10.2 34.223,11.848c12.271,1.648 24.316,0.846 36.136,-2.402c23.851,-6.57 42.034,-20.449 54.55,-41.637c5.736,-9.707 9.635,-21.121 11.699,-34.243l-0.002,0Z" style="fill:url(#_Linear3);fill-rule:nonzero;"/><path d="M318.732,305.165c0,0 -1.936,-10.059 -5.806,-30.177l21.176,-9.872l21.562,22.501c0,0 1.982,-0.594 5.945,-1.781c11.799,-1.866 20.974,-2.507 27.525,-1.927c0,0 5.205,0.768 15.615,2.304c0,0 7.363,-9.492 22.088,-28.475l21.585,9.435l-3.37,37.429c0,0 3.49,2.642 10.47,7.925c6.98,5.283 12.173,10.987 15.579,17.111c0,0 10.936,-2.18 32.81,-6.539l9.999,21.447l-24.075,22.792c0.903,4.536 1.862,9.074 2.877,13.614c1.014,4.54 1.675,10.208 1.98,17.006c0.305,6.798 0.114,10.522 -0.574,11.174c0,0 9.642,6.741 28.928,20.223l-7.834,21.83l-35.16,-0.628c-3.808,7.189 -6.883,12.351 -9.221,15.487c-2.34,3.134 -6.358,7.686 -12.058,13.657c0,0 -2.211,1.638 -6.632,4.915l6.262,34.697l-21.447,9.999l-23.949,-25.849c0,0 -4.428,1.018 -13.284,3.054c-9.592,1.166 -16.682,1.553 -21.272,1.159c-4.591,-0.393 -7.23,-0.622 -7.922,-0.686c-0.69,-0.063 -2.23,-0.53 -4.618,-1.4c0,0 -5.641,9.404 -16.921,28.214l-22.708,-7.59l0.049,-36.047c-9.685,-6.171 -17.655,-12.784 -23.908,-19.837c-6.253,-7.054 -9.808,-11.264 -10.664,-12.627c0,0 -9.72,1.998 -29.16,5.994l-9.809,-21.04l13.862,-12.576l9.865,-9.061c-0.38,-0.814 -1.003,-2.92 -1.868,-6.317c-0.865,-3.398 -1.445,-5.413 -1.74,-6.047c-0.296,-0.634 -0.564,-4.172 -0.804,-10.614c-0.24,-6.442 0.491,-13.642 2.198,-21.598c0,0 -9.839,-6.925 -29.516,-20.775l8.241,-22.02l36.001,1.723c0.048,-0.132 1.615,-2.68 4.699,-7.643c6.626,-10.36 14.465,-17.65 23.514,-21.869c0.543,-0.253 1.041,-0.485 1.493,-0.696l-0.002,0.001Zm26.38,8.026c-23.178,11.247 -38.946,28.347 -47.303,51.302c-4.003,10.789 -5.883,22.352 -5.641,34.687c0.243,12.335 2.895,23.933 7.958,34.792c5.063,10.859 12.314,20.505 21.754,28.938c9.44,8.433 19.577,14.641 30.412,18.622c10.835,3.982 22.378,5.761 34.628,5.337c12.251,-0.423 23.987,-3.252 35.208,-8.483c11.222,-5.231 20.91,-12.392 29.065,-21.483c8.155,-9.09 14.224,-19.052 18.206,-29.887c3.982,-10.835 5.761,-22.378 5.337,-34.628c-0.423,-12.251 -3.252,-23.987 -8.483,-35.208c-5.231,-11.222 -12.403,-20.932 -21.514,-29.133c-18.397,-16.54 -39.892,-24.365 -64.485,-23.476c-11.268,0.406 -22.983,3.279 -35.145,8.619l0.001,0.001Z" style="fill:url(#_Linear4);fill-rule:nonzero;"/><path d="M586.185,983.643c1.249,-1.02 2.284,-2.273 3.107,-3.759c2.562,-4.631 2.836,-11.211 0.825,-19.741c-2.603,-8.287 -5.39,-13.253 -8.361,-14.896c-0.175,-0.097 -0.306,-0.169 -0.393,-0.217c-2.591,-1.092 -6.594,0.06 -12.009,3.453c-4.495,2.762 -7.662,5.803 -9.499,9.122c-0.435,0.787 -0.803,1.553 -1.102,2.3c-0.067,0.534 -0.158,1.624 -0.27,3.274c-0.144,1.291 -0.432,2.328 -0.867,3.115c-0.048,0.087 -0.121,0.219 -0.217,0.393c-4.798,-3.91 -7.02,-7.421 -6.666,-10.535c-0.128,-1.212 0.315,-2.735 1.331,-4.57c0.725,-1.31 1.794,-2.83 3.207,-4.558c1.936,-2.466 3.362,-4.53 4.281,-6.189c0.676,-1.223 1.121,-2.233 1.333,-3.029c0.395,-1.95 0.152,-3.624 -0.728,-5.024c-0.88,-1.4 -2.202,-2.93 -3.965,-4.591c-1.763,-1.66 -3.058,-3.29 -3.885,-4.888c1.366,-0.613 3.076,-0.866 5.127,-0.758c2.051,0.108 3.716,-0.169 4.995,-0.83c0.959,-0.496 1.874,-1.531 2.744,-3.103c0.242,-0.437 0.531,-0.96 0.87,-1.572c1.641,-3.998 1.33,-7.765 -0.935,-11.301c-1.633,-2.616 -3.936,-4.746 -6.906,-6.388c-1.317,-0.729 -2.75,-1.35 -4.301,-1.866c-3.129,-1.389 -7.106,-1.764 -11.931,-1.125c-5.458,0.745 -10.876,3.025 -16.255,6.838c-5.378,3.814 -9.977,9.171 -13.796,16.073c-0.29,0.524 -0.58,1.048 -0.87,1.572c-4.448,8.038 -7.335,16.653 -8.663,25.845c-1.492,9.901 -1.242,18.712 0.75,26.432c2.585,9.532 7.628,18.428 15.131,26.687c6.176,6.954 13.798,12.941 22.865,17.958c1.832,1.013 3.755,1.963 5.769,2.85c20.164,9.559 40.243,9.829 60.235,0.807c18.542,-8.455 33.468,-22.904 44.779,-43.347c0.821,-1.485 1.668,-3.014 2.537,-4.587c2.756,-4.979 4.883,-9.394 6.381,-13.244c1.499,-3.85 2.651,-8.631 3.459,-14.347c0.809,-5.714 0.5,-11.02 -0.924,-15.916c-1.837,-5.809 -4.03,-9.419 -6.58,-10.83c-0.455,-0.252 -0.936,-0.461 -1.44,-0.626c-1.426,-0.219 -2.358,0.064 -2.793,0.851c-0.097,0.175 -0.217,0.393 -0.362,0.656c-0.338,0.612 -0.65,1.38 -0.934,2.307c-0.284,0.927 -0.596,1.695 -0.934,2.307c-0.145,0.262 -0.266,0.481 -0.362,0.656c-0.603,-0.561 -1.774,-2.465 -3.515,-5.711c-1.576,-2.926 -3.544,-5.041 -5.902,-6.347c-0.262,-0.145 -0.568,-0.314 -0.918,-0.507c-1.194,-0.317 -2.785,-0.485 -4.772,-0.501c-1.988,-0.016 -3.467,-0.178 -4.438,-0.487c4.992,-7.166 11.046,-11.404 18.162,-12.716c6.758,-1.281 13.805,0.107 21.143,4.168c0.437,0.242 0.83,0.459 1.179,0.652c-0.049,0.089 -0.098,0.177 -0.147,0.266c-0.342,0.619 -1.352,0.897 -3.03,0.835c-1.677,-0.062 -2.761,0.35 -3.251,1.234c-0.048,0.087 -0.122,0.22 -0.22,0.397c2.882,1.595 5.718,4.464 8.504,8.605c2.787,4.14 5.01,6.669 6.67,7.588c0.748,0.299 1.315,0.1 1.701,-0.599c0.193,-0.35 0.372,-0.879 0.536,-1.586c0.144,-1.291 0.384,-2.241 0.722,-2.853c0.145,-0.262 0.309,-0.457 0.493,-0.583c2.945,3.34 4.502,6.97 4.673,10.888c0.171,3.918 -0.557,8.792 -2.187,14.623c-0.058,0.311 -0.28,1.072 -0.665,2.285c-0.385,1.212 -0.612,2.086 -0.68,2.619c-0.067,0.534 -0.131,1.269 -0.192,2.204c-0.061,0.936 0.015,1.777 0.23,2.524c0.215,0.746 0.575,1.487 1.08,2.223c0.787,0.435 1.646,0.169 2.581,-0.797c0.934,-0.966 1.6,-1.396 1.998,-1.291c2.269,5.592 0.939,12.843 -3.992,21.754c-0.531,0.96 -1.625,2.525 -3.279,4.689c-1.084,1.34 -1.94,2.578 -2.568,3.714c-0.338,0.612 -0.608,1.203 -0.812,1.776c-0.599,1.494 -0.528,3.017 0.212,4.568c0.175,0.097 0.35,0.193 0.524,0.29c0.787,0.435 1.615,0.381 2.487,-0.164c1.143,-0.622 2.065,-0.741 2.763,-0.354c-0.017,1.475 -0.581,3.216 -1.693,5.225c-0.435,0.787 -0.916,1.547 -1.44,2.284c-2.106,3.171 -4.161,5.828 -6.167,7.97c-2.005,2.143 -4.294,4.641 -6.87,7.496c-2.574,2.855 -4.48,5.082 -5.715,6.679c-0.58,1.048 -1.112,2.009 -1.595,2.882c-2.272,4.106 -2.413,6.938 -0.422,8.496c0.087,0.048 0.175,0.097 0.262,0.145c1.048,0.58 2.284,0.408 3.708,-0.515c1.608,-1.05 2.961,-1.329 4.057,-0.836c-0.444,1.01 -0.909,1.951 -1.392,2.825c-2.465,4.456 -5.442,7.772 -8.929,9.951c-4.175,2.596 -9.959,4.646 -17.351,6.147c-7.392,1.501 -12.154,2.632 -14.287,3.392l-1.498,0.541c-1.047,0.447 -1.638,0.691 -1.774,0.73c-0.136,0.039 -0.646,0.242 -1.533,0.606c-0.887,0.365 -1.458,0.676 -1.715,0.934c-0.256,0.258 -0.741,0.617 -1.453,1.079c-0.712,0.462 -1.211,0.899 -1.496,1.311c-0.285,0.413 -0.597,0.925 -0.935,1.537c-0.184,0.127 -0.3,0.233 -0.349,0.321c-0.242,0.437 -0.42,0.966 -0.536,1.586c-0.115,0.621 -0.236,1.354 -0.36,2.197c0.175,0.097 0.35,0.193 0.524,0.29c0.874,0.483 2.154,0.85 3.842,1.098c0.98,0.085 1.862,0.346 2.649,0.781c0.524,0.29 1,0.667 1.427,1.132c-0.145,0.262 -0.266,0.481 -0.362,0.656c-1.45,2.621 -5.002,4.194 -10.654,4.717c-3.102,0.451 -7.625,0.374 -13.566,-0.231c-5.941,-0.606 -10.366,-0.858 -13.275,-0.756c-6.789,-0.105 -10.787,0.935 -11.996,3.119c-0.048,0.087 -0.097,0.175 -0.145,0.262c-0.501,1.319 -0.544,2.323 -0.125,3.011c0.38,0.552 1.18,1.166 2.403,1.844c0.175,0.097 3.101,1.716 3.538,1.958c-2.482,4.487 -8.995,5.222 -19.536,2.207c-1.501,-0.38 -3.214,-1.102 -5.136,-2.165c-3.582,-1.982 -7.742,-5.083 -12.482,-9.303c-1.039,-0.803 -2.306,-2.019 -3.803,-3.645c-1.496,-1.626 -2.74,-2.885 -3.73,-3.776c-0.776,-0.658 -1.646,-1.253 -2.606,-1.785c-0.35,-0.193 -0.743,-0.411 -1.179,-0.652c-1.533,-0.735 -3.154,-1.003 -4.86,-0.806c-1.415,0.7 -2.388,1.531 -2.919,2.493c-0.145,0.262 -0.246,0.549 -0.304,0.859c-0.415,1.368 -0.384,2.498 0.093,3.39c0.476,0.891 0.997,2.063 1.562,3.517c0.565,1.454 0.829,2.627 0.791,3.519c-1.55,0.74 -3.461,0.481 -5.733,-0.775c-1.223,-0.676 -2.481,-1.601 -3.773,-2.772c-1.922,-1.064 -3.692,-2.505 -5.311,-4.324c-1.618,-1.818 -3.371,-4.117 -5.259,-6.892c-1.889,-2.774 -3.385,-4.813 -4.489,-6.116c-6.316,-7.765 -11.57,-12.808 -15.764,-15.128c-0.714,-0.395 -1.407,-0.721 -2.08,-0.979c-2.69,-1.032 -4.693,-0.886 -6.01,0.441c-0.242,0.437 -0.459,0.83 -0.652,1.179c-0.773,1.398 -0.746,2.896 0.081,4.495c1.08,1.967 1.305,3.519 0.677,4.654c0,0 -0.024,0.044 -0.072,0.131c-4.106,-2.272 -7.575,-5.076 -10.408,-8.413c-2.833,-3.336 -5.026,-7.26 -6.58,-11.771c-1.554,-4.511 -2.655,-8.401 -3.3,-11.668c-0.645,-3.267 -1.259,-7.572 -1.84,-12.915c-0.099,-0.853 -0.158,-2.655 -0.176,-5.404c-0.02,-2.749 -0.128,-4.977 -0.324,-6.684c-0.197,-1.707 -0.606,-3.131 -1.23,-4.274c-0.691,-1.638 -1.867,-2.916 -3.527,-3.835c-0.699,-0.386 -1.446,-0.686 -2.242,-0.898c-2.824,-0.878 -5.082,-0.301 -6.776,1.728c-0.184,0.127 -0.324,0.277 -0.421,0.452c-0.386,0.699 -0.72,1.713 -0.998,3.042c-0.337,1.639 -0.635,2.901 -0.896,3.784c-0.009,0.223 -0.038,0.378 -0.086,0.466c-0.386,0.699 -1.147,1.248 -2.281,1.647c-1.68,-1.5 -2.92,-3.384 -3.719,-5.652c-0.799,-2.268 -1.234,-4.163 -1.304,-5.686c-0.07,-1.523 -0.079,-3.981 -0.028,-7.375c0.12,-9.29 1.349,-16.256 3.689,-20.896c0.648,-1.582 1.55,-3.421 2.711,-5.518c1.595,-2.882 3.612,-6.218 6.049,-10.003c2.437,-3.787 4.405,-7.034 5.904,-9.742c1.112,-2.009 1.943,-3.718 2.494,-5.124c1.227,-2.631 1.689,-5.114 1.384,-7.45c-0.187,-1.93 -1.286,-3.451 -3.295,-4.562c-0.35,-0.193 -0.767,-0.367 -1.251,-0.521c-1.98,-0.753 -4.337,-0.204 -7.074,1.648c-2.736,1.852 -4.735,2.886 -5.995,3.101c-0.428,-0.465 -0.661,-1.023 -0.702,-1.671c-0.04,-0.65 -0.016,-1.208 0.07,-1.674c0.086,-0.466 0.28,-1.072 0.579,-1.82c0.299,-0.748 0.434,-1.3 0.405,-1.659c0.772,-2.426 1.835,-4.862 3.188,-7.307c1.112,-2.009 2.447,-4.01 4.005,-6c3.357,-4.418 6.98,-7.664 10.865,-9.735c3.575,-2.13 9.354,-4.067 17.337,-5.812c7.984,-1.745 13.705,-3.371 17.165,-4.88c5.825,-2.483 9.413,-4.947 10.766,-7.394c1.064,-1.922 0.605,-3.774 -1.377,-5.554c-0.214,-0.232 -0.496,-0.445 -0.844,-0.638c-0.96,-0.531 -2.266,-0.855 -3.914,-0.968c-1.784,-0.075 -3.114,-0.353 -3.988,-0.837c-0.175,-0.097 -0.326,-0.237 -0.452,-0.421c1.927,-2.243 6.102,-4.326 12.528,-6.247c7.31,-1.661 17.183,-0.534 29.623,3.383c5.899,2.123 9.712,2.864 11.438,2.221c1.222,-0.351 2.146,-1.095 2.774,-2.23c0.628,-1.135 0.84,-2.189 0.635,-3.157c-0.205,-0.97 -0.432,-1.694 -0.68,-2.174c-0.248,-0.48 -0.931,-1.257 -2.047,-2.331c-1.117,-1.074 -1.846,-1.82 -2.185,-2.236c2.685,-1.139 5.497,-1.066 8.438,0.219c0.612,0.338 1.223,0.676 1.835,1.016c2.097,1.161 4.049,2.582 5.855,4.267c2.185,2.236 4.764,4.691 7.736,7.363c2.069,1.829 3.933,3.203 5.594,4.121c0.787,0.435 1.509,0.778 2.169,1.029c3.029,1.333 5.937,1.231 8.728,-0.306c1.279,-0.661 2.257,-1.605 2.934,-2.827c0.773,-1.398 1.09,-3.106 0.951,-5.122c-0.299,-4.616 -5.952,-10.483 -16.962,-17.602c0.377,-0.476 0.816,-0.804 1.315,-0.985c0.499,-0.181 0.962,-0.294 1.388,-0.344c0.427,-0.049 0.963,-0.038 1.608,0.033c0.645,0.071 1.123,0.136 1.433,0.194c0.311,0.058 0.829,0.202 1.557,0.434c0.728,0.231 1.135,0.372 1.223,0.42c1.805,0.657 3.581,1.468 5.328,2.435c1.747,0.967 3.509,2.113 5.286,3.439c13.31,8.735 21.805,22.564 25.484,41.487c0.224,1.037 0.934,5.994 2.127,14.87c1.194,8.876 2.482,15.466 3.867,19.77c0.196,0.679 0.804,2.413 1.828,5.205c1.023,2.792 1.579,4.725 1.668,5.802c-0.114,1.648 -1.069,4.458 -2.866,8.428c-1.797,3.969 -2.927,6.682 -3.39,8.138c-0.464,1.455 -0.797,3.039 -1.003,4.752c-0.206,1.712 -0.365,3.65 -0.477,5.812c-0.113,2.162 -0.216,3.845 -0.312,5.048c-0.859,7.74 -1.99,12.878 -3.392,15.411c-0.145,0.262 -0.266,0.481 -0.362,0.656c-0.745,0.728 -1.84,1.521 -3.284,2.376c-1.444,0.856 -2.534,1.537 -3.27,2.042c-0.561,0.603 -1.36,1.53 -2.396,2.782c-1.035,1.253 -1.824,1.958 -2.367,2.113c-1.948,0.634 -4.135,0.565 -6.561,-0.207c-0.883,-0.26 -1.761,-0.633 -2.635,-1.116c-1.398,-0.773 -2.694,-1.833 -3.889,-3.179l-0.006,-0.005Z" style="fill:url(#_Linear5);fill-rule:nonzero;"/><path d="M2094.241,462.548c0.716,-1.445 1.141,-3.014 1.276,-4.707c0.419,-5.275 -2.05,-11.381 -7.408,-18.317c-5.795,-6.471 -10.385,-9.841 -13.77,-10.109c-0.199,-0.016 -0.348,-0.028 -0.448,-0.035c-2.811,0.077 -5.98,2.78 -9.509,8.107c-2.952,4.372 -4.579,8.45 -4.879,12.232c-0.071,0.896 -0.089,1.746 -0.053,2.55c0.16,0.514 0.528,1.544 1.107,3.093c0.402,1.235 0.568,2.299 0.498,3.195c-0.008,0.1 -0.02,0.249 -0.035,0.448c-5.984,-1.577 -9.459,-3.857 -10.423,-6.838c-0.617,-1.051 -0.843,-2.621 -0.677,-4.711c0.118,-1.492 0.465,-3.318 1.036,-5.476c0.744,-3.046 1.19,-5.514 1.341,-7.405c0.111,-1.393 0.099,-2.496 -0.038,-3.309c-0.446,-1.938 -1.36,-3.363 -2.739,-4.274c-1.38,-0.911 -3.215,-1.758 -5.508,-2.542c-2.292,-0.783 -4.145,-1.732 -5.558,-2.846c0.991,-1.123 2.443,-2.06 4.355,-2.809c1.912,-0.749 3.314,-1.69 4.206,-2.821c0.669,-0.848 1.074,-2.168 1.217,-3.96c0.039,-0.498 0.087,-1.094 0.142,-1.791c-0.158,-4.319 -1.998,-7.62 -5.522,-9.904c-2.568,-1.707 -5.546,-2.695 -8.929,-2.963c-1.501,-0.12 -3.062,-0.093 -4.687,0.078c-3.423,0.028 -7.2,1.33 -11.33,3.907c-4.662,2.934 -8.654,7.25 -11.976,12.945c-3.321,5.696 -5.295,12.474 -5.92,20.338c-0.047,0.597 -0.095,1.194 -0.142,1.791c-0.728,9.157 0.203,18.196 2.792,27.115c2.733,9.633 6.602,17.552 11.607,23.759c6.293,7.612 14.562,13.628 24.808,18.048c8.497,3.78 17.913,6.082 28.243,6.903c2.087,0.166 4.231,0.236 6.432,0.211c22.313,0.371 40.707,-7.681 55.184,-24.158c13.39,-15.362 21.01,-34.688 22.862,-57.978c0.134,-1.692 0.273,-3.433 0.415,-5.226c0.452,-5.673 0.564,-10.572 0.338,-14.697c-0.226,-4.125 -1.153,-8.955 -2.78,-14.494c-1.625,-5.538 -4.099,-10.242 -7.419,-14.111c-4.073,-4.53 -7.563,-6.911 -10.468,-7.143c-0.519,-0.041 -1.043,-0.033 -1.57,0.025c-1.389,0.39 -2.121,1.033 -2.191,1.929c-0.016,0.199 -0.035,0.448 -0.059,0.747c-0.055,0.697 -0.021,1.525 0.103,2.487c0.124,0.962 0.158,1.79 0.103,2.487c-0.024,0.299 -0.043,0.548 -0.059,0.747c-0.781,-0.262 -2.634,-1.512 -5.561,-3.748c-2.644,-2.013 -5.311,-3.126 -7.997,-3.34c-0.299,-0.024 -0.647,-0.051 -1.045,-0.083c-1.218,0.204 -2.736,0.709 -4.553,1.516c-1.817,0.807 -3.231,1.27 -4.242,1.391c1.584,-8.588 5.345,-14.95 11.283,-19.085c5.624,-3.96 12.615,-5.608 20.976,-4.942c0.498,0.039 0.946,0.075 1.343,0.107c-0.008,0.101 -0.016,0.202 -0.024,0.303c-0.055,0.705 -0.86,1.376 -2.414,2.013c-1.553,0.637 -2.369,1.459 -2.45,2.467c-0.008,0.1 -0.02,0.25 -0.036,0.452c3.284,0.261 7.051,1.702 11.3,4.321c4.249,2.618 7.319,4.002 9.21,4.153c0.804,-0.037 1.239,-0.452 1.301,-1.249c0.031,-0.398 -0.025,-0.954 -0.167,-1.666c-0.402,-1.235 -0.576,-2.199 -0.521,-2.896c0.024,-0.299 0.093,-0.544 0.208,-0.735c4.062,1.825 6.98,4.487 8.755,7.983c1.775,3.497 3.127,8.236 4.052,14.219c0.076,0.307 0.189,1.092 0.339,2.356c0.15,1.263 0.305,2.153 0.463,2.666c0.16,0.514 0.405,1.209 0.736,2.086c0.331,0.878 0.748,1.612 1.252,2.203c0.504,0.591 1.138,1.117 1.902,1.578c0.896,0.071 1.569,-0.526 2.021,-1.793c0.451,-1.266 0.88,-1.933 1.286,-2.001c4.378,4.155 6.163,11.307 5.355,21.459c-0.087,1.094 -0.437,2.971 -1.048,5.625c-0.433,1.668 -0.702,3.149 -0.804,4.444c-0.055,0.697 -0.057,1.347 -0.006,1.953c0.072,1.608 0.766,2.966 2.08,4.072c0.199,0.016 0.398,0.031 0.597,0.047c0.896,0.071 1.628,-0.321 2.196,-1.178c0.784,-1.039 1.574,-1.528 2.369,-1.464c0.594,1.35 0.8,3.169 0.618,5.458c-0.071,0.896 -0.194,1.787 -0.367,2.675c-0.607,3.758 -1.381,7.027 -2.322,9.806c-0.94,2.78 -1.992,6.001 -3.158,9.665c-1.164,3.663 -1.979,6.479 -2.444,8.444c-0.095,1.194 -0.182,2.289 -0.261,3.284c-0.372,4.678 0.67,7.315 3.127,7.911c0.1,0.008 0.199,0.016 0.299,0.024c1.194,0.095 2.249,-0.572 3.164,-2.002c1.03,-1.621 2.147,-2.433 3.349,-2.438c0.013,1.103 -0.021,2.152 -0.1,3.148c-0.403,5.076 -1.743,9.326 -4.019,12.751c-2.729,4.09 -7.148,8.346 -13.26,12.768c-6.111,4.422 -9.98,7.42 -11.608,8.993l-1.14,1.111c-0.768,0.84 -1.206,1.306 -1.313,1.398c-0.107,0.092 -0.489,0.487 -1.146,1.186c-0.657,0.699 -1.049,1.219 -1.176,1.559c-0.127,0.341 -0.42,0.868 -0.877,1.583c-0.457,0.715 -0.731,1.32 -0.821,1.812c-0.089,0.494 -0.161,1.089 -0.216,1.786c-0.115,0.191 -0.177,0.337 -0.185,0.436c-0.039,0.498 0.017,1.053 0.167,1.666c0.152,0.613 0.345,1.33 0.58,2.149c0.199,0.016 0.398,0.031 0.597,0.047c0.996,0.079 2.313,-0.116 3.952,-0.587c0.928,-0.327 1.839,-0.454 2.735,-0.384c0.597,0.047 1.186,0.194 1.768,0.441c-0.024,0.299 -0.043,0.548 -0.059,0.747c-0.237,2.986 -2.822,5.886 -7.753,8.699c-2.638,1.693 -6.789,3.492 -12.449,5.396c-5.66,1.903 -9.794,3.503 -12.4,4.798c-6.225,2.71 -9.436,5.309 -9.634,7.798c-0.008,0.1 -0.016,0.199 -0.024,0.299c0.089,1.409 0.465,2.341 1.13,2.794c0.574,0.346 1.557,0.574 2.95,0.686c0.199,0.016 3.533,0.281 4.031,0.32c-0.406,5.112 -6.033,8.472 -16.878,10.084c-1.524,0.275 -3.382,0.325 -5.571,0.151c-4.081,-0.324 -9.151,-1.429 -15.211,-3.313c-1.278,-0.302 -2.934,-0.885 -4.969,-1.748c-2.035,-0.863 -3.687,-1.495 -4.957,-1.897c-0.979,-0.278 -2.016,-0.46 -3.111,-0.548c-0.398,-0.031 -0.846,-0.067 -1.343,-0.107c-1.7,-0.036 -3.286,0.39 -4.758,1.274c-0.999,1.223 -1.542,2.381 -1.628,3.476c-0.024,0.299 0.003,0.601 0.079,0.908c0.187,1.417 0.683,2.434 1.486,3.048c0.802,0.615 1.761,1.467 2.876,2.557c1.115,1.091 1.841,2.05 2.175,2.877c-1.106,1.314 -2.953,1.868 -5.541,1.663c-1.393,-0.111 -2.921,-0.433 -4.581,-0.965c-2.19,-0.175 -4.397,-0.755 -6.623,-1.742c-2.225,-0.987 -4.771,-2.355 -7.637,-4.103c-2.866,-1.746 -5.071,-2.983 -6.615,-3.714c-8.96,-4.461 -15.829,-6.881 -20.606,-7.261c-0.813,-0.064 -1.579,-0.075 -2.298,-0.032c-2.876,0.172 -4.639,1.133 -5.291,2.885c-0.039,0.498 -0.075,0.946 -0.107,1.343c-0.126,1.592 0.517,2.946 1.931,4.06c1.796,1.345 2.643,2.664 2.54,3.958c0,0 -0.004,0.05 -0.012,0.149c-4.678,-0.372 -8.996,-1.491 -12.955,-3.359c-3.958,-1.867 -7.578,-4.534 -10.857,-8c-3.279,-3.466 -5.889,-6.553 -7.827,-9.261c-1.938,-2.708 -4.276,-6.374 -7.013,-11c-0.443,-0.736 -1.241,-2.352 -2.393,-4.848c-1.154,-2.495 -2.173,-4.479 -3.058,-5.952c-0.885,-1.473 -1.846,-2.6 -2.886,-3.384c-1.306,-1.206 -2.905,-1.884 -4.796,-2.035c-0.797,-0.063 -1.6,-0.027 -2.413,0.108c-2.934,0.368 -4.752,1.826 -5.456,4.374c-0.115,0.191 -0.181,0.386 -0.197,0.586c-0.063,0.797 0.052,1.857 0.348,3.183c0.37,1.632 0.621,2.904 0.748,3.816c0.084,0.207 0.122,0.36 0.114,0.46c-0.063,0.797 -0.528,1.61 -1.396,2.443c-2.15,-0.671 -4.058,-1.875 -5.722,-3.61c-1.665,-1.735 -2.844,-3.28 -3.537,-4.638c-0.693,-1.358 -1.717,-3.592 -3.073,-6.704c-3.731,-8.509 -5.49,-15.36 -5.277,-20.553c-0.064,-1.708 -0.002,-3.756 0.188,-6.145c0.261,-3.284 0.719,-7.155 1.374,-11.609c0.655,-4.455 1.105,-8.225 1.35,-11.311c0.182,-2.289 0.233,-4.188 0.153,-5.697c0.03,-2.903 -0.576,-5.355 -1.819,-7.356c-0.968,-1.68 -2.597,-2.611 -4.886,-2.792c-0.398,-0.031 -0.85,-0.017 -1.355,0.043c-2.114,0.132 -4.034,1.607 -5.76,4.424c-1.726,2.817 -3.119,4.585 -4.177,5.301c-0.582,-0.246 -1.025,-0.658 -1.33,-1.232c-0.305,-0.575 -0.514,-1.093 -0.628,-1.553c-0.114,-0.46 -0.189,-1.092 -0.225,-1.896c-0.037,-0.804 -0.142,-1.363 -0.317,-1.678c-0.3,-2.528 -0.339,-5.186 -0.117,-7.972c0.182,-2.289 0.571,-4.662 1.168,-7.118c1.232,-5.411 3.188,-9.863 5.87,-13.355c2.375,-3.417 6.837,-7.569 13.385,-12.458c6.549,-4.888 11.086,-8.734 13.613,-11.538c4.278,-4.669 6.527,-8.395 6.748,-11.182c0.175,-2.19 -1.009,-3.687 -3.549,-4.489c-0.291,-0.123 -0.635,-0.2 -1.033,-0.232c-1.094,-0.087 -2.417,0.158 -3.965,0.736c-1.655,0.669 -2.981,0.965 -3.977,0.886c-0.199,-0.016 -0.394,-0.081 -0.586,-0.197c0.827,-2.839 3.769,-6.461 8.827,-10.866c5.97,-4.533 15.426,-7.587 28.373,-9.162c6.25,-0.505 10.028,-1.406 11.333,-2.704c0.967,-0.824 1.502,-1.884 1.605,-3.177c0.103,-1.293 -0.14,-2.34 -0.727,-3.137c-0.587,-0.798 -1.094,-1.364 -1.517,-1.699c-0.424,-0.334 -1.367,-0.76 -2.828,-1.277c-1.461,-0.517 -2.433,-0.894 -2.914,-1.133c1.974,-2.146 4.565,-3.243 7.774,-3.288c0.697,0.055 1.393,0.111 2.09,0.167c2.389,0.19 4.754,0.678 7.095,1.466c2.914,1.133 6.277,2.302 10.088,3.507c2.64,0.81 4.905,1.292 6.797,1.441c0.896,0.071 1.696,0.084 2.401,0.041c3.309,-0.038 5.915,-1.333 7.821,-3.886c0.891,-1.131 1.392,-2.394 1.503,-3.787c0.126,-1.592 -0.291,-3.279 -1.251,-5.057c-2.18,-4.08 -9.753,-7.086 -22.72,-9.018c0.147,-0.59 0.41,-1.069 0.79,-1.44c0.38,-0.371 0.754,-0.666 1.122,-0.887c0.368,-0.221 0.861,-0.432 1.478,-0.634c0.617,-0.202 1.078,-0.34 1.385,-0.415c0.307,-0.076 0.839,-0.158 1.597,-0.249c0.759,-0.09 1.187,-0.131 1.287,-0.123c1.915,-0.148 3.867,-0.143 5.858,0.015c1.991,0.159 4.069,0.474 6.235,0.947c15.73,2.453 29.181,11.535 40.352,27.247c0.633,0.852 3.328,5.072 8.082,12.662c4.756,7.589 8.652,13.057 11.692,16.404c0.459,0.537 1.729,1.865 3.815,3.984c2.085,2.119 3.391,3.65 3.916,4.594c0.577,1.548 0.869,4.501 0.873,8.859c0.004,4.357 0.096,7.294 0.276,8.811c0.179,1.517 0.53,3.097 1.05,4.741c0.52,1.644 1.176,3.474 1.967,5.49c0.791,2.016 1.392,3.591 1.802,4.726c2.416,7.403 3.51,12.549 3.28,15.435c-0.024,0.299 -0.043,0.548 -0.059,0.747c-0.378,0.971 -1.047,2.145 -2.008,3.521c-0.961,1.376 -1.672,2.447 -2.134,3.211c-0.262,0.781 -0.606,1.955 -1.032,3.524c-0.425,1.568 -0.852,2.537 -1.282,2.902c-1.512,1.382 -3.532,2.223 -6.06,2.523c-0.912,0.128 -1.865,0.152 -2.861,0.073c-1.592,-0.126 -3.211,-0.556 -4.855,-1.288l-0.007,-0.002Z" style="fill:url(#_Linear6);fill-rule:nonzero;"/><path d="M6451.449,342.38c-1.499,-0.594 -3.098,-0.888 -4.796,-0.882c-5.292,0.018 -11.173,2.984 -17.643,8.896c-5.97,6.31 -8.949,11.163 -8.937,14.558c0.001,0.2 0.001,0.35 0.002,0.449c0.309,2.795 3.264,5.73 8.865,8.807c4.601,2.581 8.8,3.865 12.594,3.852c0.899,-0.004 1.747,-0.055 2.546,-0.158c0.499,-0.202 1.495,-0.653 2.991,-1.358c1.197,-0.503 2.244,-0.756 3.143,-0.76c0.1,-0 0.25,-0.001 0.449,-0.002c-1.078,6.094 -3.062,9.746 -5.954,10.953c-0.997,0.702 -2.542,1.057 -4.639,1.064c-1.497,0.005 -3.345,-0.189 -5.543,-0.58c-3.097,-0.489 -5.594,-0.73 -7.491,-0.724c-1.397,0.005 -2.496,0.108 -3.294,0.311c-1.895,0.605 -3.239,1.633 -4.033,3.083c-0.794,1.45 -1.486,3.35 -2.078,5.699c-0.591,2.348 -1.383,4.273 -2.377,5.774c-1.201,-0.895 -2.255,-2.264 -3.159,-4.108c-0.905,-1.844 -1.958,-3.163 -3.159,-3.958c-0.9,-0.596 -2.25,-0.891 -4.047,-0.885c-0.499,0.002 -1.098,0.004 -1.797,0.006c-4.291,0.514 -7.429,2.621 -9.414,6.321c-1.489,2.7 -2.228,5.749 -2.215,9.143c0.005,1.505 0.16,3.06 0.465,4.665c0.31,3.409 1.92,7.066 4.829,10.968c3.309,4.404 7.94,8.025 13.89,10.865c5.951,2.839 12.869,4.246 20.757,4.219c0.599,-0.002 1.198,-0.004 1.797,-0.006c9.186,-0.031 18.117,-1.706 26.792,-5.023c9.374,-3.52 16.947,-8.029 22.719,-13.53c7.066,-6.9 12.378,-15.638 15.937,-26.214c3.065,-8.781 4.581,-18.354 4.546,-28.717c-0.007,-2.094 -0.115,-4.236 -0.321,-6.427c-1.473,-22.267 -11.018,-39.933 -28.635,-52.999c-16.416,-12.075 -36.305,-18.073 -59.669,-17.994c-1.697,0.006 -3.444,0.011 -5.242,0.018c-5.691,0.018 -10.582,0.311 -14.675,0.878c-4.092,0.566 -8.83,1.889 -14.214,3.967c-5.384,2.077 -9.868,4.931 -13.45,8.559c-4.178,4.434 -6.263,8.108 -6.254,11.022c0.002,0.52 0.053,1.042 0.155,1.562c0.504,1.352 1.205,2.028 2.104,2.024c0.2,-0.001 0.449,-0.002 0.749,-0.003c0.699,-0.003 1.522,-0.105 2.47,-0.308c0.948,-0.203 1.771,-0.305 2.47,-0.308c0.3,-0.001 0.549,-0.002 0.749,-0.003c-0.197,0.8 -1.289,2.75 -3.275,5.852c-1.788,2.802 -2.677,5.551 -2.668,8.246c0.001,0.3 0.003,0.649 0.004,1.049c0.304,1.197 0.932,2.668 1.887,4.412c0.954,1.744 1.533,3.115 1.737,4.113c-8.69,-0.869 -15.34,-4.092 -19.952,-9.668c-4.411,-5.278 -6.631,-12.109 -6.658,-20.496c-0.002,-0.499 -0.004,-0.949 -0.005,-1.347c0.101,0 0.202,-0.001 0.304,-0.001c0.707,-0.003 1.442,0.743 2.205,2.239c0.763,1.495 1.65,2.241 2.661,2.238c0.1,-0 0.251,-0.001 0.454,-0.001c-0.011,-3.294 1.114,-7.168 3.373,-11.618c2.258,-4.45 3.384,-7.624 3.378,-9.521c-0.103,-0.799 -0.553,-1.197 -1.352,-1.194c-0.4,0.002 -0.948,0.104 -1.646,0.304c-1.197,0.503 -2.144,0.756 -2.843,0.759c-0.3,0.001 -0.55,-0.048 -0.75,-0.147c1.483,-4.199 3.895,-7.327 7.233,-9.385c3.338,-2.058 7.95,-3.796 13.836,-5.213c0.299,-0.101 1.072,-0.278 2.32,-0.533c1.246,-0.254 2.12,-0.482 2.618,-0.682c0.499,-0.202 1.172,-0.503 2.018,-0.906c0.847,-0.403 1.545,-0.879 2.092,-1.43c0.547,-0.551 1.019,-1.227 1.416,-2.026c-0.004,-0.899 -0.654,-1.52 -1.953,-1.866c-1.299,-0.345 -1.999,-0.717 -2.1,-1.116c3.779,-4.706 10.76,-7.076 20.944,-7.109c1.098,-0.004 2.997,0.19 5.693,0.58c1.698,0.294 3.196,0.439 4.495,0.434c0.699,-0.003 1.347,-0.055 1.947,-0.156c1.597,-0.204 2.892,-1.008 3.886,-2.41c-0.001,-0.2 -0.002,-0.4 -0.002,-0.599c-0.004,-0.899 -0.454,-1.596 -1.355,-2.092c-1.1,-0.695 -1.653,-1.442 -1.655,-2.24c1.296,-0.703 3.092,-1.059 5.388,-1.067c0.899,-0.004 1.797,0.046 2.696,0.145c3.795,0.295 7.117,0.796 9.965,1.504c2.848,0.707 6.145,1.489 9.893,2.349c3.747,0.858 6.62,1.437 8.617,1.738c1.198,-0.004 2.297,-0.007 3.294,-0.011c4.693,-0.016 7.235,-1.272 7.625,-3.769c-0,-0.1 -0.001,-0.2 -0.001,-0.3c-0.004,-1.198 -0.756,-2.194 -2.256,-2.988c-1.7,-0.893 -2.602,-1.939 -2.706,-3.136c1.098,-0.104 2.146,-0.157 3.145,-0.161c5.092,-0.018 9.438,0.967 13.04,2.951c4.301,2.382 8.908,6.434 13.82,12.16c4.912,5.725 8.219,9.333 9.921,10.825l1.202,1.045c0.901,0.696 1.402,1.094 1.502,1.193c0.1,0.099 0.526,0.447 1.276,1.044c0.75,0.597 1.301,0.944 1.651,1.043c0.35,0.099 0.899,0.347 1.65,0.743c0.751,0.397 1.376,0.62 1.874,0.668c0.5,0.048 1.098,0.071 1.798,0.068c0.2,0.099 0.35,0.148 0.45,0.148c0.499,-0.002 1.048,-0.104 1.646,-0.304c0.598,-0.202 1.297,-0.453 2.094,-0.756c-0.001,-0.2 -0.002,-0.4 -0.002,-0.599c-0.004,-0.999 -0.307,-2.296 -0.912,-3.89c-0.403,-0.897 -0.605,-1.795 -0.608,-2.694c-0.002,-0.599 0.096,-1.198 0.293,-1.798c0.3,-0.001 0.549,-0.002 0.749,-0.003c2.996,-0.01 6.099,2.326 9.309,7.007c1.905,2.49 4.04,6.477 6.406,11.96c2.364,5.484 4.3,9.471 5.806,11.962c3.215,5.98 6.071,8.965 8.567,8.957c0.1,-0 0.2,-0.001 0.3,-0.001c1.396,-0.205 2.294,-0.657 2.691,-1.357c0.297,-0.6 0.444,-1.599 0.44,-2.997c-0.001,-0.2 -0.012,-3.544 -0.014,-4.044c5.128,-0.018 8.942,5.312 11.444,15.987c0.4,1.496 0.603,3.343 0.611,5.54c0.014,4.093 -0.668,9.237 -2.045,15.433c-0.195,1.298 -0.64,2.997 -1.331,5.096c-0.692,2.099 -1.185,3.798 -1.481,5.097c-0.196,0.999 -0.292,2.048 -0.289,3.146c0.002,0.4 0.003,0.849 0.005,1.347c0.105,1.697 0.66,3.243 1.663,4.637c1.301,0.894 2.5,1.34 3.599,1.335c0.3,-0.001 0.599,-0.052 0.898,-0.153c1.397,-0.304 2.369,-0.881 2.915,-1.732c0.547,-0.85 1.316,-1.876 2.311,-3.077c0.995,-1.201 1.89,-2.004 2.687,-2.405c1.401,0.994 2.106,2.788 2.115,5.384c0.005,1.397 -0.19,2.947 -0.583,4.645c0.007,2.197 -0.389,4.445 -1.189,6.744c-0.8,2.299 -1.953,4.949 -3.458,7.95c-1.503,3.001 -2.554,5.301 -3.154,6.9c-3.705,9.298 -5.55,16.343 -5.533,21.136c0.003,0.816 0.055,1.58 0.158,2.293c0.409,2.852 1.512,4.53 3.312,5.034c0.499,-0.002 0.949,-0.004 1.347,-0.005c1.597,-0.006 2.893,-0.759 3.887,-2.26c1.192,-1.901 2.437,-2.854 3.734,-2.858c0,0 0.05,-0 0.15,-0.001c0.016,4.693 -0.743,9.088 -2.277,13.188c-1.533,4.099 -3.892,7.926 -7.075,11.481c-3.183,3.554 -6.044,6.411 -8.583,8.565c-2.539,2.155 -5.999,4.788 -10.383,7.898c-0.697,0.502 -2.242,1.431 -4.634,2.786c-2.391,1.356 -4.284,2.536 -5.679,3.539c-1.395,1.003 -2.439,2.054 -3.134,3.156c-1.094,1.402 -1.637,3.051 -1.631,4.948c0.003,0.799 0.106,1.597 0.307,2.395c0.609,2.894 2.212,4.585 4.809,5.076c0.2,0.099 0.4,0.148 0.6,0.147c0.799,-0.003 1.846,-0.205 3.143,-0.61c1.596,-0.504 2.843,-0.858 3.741,-1.061c0.199,-0.101 0.349,-0.151 0.449,-0.152c0.799,-0.003 1.649,0.394 2.55,1.19c-0.491,2.198 -1.533,4.199 -3.125,6.001c-1.592,1.803 -3.034,3.105 -4.33,3.909c-1.296,0.803 -3.438,2.008 -6.428,3.617c-8.172,4.421 -14.854,6.74 -20.046,6.957c-1.697,0.205 -3.743,0.312 -6.139,0.32c-3.294,0.011 -7.19,-0.125 -11.683,-0.41c-4.494,-0.284 -8.289,-0.421 -11.384,-0.411c-2.297,0.007 -4.193,0.114 -5.69,0.318c-2.895,0.209 -5.289,1.016 -7.18,2.42c-1.594,1.104 -2.387,2.804 -2.379,5.1c0.002,0.4 0.053,0.849 0.155,1.347c0.306,2.096 1.935,3.887 4.885,5.375c2.95,1.488 4.827,2.73 5.628,3.725c-0.197,0.6 -0.571,1.076 -1.118,1.427c-0.548,0.352 -1.047,0.602 -1.496,0.754c-0.449,0.152 -1.072,0.278 -1.871,0.381c-0.799,0.103 -1.346,0.254 -1.646,0.454c-2.495,0.508 -5.14,0.766 -7.935,0.775c-2.297,0.007 -4.694,-0.184 -7.191,-0.575c-5.494,-0.78 -10.093,-2.363 -13.795,-4.747c-3.602,-2.085 -8.108,-6.188 -13.521,-12.31c-5.413,-6.123 -9.62,-10.327 -12.623,-12.614c-5.006,-3.877 -8.906,-5.812 -11.701,-5.801c-2.197,0.007 -3.591,1.31 -4.18,3.908c-0.099,0.3 -0.147,0.65 -0.146,1.048c0.004,1.098 0.357,2.395 1.061,3.89c0.804,1.594 1.208,2.891 1.211,3.891c0.001,0.2 -0.048,0.4 -0.147,0.6c-2.897,-0.59 -6.75,-3.222 -11.558,-7.899c-5.011,-5.575 -8.836,-14.747 -11.475,-27.519c-1.019,-6.187 -2.23,-9.877 -3.631,-11.071c-0.901,-0.896 -2.002,-1.341 -3.299,-1.337c-1.297,0.004 -2.321,0.333 -3.067,0.983c-0.747,0.651 -1.269,1.203 -1.567,1.653c-0.298,0.451 -0.645,1.425 -1.039,2.924c-0.394,1.499 -0.69,2.499 -0.888,2.998c-2.302,-1.79 -3.609,-4.281 -3.919,-7.476c-0.003,-0.699 -0.005,-1.397 -0.007,-2.097c-0.008,-2.397 0.283,-4.794 0.875,-7.192c0.888,-2.998 1.776,-6.446 2.662,-10.343c0.589,-2.698 0.882,-4.995 0.875,-6.893c-0.004,-0.899 -0.056,-1.697 -0.158,-2.396c-0.311,-3.294 -1.817,-5.785 -4.518,-7.473c-1.201,-0.795 -2.501,-1.189 -3.898,-1.185c-1.597,0.006 -3.243,0.56 -4.937,1.664c-3.886,2.51 -6.256,10.305 -7.11,23.388c-0.6,-0.098 -1.099,-0.321 -1.5,-0.669c-0.401,-0.348 -0.726,-0.696 -0.977,-1.045c-0.251,-0.349 -0.502,-0.822 -0.754,-1.421c-0.252,-0.598 -0.428,-1.047 -0.528,-1.346c-0.101,-0.299 -0.227,-0.823 -0.38,-1.571c-0.153,-0.748 -0.229,-1.172 -0.229,-1.272c-0.305,-1.896 -0.462,-3.842 -0.469,-5.839c-0.006,-1.997 0.136,-4.094 0.429,-6.292c1.145,-15.879 9.085,-30.034 23.82,-42.465c0.797,-0.701 4.78,-3.735 11.951,-9.1c7.171,-5.366 12.298,-9.701 15.383,-13.007c0.497,-0.501 1.716,-1.878 3.655,-4.131c1.94,-2.253 3.357,-3.681 4.255,-4.283c1.495,-0.703 4.414,-1.238 8.756,-1.602c4.342,-0.364 7.261,-0.698 8.758,-1.003c1.497,-0.304 3.042,-0.784 4.638,-1.438c1.595,-0.654 3.365,-1.459 5.308,-2.414c1.943,-0.955 3.464,-1.684 4.561,-2.187c7.178,-3.02 12.216,-4.535 15.111,-4.544c0.3,-0.001 0.549,-0.002 0.749,-0.003c0.999,0.296 2.224,0.867 3.675,1.71c1.451,0.844 2.576,1.465 3.376,1.861c0.8,0.197 1.998,0.442 3.597,0.737c1.598,0.294 2.598,0.64 2.998,1.038c1.503,1.393 2.507,3.336 3.015,5.831c0.203,0.898 0.305,1.846 0.309,2.845c0.006,1.597 -0.289,3.246 -0.882,4.945l-0.001,0.007Z" style="fill:url(#_Linear7);fill-rule:nonzero;"/><path d="M3476.262,594.669c1.254,-1.015 2.294,-2.263 3.123,-3.745c2.582,-4.619 2.886,-11.199 0.911,-19.737c-2.567,-8.299 -5.332,-13.276 -8.295,-14.933c-0.174,-0.097 -0.305,-0.17 -0.392,-0.219c-2.587,-1.103 -6.594,0.031 -12.024,3.4c-4.507,2.742 -7.687,5.769 -9.538,9.081c-0.438,0.785 -0.81,1.549 -1.112,2.296c-0.069,0.533 -0.165,1.623 -0.285,3.272c-0.149,1.29 -0.443,2.326 -0.881,3.111c-0.049,0.087 -0.122,0.218 -0.219,0.392c-4.78,-3.931 -6.987,-7.452 -6.619,-10.564c-0.122,-1.213 0.327,-2.734 1.351,-4.564c0.73,-1.307 1.807,-2.822 3.227,-4.544c1.947,-2.458 3.382,-4.515 4.308,-6.17c0.682,-1.22 1.131,-2.228 1.346,-3.023c0.403,-1.948 0.168,-3.624 -0.706,-5.027c-0.874,-1.404 -2.189,-2.939 -3.945,-4.608c-1.756,-1.667 -3.044,-3.303 -3.864,-4.905c1.369,-0.607 3.079,-0.853 5.13,-0.735c2.05,0.117 3.717,-0.153 4.999,-0.809c0.961,-0.492 1.88,-1.523 2.758,-3.091c0.243,-0.436 0.536,-0.958 0.876,-1.569c1.659,-3.991 1.364,-7.759 -0.886,-11.305c-1.622,-2.623 -3.915,-4.763 -6.878,-6.419c-1.314,-0.735 -2.744,-1.362 -4.292,-1.885c-3.122,-1.403 -7.098,-1.796 -11.926,-1.177c-5.461,0.721 -10.89,2.977 -16.285,6.767c-5.395,3.79 -10.017,9.127 -13.866,16.012c-0.292,0.523 -0.584,1.045 -0.876,1.569c-4.483,8.018 -7.408,16.621 -8.777,25.807c-1.535,9.894 -1.324,18.706 0.634,26.435c2.543,9.543 7.547,18.461 15.014,26.754c6.145,6.981 13.741,13.002 22.786,18.059c1.828,1.021 3.747,1.98 5.757,2.876c20.122,9.648 40.199,10.005 60.231,1.072c18.578,-8.374 33.568,-22.757 44.969,-43.15c0.828,-1.481 1.681,-3.006 2.557,-4.576c2.778,-4.967 4.924,-9.372 6.439,-13.215c1.516,-3.843 2.689,-8.62 3.522,-14.331c0.834,-5.711 0.549,-11.018 -0.854,-15.919c-1.811,-5.817 -3.989,-9.437 -6.533,-10.859c-0.454,-0.254 -0.934,-0.465 -1.437,-0.632c-1.425,-0.225 -2.358,0.054 -2.796,0.839c-0.097,0.174 -0.219,0.392 -0.365,0.654c-0.341,0.61 -0.656,1.377 -0.944,2.303c-0.288,0.926 -0.603,1.693 -0.944,2.303c-0.146,0.262 -0.268,0.48 -0.365,0.654c-0.6,-0.564 -1.763,-2.473 -3.49,-5.726c-1.563,-2.933 -3.522,-5.057 -5.874,-6.373c-0.262,-0.146 -0.567,-0.317 -0.916,-0.511c-1.193,-0.323 -2.783,-0.498 -4.77,-0.522c-1.987,-0.025 -3.466,-0.194 -4.435,-0.506c5.023,-7.144 11.096,-11.356 18.218,-12.636c6.763,-1.252 13.804,0.168 21.125,4.261c0.436,0.243 0.828,0.463 1.176,0.657c-0.05,0.088 -0.099,0.177 -0.148,0.265c-0.344,0.617 -1.355,0.891 -3.033,0.822c-1.677,-0.069 -2.762,0.338 -3.256,1.22c-0.049,0.087 -0.123,0.219 -0.221,0.396c2.875,1.608 5.698,4.489 8.466,8.642c2.769,4.152 4.981,6.691 6.637,7.617c0.746,0.302 1.314,0.106 1.704,-0.592c0.195,-0.349 0.375,-0.877 0.543,-1.584c0.149,-1.29 0.394,-2.239 0.735,-2.849c0.146,-0.262 0.311,-0.455 0.496,-0.581c2.93,3.353 4.471,6.99 4.625,10.908c0.154,3.918 -0.595,8.79 -2.251,14.613c-0.059,0.31 -0.284,1.071 -0.675,2.283c-0.391,1.211 -0.621,2.084 -0.691,2.616c-0.069,0.533 -0.137,1.268 -0.202,2.203c-0.065,0.936 0.007,1.777 0.219,2.525c0.212,0.747 0.569,1.49 1.07,2.228c0.785,0.438 1.645,0.176 2.585,-0.786c0.938,-0.962 1.606,-1.389 2.004,-1.282c2.245,5.602 0.882,12.847 -4.088,21.736c-0.536,0.958 -1.636,2.518 -3.3,4.675c-1.089,1.335 -1.952,2.569 -2.585,3.703c-0.341,0.61 -0.614,1.2 -0.82,1.772c-0.606,1.491 -0.541,3.015 0.192,4.568c0.174,0.097 0.349,0.195 0.523,0.292c0.785,0.438 1.613,0.388 2.487,-0.154c1.146,-0.617 2.068,-0.732 2.764,-0.342c-0.024,1.474 -0.595,3.213 -1.716,5.218c-0.438,0.785 -0.922,1.543 -1.45,2.278c-2.12,3.162 -4.187,5.81 -6.202,7.943c-2.014,2.134 -4.314,4.622 -6.903,7.466c-2.587,2.844 -4.502,5.062 -5.745,6.654c-0.584,1.045 -1.121,2.005 -1.608,2.875c-2.29,4.096 -2.444,6.927 -0.459,8.494c0.087,0.049 0.174,0.097 0.262,0.146c1.045,0.584 2.283,0.418 3.711,-0.499c1.613,-1.043 2.966,-1.315 4.06,-0.818c-0.448,1.008 -0.917,1.947 -1.404,2.819c-2.484,4.445 -5.476,7.748 -8.973,9.911c-4.187,2.578 -9.979,4.602 -17.378,6.071c-7.399,1.469 -12.166,2.578 -14.302,3.329l-1.5,0.534c-1.049,0.443 -1.641,0.684 -1.777,0.723c-0.136,0.039 -0.647,0.239 -1.536,0.599c-0.888,0.361 -1.461,0.67 -1.719,0.926c-0.258,0.257 -0.743,0.613 -1.457,1.073c-0.714,0.459 -1.215,0.894 -1.502,1.305c-0.287,0.412 -0.601,0.922 -0.942,1.533c-0.185,0.126 -0.301,0.232 -0.35,0.319c-0.243,0.436 -0.424,0.964 -0.543,1.584c-0.118,0.621 -0.242,1.353 -0.37,2.195c0.174,0.097 0.349,0.195 0.523,0.292c0.872,0.487 2.151,0.859 3.837,1.115c0.98,0.089 1.861,0.354 2.645,0.793c0.523,0.292 0.997,0.672 1.422,1.138c-0.146,0.262 -0.268,0.48 -0.365,0.654c-1.462,2.615 -5.021,4.172 -10.675,4.67c-3.104,0.437 -7.626,0.34 -13.565,-0.291c-5.938,-0.632 -10.362,-0.904 -13.271,-0.814c-6.788,-0.134 -10.791,0.888 -12.009,3.067c-0.049,0.087 -0.097,0.174 -0.146,0.262c-0.507,1.317 -0.554,2.321 -0.139,3.011c0.377,0.554 1.175,1.171 2.395,1.854c0.174,0.097 3.093,1.73 3.529,1.973c-2.502,4.476 -9.018,5.182 -19.546,2.121c-1.499,-0.386 -3.209,-1.116 -5.126,-2.187c-3.573,-1.998 -7.72,-5.117 -12.441,-9.358c-1.035,-0.807 -2.297,-2.029 -3.787,-3.662c-1.489,-1.633 -2.727,-2.897 -3.714,-3.793c-0.774,-0.661 -1.64,-1.26 -2.599,-1.797c-0.349,-0.195 -0.741,-0.414 -1.176,-0.657c-1.53,-0.742 -3.149,-1.017 -4.856,-0.828c-1.418,0.694 -2.395,1.52 -2.93,2.48c-0.146,0.262 -0.249,0.548 -0.307,0.858c-0.421,1.366 -0.395,2.497 0.078,3.39c0.472,0.894 0.988,2.068 1.547,3.524c0.558,1.456 0.818,2.631 0.776,3.522c-1.554,0.733 -3.463,0.466 -5.729,-0.8c-1.22,-0.682 -2.474,-1.612 -3.761,-2.789c-1.917,-1.072 -3.681,-2.521 -5.292,-4.347c-1.61,-1.826 -3.353,-4.131 -5.228,-6.915c-1.876,-2.783 -3.364,-4.827 -4.462,-6.135c-6.282,-7.793 -11.514,-12.858 -15.697,-15.197c-0.713,-0.398 -1.404,-0.727 -2.075,-0.988c-2.686,-1.044 -4.689,-0.906 -6.012,0.414c-0.243,0.436 -0.463,0.828 -0.657,1.176c-0.779,1.394 -0.759,2.893 0.061,4.495c1.071,1.972 1.29,3.524 0.657,4.657c0,0 -0.024,0.044 -0.073,0.131c-4.096,-2.29 -7.553,-5.109 -10.371,-8.458c-2.818,-3.348 -4.995,-7.282 -6.529,-11.8c-1.534,-4.518 -2.618,-8.413 -3.249,-11.682c-0.631,-3.269 -1.226,-7.577 -1.784,-12.923c-0.095,-0.854 -0.146,-2.655 -0.152,-5.404c-0.007,-2.749 -0.106,-4.978 -0.295,-6.685c-0.189,-1.708 -0.592,-3.134 -1.211,-4.28c-0.684,-1.641 -1.854,-2.924 -3.51,-3.85c-0.698,-0.39 -1.443,-0.692 -2.238,-0.908c-2.82,-0.89 -5.08,-0.324 -6.783,1.698c-0.185,0.126 -0.326,0.276 -0.423,0.45c-0.39,0.698 -0.728,1.709 -1.012,3.038c-0.344,1.638 -0.648,2.898 -0.913,3.78c-0.01,0.223 -0.04,0.378 -0.088,0.465c-0.39,0.698 -1.152,1.243 -2.288,1.637c-1.674,-1.507 -2.906,-3.397 -3.694,-5.668c-0.789,-2.272 -1.216,-4.168 -1.279,-5.691c-0.063,-1.523 -0.062,-3.981 0.005,-7.375c0.16,-9.29 1.421,-16.25 3.78,-20.88c0.655,-1.579 1.565,-3.414 2.735,-5.506c1.608,-2.875 3.639,-6.202 6.093,-9.977c2.454,-3.776 4.436,-7.014 5.947,-9.716c1.121,-2.005 1.959,-3.709 2.516,-5.113c1.239,-2.625 1.711,-5.106 1.416,-7.444c-0.179,-1.931 -1.271,-3.456 -3.275,-4.576c-0.349,-0.195 -0.766,-0.37 -1.249,-0.527c-1.976,-0.762 -4.337,-0.223 -7.081,1.617c-2.744,1.84 -4.748,2.865 -6.008,3.075c-0.426,-0.467 -0.657,-1.025 -0.694,-1.674c-0.037,-0.65 -0.011,-1.208 0.078,-1.673c0.088,-0.465 0.284,-1.071 0.587,-1.817c0.302,-0.746 0.439,-1.298 0.412,-1.657c0.782,-2.422 1.856,-4.854 3.22,-7.293c1.121,-2.005 2.464,-3.999 4.031,-5.982c3.377,-4.403 7.013,-7.633 10.908,-9.688c3.584,-2.114 9.371,-4.026 17.363,-5.736c7.991,-1.71 13.72,-3.311 17.186,-4.805c5.836,-2.458 9.435,-4.906 10.798,-7.346c1.072,-1.917 0.622,-3.771 -1.352,-5.56c-0.213,-0.233 -0.494,-0.447 -0.841,-0.642c-0.958,-0.536 -2.262,-0.865 -3.91,-0.986c-1.784,-0.083 -3.112,-0.367 -3.984,-0.855c-0.174,-0.097 -0.324,-0.238 -0.45,-0.423c1.936,-2.234 6.121,-4.299 12.555,-6.192c7.317,-1.629 17.185,-0.458 29.608,3.513c5.89,2.149 9.7,2.907 11.428,2.271c1.223,-0.345 2.151,-1.086 2.784,-2.218c0.633,-1.132 0.849,-2.185 0.649,-3.155c-0.2,-0.971 -0.425,-1.696 -0.67,-2.177c-0.246,-0.481 -0.925,-1.261 -2.037,-2.34c-1.112,-1.079 -1.838,-1.828 -2.176,-2.246c2.69,-1.127 5.502,-1.042 8.437,0.256c0.61,0.341 1.22,0.682 1.83,1.024c2.092,1.17 4.037,2.6 5.836,4.293c2.176,2.246 4.744,4.711 7.704,7.396c2.061,1.838 3.918,3.221 5.575,4.146c0.785,0.438 1.506,0.784 2.165,1.039c3.023,1.346 5.932,1.257 8.729,-0.268c1.282,-0.656 2.264,-1.595 2.947,-2.814c0.779,-1.394 1.104,-3.101 0.974,-5.118c-0.279,-4.617 -5.906,-10.509 -16.885,-17.676c0.379,-0.475 0.819,-0.8 1.319,-0.979c0.5,-0.178 0.963,-0.29 1.39,-0.338c0.427,-0.048 0.963,-0.034 1.608,0.04c0.645,0.074 1.122,0.141 1.432,0.201c0.31,0.059 0.828,0.206 1.555,0.44c0.727,0.234 1.134,0.377 1.221,0.425c1.802,0.665 3.574,1.483 5.317,2.458c1.743,0.975 3.5,2.128 5.271,3.462c13.272,8.793 21.705,22.659 25.302,41.599c0.22,1.038 0.908,5.998 2.061,14.879c1.155,8.881 2.414,15.477 3.78,19.787c0.193,0.679 0.793,2.417 1.805,5.213c1.01,2.796 1.558,4.732 1.642,5.809c-0.121,1.648 -1.088,4.454 -2.903,8.415c-1.814,3.961 -2.957,6.669 -3.425,8.123c-0.47,1.453 -0.81,3.035 -1.024,4.747c-0.213,1.711 -0.381,3.648 -0.503,5.81c-0.122,2.162 -0.233,3.844 -0.334,5.047c-0.893,7.736 -2.046,12.869 -3.46,15.396c-0.146,0.262 -0.268,0.48 -0.365,0.654c-0.749,0.725 -1.847,1.512 -3.294,2.362c-1.447,0.849 -2.541,1.526 -3.279,2.027c-0.564,0.6 -1.366,1.524 -2.408,2.772c-1.041,1.248 -1.833,1.95 -2.376,2.103c-1.951,0.625 -4.137,0.547 -6.56,-0.236c-0.882,-0.264 -1.758,-0.64 -2.63,-1.127c-1.394,-0.779 -2.686,-1.845 -3.875,-3.196l-0.006,-0.005Z" style="fill:url(#_Linear8);fill-rule:nonzero;"/><path d="M2295.841,1028.744c-0.231,-1.597 -0.772,-3.129 -1.622,-4.599c-2.65,-4.58 -8.149,-8.205 -16.499,-10.872c-8.445,-2.036 -14.136,-2.204 -17.075,-0.504c-0.173,0.1 -0.303,0.175 -0.389,0.225c-2.269,1.66 -3.345,5.683 -3.224,12.074c0.053,5.276 1.029,9.555 2.93,12.84c0.45,0.778 0.918,1.487 1.404,2.129c0.423,0.332 1.311,0.972 2.666,1.917c1.032,0.787 1.774,1.57 2.223,2.348c0.049,0.086 0.125,0.216 0.225,0.389c-5.822,2.099 -9.976,2.196 -12.464,0.289c-1.105,-0.514 -2.182,-1.679 -3.232,-3.494c-0.75,-1.296 -1.502,-2.995 -2.257,-5.097c-1.118,-2.93 -2.152,-5.215 -3.102,-6.856c-0.7,-1.21 -1.337,-2.111 -1.909,-2.702c-1.469,-1.342 -3.03,-1.997 -4.683,-1.962c-1.653,0.033 -3.645,0.378 -5.977,1.035c-2.331,0.657 -4.395,0.927 -6.19,0.813c0.178,-1.487 0.841,-3.083 1.99,-4.785c1.149,-1.702 1.769,-3.272 1.86,-4.71c0.069,-1.078 -0.347,-2.395 -1.247,-3.95c-0.25,-0.432 -0.55,-0.951 -0.899,-1.555c-2.582,-3.467 -5.972,-5.139 -10.169,-5.017c-3.084,0.054 -6.094,0.931 -9.033,2.631c-1.303,0.753 -2.574,1.662 -3.814,2.726c-2.802,1.967 -5.171,5.183 -7.108,9.649c-2.172,5.063 -3.008,10.881 -2.509,17.456c0.499,6.575 2.725,13.275 6.675,20.102c0.3,0.519 0.6,1.037 0.899,1.555c4.6,7.951 10.498,14.863 17.694,20.735c7.719,6.377 15.4,10.699 23.045,12.968c9.502,2.693 19.725,2.949 30.668,0.772c9.142,-1.713 18.198,-5.164 27.169,-10.353c1.813,-1.048 3.617,-2.207 5.414,-3.478c18.578,-12.363 29.148,-29.435 31.709,-51.219c2.299,-20.247 -2.401,-40.483 -14.099,-60.706c-0.85,-1.469 -1.725,-2.981 -2.625,-4.538c-2.85,-4.926 -5.538,-9.022 -8.066,-12.29c-2.528,-3.267 -6.034,-6.717 -10.518,-10.353c-4.482,-3.636 -9.189,-6.104 -14.119,-7.404c-5.926,-1.417 -10.15,-1.395 -12.672,0.064c-0.451,0.261 -0.878,0.565 -1.278,0.912c-0.922,1.11 -1.158,2.054 -0.709,2.832c0.1,0.173 0.225,0.389 0.375,0.649c0.35,0.605 0.849,1.268 1.496,1.989c0.648,0.721 1.147,1.384 1.496,1.989c0.15,0.259 0.275,0.475 0.375,0.649c-0.791,0.227 -3.026,0.252 -6.706,0.072c-3.32,-0.155 -6.147,0.442 -8.481,1.791c-0.259,0.15 -0.561,0.326 -0.908,0.524c-0.887,0.859 -1.85,2.137 -2.887,3.833c-1.037,1.697 -1.938,2.88 -2.703,3.553c-3.571,-7.969 -4.088,-15.342 -1.548,-22.116c2.381,-6.453 7.2,-11.778 14.461,-15.979c0.432,-0.25 0.821,-0.475 1.166,-0.675c0.051,0.087 0.101,0.176 0.152,0.263c0.354,0.612 0.072,1.621 -0.844,3.027c-0.917,1.407 -1.121,2.547 -0.615,3.422c0.049,0.086 0.125,0.217 0.228,0.393c2.853,-1.649 6.77,-2.603 11.755,-2.859c4.984,-0.258 8.298,-0.862 9.939,-1.81c0.642,-0.487 0.763,-1.075 0.362,-1.767c-0.2,-0.346 -0.561,-0.771 -1.085,-1.276c-1.032,-0.787 -1.723,-1.483 -2.073,-2.088c-0.15,-0.259 -0.232,-0.5 -0.245,-0.723c4.38,-0.804 8.293,-0.27 11.739,1.6c3.447,1.87 7.25,5.005 11.41,9.404c0.237,0.209 0.775,0.791 1.616,1.747c0.841,0.956 1.473,1.599 1.896,1.931c0.423,0.332 1.019,0.766 1.79,1.3c0.771,0.535 1.531,0.902 2.282,1.102c0.75,0.2 1.571,0.274 2.463,0.219c0.778,-0.45 0.993,-1.324 0.645,-2.622c-0.347,-1.299 -0.374,-2.091 -0.078,-2.378c5.962,0.934 11.493,5.809 16.593,14.624c0.55,0.951 1.327,2.693 2.331,5.227c0.591,1.62 1.211,2.991 1.861,4.114c0.35,0.605 0.718,1.142 1.104,1.61c0.973,1.282 2.314,2.006 4.025,2.17c0.173,-0.1 0.346,-0.2 0.519,-0.3c0.778,-0.45 1.158,-1.189 1.14,-2.216c0.055,-1.301 0.428,-2.151 1.119,-2.551c1.255,0.774 2.457,2.154 3.607,4.142c0.45,0.778 0.856,1.582 1.216,2.411c1.634,3.438 2.853,6.568 3.657,9.39c0.805,2.821 1.768,6.071 2.888,9.749c1.121,3.677 2.049,6.456 2.784,8.339c0.6,1.037 1.15,1.988 1.649,2.853c2.35,4.061 4.706,5.641 7.066,4.737c0.086,-0.049 0.173,-0.1 0.259,-0.15c1.037,-0.6 1.526,-1.748 1.468,-3.445c-0.072,-1.92 0.385,-3.222 1.372,-3.908c0.636,0.901 1.204,1.783 1.705,2.648c2.55,4.408 3.86,8.667 3.931,12.779c0.076,4.916 -1.147,10.929 -3.666,18.039c-2.519,7.11 -4.003,11.774 -4.449,13.994l-0.307,1.562c-0.155,1.128 -0.251,1.76 -0.288,1.897c-0.037,0.137 -0.127,0.679 -0.27,1.626c-0.144,0.948 -0.171,1.599 -0.083,1.951c0.089,0.352 0.147,0.952 0.177,1.801c0.029,0.848 0.147,1.501 0.354,1.958c0.207,0.457 0.485,0.988 0.835,1.593c0.014,0.223 0.045,0.377 0.095,0.464c0.25,0.432 0.612,0.857 1.085,1.276c0.473,0.419 1.039,0.898 1.698,1.44c0.173,-0.1 0.346,-0.2 0.519,-0.3c0.864,-0.5 1.838,-1.409 2.92,-2.728c0.577,-0.796 1.256,-1.418 2.034,-1.868c0.519,-0.3 1.087,-0.513 1.706,-0.641c0.15,0.259 0.275,0.475 0.375,0.649c1.5,2.593 1.019,6.447 -1.444,11.562c-1.211,2.892 -3.605,6.729 -7.183,11.509c-3.578,4.78 -6.073,8.445 -7.483,10.99c-3.585,5.766 -4.754,9.729 -3.504,11.889c0.049,0.086 0.1,0.173 0.15,0.259c0.873,1.11 1.712,1.663 2.517,1.659c0.668,-0.04 1.608,-0.411 2.818,-1.111c0.173,-0.1 3.068,-1.775 3.5,-2.024c2.567,4.439 -0.155,10.4 -8.168,17.884c-1.098,1.092 -2.598,2.188 -4.5,3.287c-3.544,2.05 -8.345,4.02 -14.403,5.91c-1.224,0.477 -2.918,0.939 -5.083,1.384c-2.165,0.445 -3.884,0.863 -5.158,1.254c-0.964,0.327 -1.922,0.766 -2.872,1.316c-0.346,0.2 -0.735,0.424 -1.166,0.675c-1.419,0.936 -2.483,2.187 -3.194,3.751c-0.128,1.573 0.083,2.835 0.633,3.787c0.15,0.259 0.343,0.493 0.58,0.703c0.959,1.061 1.944,1.615 2.954,1.666c1.01,0.051 2.283,0.208 3.82,0.472c1.537,0.265 2.679,0.642 3.424,1.133c-0.164,1.71 -1.37,3.215 -3.617,4.515c-1.21,0.7 -2.65,1.302 -4.319,1.806c-1.901,1.1 -4.049,1.875 -6.441,2.326c-2.392,0.451 -5.265,0.769 -8.615,0.959c-3.351,0.19 -5.868,0.423 -7.555,0.699c-9.908,1.416 -16.937,3.323 -21.086,5.723c-0.706,0.408 -1.343,0.835 -1.911,1.278c-2.269,1.775 -3.176,3.567 -2.717,5.378c0.25,0.432 0.475,0.821 0.675,1.166c0.799,1.383 2.098,2.131 3.895,2.245c2.242,0.087 3.688,0.692 4.337,1.816c0,0 0.025,0.044 0.075,0.13c-4.061,2.35 -8.252,3.88 -12.571,4.591c-4.318,0.711 -8.812,0.571 -13.479,-0.421c-4.668,-0.99 -8.569,-2.051 -11.701,-3.179c-3.133,-1.128 -7.139,-2.819 -12.019,-5.072c-0.782,-0.355 -2.357,-1.232 -4.723,-2.632c-2.367,-1.399 -4.332,-2.453 -5.896,-3.164c-1.564,-0.71 -2.996,-1.093 -4.297,-1.148c-1.76,-0.251 -3.461,0.099 -5.104,1.049c-0.691,0.4 -1.333,0.887 -1.924,1.46c-2.206,1.968 -2.876,4.202 -2.008,6.699c0.014,0.223 0.07,0.421 0.17,0.594c0.4,0.691 1.097,1.499 2.093,2.422c1.232,1.133 2.16,2.038 2.782,2.716c0.186,0.123 0.305,0.228 0.354,0.314c0.4,0.691 0.48,1.626 0.238,2.804c-2.151,0.668 -4.405,0.76 -6.761,0.277c-2.356,-0.483 -4.204,-1.086 -5.545,-1.809c-1.341,-0.723 -3.453,-1.982 -6.337,-3.775c-7.902,-4.887 -13.24,-9.527 -16.013,-13.921c-1.023,-1.369 -2.134,-3.091 -3.334,-5.166c-1.649,-2.853 -3.47,-6.297 -5.461,-10.337c-1.991,-4.04 -3.761,-7.398 -5.311,-10.077c-1.15,-1.988 -2.187,-3.579 -3.109,-4.776c-1.623,-2.406 -3.514,-4.081 -5.674,-5.023c-1.751,-0.833 -3.62,-0.674 -5.607,0.476c-0.346,0.2 -0.71,0.468 -1.092,0.805c-1.664,1.309 -2.409,3.614 -2.229,6.913c0.178,3.3 0.036,5.545 -0.429,6.737c-0.619,0.128 -1.217,0.04 -1.794,-0.26c-0.577,-0.3 -1.043,-0.607 -1.399,-0.921c-0.354,-0.314 -0.775,-0.791 -1.262,-1.433c-0.487,-0.642 -0.891,-1.042 -1.213,-1.201c-1.682,-1.911 -3.223,-4.076 -4.623,-6.495c-1.15,-1.988 -2.177,-4.161 -3.081,-6.523c-2.059,-5.153 -2.976,-9.929 -2.751,-14.327c0.015,-4.161 1.33,-10.113 3.945,-17.855c2.616,-7.742 4.167,-13.484 4.655,-17.227c0.871,-6.271 0.606,-10.617 -0.794,-13.037c-1.1,-1.901 -2.924,-2.461 -5.47,-1.68c-0.309,0.063 -0.637,0.196 -0.982,0.396c-0.951,0.55 -1.899,1.502 -2.846,2.857c-0.982,1.492 -1.906,2.487 -2.771,2.987c-0.173,0.1 -0.37,0.156 -0.594,0.17c-0.932,-2.807 -0.566,-7.459 1.096,-13.957c2.34,-7.121 8.391,-15.005 18.154,-23.652c4.859,-3.964 7.456,-6.851 7.793,-8.661c0.328,-1.227 0.167,-2.404 -0.483,-3.527c-0.65,-1.124 -1.444,-1.847 -2.38,-2.17c-0.936,-0.323 -1.675,-0.501 -2.213,-0.536c-0.539,-0.035 -1.556,0.151 -3.053,0.554c-1.496,0.404 -2.511,0.645 -3.042,0.722c0.406,-2.888 1.916,-5.261 4.532,-7.12c0.605,-0.35 1.21,-0.7 1.815,-1.05c2.074,-1.2 4.298,-2.141 6.672,-2.821c3.042,-0.722 6.475,-1.669 10.294,-2.841c2.634,-0.832 4.771,-1.722 6.414,-2.672c0.778,-0.45 1.445,-0.894 1.999,-1.33c2.702,-1.909 4.113,-4.456 4.232,-7.639c0.091,-1.437 -0.213,-2.761 -0.913,-3.971c-0.799,-1.383 -2.1,-2.534 -3.9,-3.453c-4.111,-2.121 -12.052,-0.294 -23.823,5.477c-0.214,-0.568 -0.269,-1.113 -0.167,-1.633c0.102,-0.521 0.243,-0.977 0.42,-1.368c0.177,-0.391 0.464,-0.844 0.857,-1.361c0.393,-0.516 0.695,-0.893 0.904,-1.128c0.209,-0.237 0.6,-0.607 1.173,-1.111c0.573,-0.505 0.903,-0.782 0.989,-0.832c1.492,-1.209 3.102,-2.314 4.831,-3.314c1.729,-1 3.619,-1.92 5.669,-2.761c14.342,-6.913 30.571,-7.073 48.686,-0.482c1.005,0.342 5.619,2.285 13.843,5.834c8.224,3.547 14.536,5.836 18.938,6.866c0.682,0.182 2.483,0.553 5.403,1.113c2.919,0.56 4.863,1.079 5.832,1.557c1.355,0.947 3.271,3.211 5.749,6.797c2.478,3.584 4.22,5.95 5.23,7.097c1.009,1.147 2.195,2.249 3.556,3.306c1.362,1.058 2.941,2.192 4.737,3.402c1.795,1.21 3.185,2.166 4.167,2.866c6.193,4.723 10.014,8.337 11.464,10.843c0.15,0.259 0.275,0.475 0.375,0.649c0.24,1.014 0.357,2.36 0.346,4.038c-0.009,1.678 0.013,2.963 0.067,3.854c0.227,0.791 0.611,1.953 1.151,3.486c0.541,1.533 0.738,2.572 0.592,3.118c-0.46,1.997 -1.645,3.836 -3.556,5.518c-0.677,0.622 -1.449,1.185 -2.313,1.684c-1.383,0.799 -2.958,1.365 -4.729,1.697l0.01,-0.005Z" style="fill:url(#_Linear9);fill-rule:nonzero;"/><path d="M4651.062,510.901c0,0 -5.932,-8.352 -17.795,-25.054l15.177,-17.763l28.95,11.537c0,0 1.557,-1.362 4.672,-4.084c9.964,-6.59 18.047,-10.978 24.249,-13.164c0,0 5.055,-1.46 15.166,-4.378c0,0 2.765,-11.69 8.294,-35.069l23.554,-0.362l12.45,35.459c0,0 4.271,0.957 12.813,2.871c8.543,1.914 15.633,4.952 21.271,9.112c0,0 9.049,-6.517 27.146,-19.553l17.991,15.372l-12.46,30.722c2.703,3.753 5.457,7.486 8.262,11.196c2.805,3.711 5.756,8.596 8.852,14.655c3.096,6.059 4.466,9.528 4.11,10.406c0,0 11.57,2.137 34.709,6.411l1.921,23.114l-32.256,14.005c-0.485,8.122 -1.142,14.094 -1.971,17.916c-0.829,3.822 -2.601,9.631 -5.311,17.427c0,0 -1.332,2.407 -3.997,7.222l20.083,28.979l-15.372,17.991l-32.511,-13.594c0,0 -3.607,2.762 -10.822,8.285c-8.245,5.038 -14.536,8.329 -18.877,9.873c-4.34,1.545 -6.838,2.432 -7.493,2.659c-0.654,0.229 -2.249,0.442 -4.783,0.641c0,0 -1.234,10.897 -3.701,32.69l-23.811,2.506l-14.899,-32.824c-11.371,-1.6 -21.365,-4.313 -29.982,-8.14c-8.615,-3.827 -13.594,-6.184 -14.939,-7.07c0,0 -8.017,5.848 -24.051,17.543l-17.649,-15.079l7.401,-17.192l5.221,-12.336c-0.683,-0.583 -2.123,-2.242 -4.319,-4.974c-2.196,-2.733 -3.559,-4.327 -4.09,-4.781c-0.531,-0.454 -2.242,-3.562 -5.132,-9.325c-2.89,-5.763 -5.208,-12.618 -6.954,-20.565c0,0 -11.824,-2.223 -35.473,-6.669l-1.629,-23.455l33.476,-13.357c-0.012,-0.14 0.358,-3.109 1.107,-8.904c1.736,-12.175 5.845,-22.059 12.331,-29.649c0.389,-0.455 0.745,-0.873 1.07,-1.253l0.001,0.003Zm27.334,-3.634c-16.43,19.845 -23.689,41.943 -21.777,66.296c0.83,11.478 3.913,22.78 9.248,33.904c5.335,11.125 12.557,20.579 21.667,28.362c9.11,7.784 19.707,13.555 31.793,17.315c12.086,3.76 23.885,5.207 35.396,4.339c11.51,-0.868 22.752,-4.035 33.726,-9.5c10.973,-5.465 20.481,-12.903 28.523,-22.317c8.042,-9.413 13.89,-19.946 17.543,-31.599c3.653,-11.653 5.045,-23.236 4.178,-34.746c-0.868,-11.51 -4.035,-22.752 -9.5,-33.726c-5.465,-10.973 -12.903,-20.481 -22.317,-28.523c-9.413,-8.042 -19.964,-13.906 -31.656,-17.591c-23.599,-7.425 -46.403,-5.635 -68.414,5.37c-10.085,5.041 -19.555,12.512 -28.409,22.413l0,0.001Z" style="fill:url(#_Linear10);fill-rule:nonzero;"/><path d="M6501.452,1060.906c0,0 2.938,9.814 8.813,29.44l-20.075,11.952l-23.715,-20.217c0,0 -1.912,0.79 -5.736,2.369c-11.552,3.042 -20.615,4.604 -27.191,4.685c0,0 -5.256,-0.24 -15.768,-0.721c0,0 -6.37,10.184 -19.111,30.552l-22.425,-7.216l-0.412,-37.579c0,0 -3.738,-2.277 -11.213,-6.832c-7.476,-4.555 -13.216,-9.707 -17.221,-15.457c0,0 -10.661,3.269 -31.985,9.806l-12.106,-20.332l21.661,-25.098c-1.355,-4.423 -2.765,-8.841 -4.232,-13.255c-1.467,-4.415 -2.693,-9.987 -3.681,-16.721c-0.987,-6.733 -1.172,-10.458 -0.553,-11.174c0,0 -10.271,-5.737 -30.814,-17.211l5.599,-22.506l35.045,-2.911c3.066,-7.536 5.605,-12.981 7.617,-16.335c2.013,-3.353 5.553,-8.287 10.623,-14.8c0,0 2.035,-1.852 6.104,-5.557l-9.72,-33.891l20.332,-12.106l26.427,23.309c0,0 4.303,-1.458 12.909,-4.374c9.425,-2.126 16.441,-3.223 21.048,-3.293c4.607,-0.07 7.257,-0.108 7.95,-0.114c0.694,-0.006 2.272,0.304 4.735,0.928c0,0 4.665,-9.924 13.997,-29.772l23.355,5.268l3.576,35.868c10.257,5.166 18.851,10.942 25.782,17.331c6.931,6.389 10.89,10.22 11.879,11.491c0,0 9.47,-2.965 28.409,-8.896l11.876,19.946l-12.527,13.907l-8.904,10.007c0.46,0.772 1.292,2.804 2.495,6.097c1.202,3.293 1.982,5.24 2.34,5.841c0.358,0.6 0.98,4.094 1.868,10.48c0.888,6.386 0.883,13.622 -0.014,21.709c0,0 10.485,5.901 31.455,17.702l-5.985,22.736l-35.991,1.907c-0.035,0.137 -1.337,2.83 -3.906,8.078c-5.551,10.974 -12.617,19.015 -21.195,24.124c-0.515,0.306 -0.987,0.588 -1.416,0.843l-0,-0.007Zm-27.054,-5.332c21.93,-13.521 35.897,-32.121 41.902,-55.799c2.897,-11.138 3.605,-22.831 2.123,-35.078c-1.483,-12.249 -5.288,-23.52 -11.417,-33.815c-6.13,-10.294 -14.314,-19.163 -24.554,-26.603c-10.24,-7.441 -20.95,-12.597 -32.131,-15.469c-11.18,-2.872 -22.843,-3.481 -34.99,-1.828c-12.146,1.654 -23.538,5.648 -34.176,11.982c-10.638,6.334 -19.557,14.433 -26.756,24.297c-7.199,9.864 -12.236,20.386 -15.108,31.567c-2.872,11.18 -3.481,22.843 -1.828,34.99c1.654,12.146 5.648,23.538 11.982,34.176c6.334,10.638 14.446,19.579 24.335,26.821c19.968,14.605 42.141,20.229 66.518,16.87c11.17,-1.538 22.536,-5.574 34.099,-12.11Z" style="fill:url(#_Linear11);fill-rule:nonzero;"/><path d="M4200.905,937.522c0.599,-1.498 0.898,-3.095 0.898,-4.793c0,-5.292 -2.946,-11.182 -8.836,-17.673c-6.291,-5.99 -11.133,-8.986 -14.527,-8.986l-0.45,0c-2.796,0.299 -5.741,3.245 -8.836,8.836c-2.596,4.593 -3.893,8.787 -3.893,12.581c0,0.898 0.049,1.747 0.15,2.547c0.2,0.499 0.649,1.498 1.348,2.995c0.499,1.199 0.749,2.246 0.749,3.145l0,0.45c-6.09,-1.098 -9.735,-3.095 -10.933,-5.99c-0.699,-0.998 -1.048,-2.547 -1.048,-4.642c0,-1.498 0.2,-3.345 0.599,-5.542c0.499,-3.095 0.749,-5.591 0.749,-7.488c0,-1.398 -0.1,-2.496 -0.299,-3.295c-0.599,-1.897 -1.623,-3.245 -3.07,-4.044c-1.448,-0.798 -3.345,-1.498 -5.691,-2.097c-2.346,-0.599 -4.268,-1.398 -5.766,-2.396c0.898,-1.199 2.272,-2.246 4.119,-3.145c1.847,-0.898 3.17,-1.947 3.969,-3.145c0.599,-0.898 0.898,-2.246 0.898,-4.044l0,-1.797c-0.499,-4.294 -2.596,-7.438 -6.291,-9.435c-2.696,-1.498 -5.741,-2.246 -9.136,-2.246c-1.506,0 -3.061,0.15 -4.666,0.45c-3.41,0.299 -7.072,1.897 -10.985,4.793c-4.415,3.295 -8.053,7.912 -10.912,13.853c-2.859,5.941 -4.289,12.855 -4.289,20.743l0,1.797c0,9.186 1.645,18.122 4.933,26.808c3.489,9.386 7.973,16.974 13.453,22.765c6.877,7.089 15.597,12.43 26.161,16.025c8.77,3.095 18.338,4.642 28.701,4.642c2.093,0 4.236,-0.1 6.429,-0.299c22.272,-1.398 39.97,-10.883 53.095,-28.456c12.13,-16.375 18.194,-36.243 18.194,-59.608l0,-5.242c0,-5.691 -0.276,-10.583 -0.828,-14.677c-0.552,-4.094 -1.859,-8.836 -3.92,-14.228c-2.059,-5.392 -4.898,-9.885 -8.514,-13.479c-4.42,-4.194 -8.087,-6.291 -11.001,-6.291c-0.521,0 -1.042,0.049 -1.563,0.15c-1.354,0.499 -2.031,1.199 -2.031,2.097l0,0.749c0,0.699 0.1,1.523 0.299,2.471c0.2,0.949 0.299,1.772 0.299,2.471l0,0.749c-0.798,-0.2 -2.746,-1.297 -5.841,-3.295c-2.796,-1.797 -5.542,-2.696 -8.237,-2.696l-1.048,0c-1.199,0.299 -2.671,0.924 -4.418,1.873c-1.747,0.949 -3.121,1.523 -4.119,1.722c0.898,-8.686 4.143,-15.327 9.735,-19.919c5.292,-4.393 12.131,-6.59 20.519,-6.59l1.348,0l0,0.304c0,0.706 -0.749,1.439 -2.246,2.197c-1.498,0.758 -2.246,1.643 -2.246,2.654l0,0.454c3.295,0 7.164,1.138 11.607,3.412c4.443,2.273 7.613,3.409 9.51,3.409c0.798,-0.1 1.199,-0.549 1.199,-1.348c0,-0.399 -0.1,-0.949 -0.299,-1.647c-0.499,-1.199 -0.749,-2.146 -0.749,-2.846c0,-0.299 0.049,-0.549 0.15,-0.749c4.194,1.498 7.314,3.919 9.36,7.264c2.047,3.345 3.769,7.963 5.167,13.853c0.1,0.299 0.275,1.073 0.524,2.321c0.25,1.248 0.474,2.122 0.674,2.621c0.2,0.499 0.499,1.173 0.898,2.022c0.399,0.849 0.874,1.547 1.423,2.097c0.549,0.549 1.223,1.024 2.022,1.423c0.898,0 1.523,-0.649 1.873,-1.947c0.35,-1.297 0.723,-1.997 1.124,-2.097c4.693,3.795 7.039,10.783 7.039,20.967c0,1.098 -0.2,2.995 -0.599,5.691c-0.299,1.698 -0.45,3.195 -0.45,4.493c0,0.699 0.049,1.348 0.15,1.947c0.2,1.598 0.998,2.895 2.396,3.893l0.599,0c0.898,0 1.598,-0.45 2.097,-1.348c0.699,-1.098 1.448,-1.647 2.246,-1.647c0.699,1.297 1.048,3.095 1.048,5.392c0,0.898 -0.052,1.797 -0.154,2.696c-0.307,3.795 -0.82,7.114 -1.538,9.96c-0.717,2.846 -1.51,6.141 -2.382,9.885c-0.871,3.744 -1.46,6.615 -1.767,8.612l0,3.295c0,4.693 1.248,7.238 3.744,7.639l0.299,0c1.199,0 2.197,-0.749 2.995,-2.246c0.898,-1.698 1.947,-2.596 3.145,-2.696c0.1,1.098 0.15,2.146 0.15,3.145c0,5.092 -0.998,9.435 -2.995,13.03c-2.396,4.294 -6.465,8.887 -12.206,13.778c-5.741,4.892 -9.36,8.187 -10.858,9.885l-1.048,1.199c-0.699,0.898 -1.098,1.398 -1.199,1.498c-0.1,0.1 -0.45,0.524 -1.048,1.273c-0.599,0.749 -0.949,1.297 -1.048,1.647c-0.1,0.35 -0.35,0.898 -0.749,1.647c-0.399,0.749 -0.625,1.373 -0.674,1.873c-0.049,0.499 -0.075,1.098 -0.075,1.797c-0.1,0.2 -0.15,0.35 -0.15,0.45c0,0.499 0.1,1.048 0.299,1.647c0.2,0.599 0.45,1.297 0.749,2.097l0.599,0c0.998,0 2.297,-0.299 3.893,-0.898c0.898,-0.399 1.797,-0.599 2.696,-0.599c0.599,0 1.199,0.1 1.797,0.299l0,0.749c0,2.995 -2.346,6.09 -7.039,9.286c-2.496,1.897 -6.49,4.019 -11.982,6.365c-5.491,2.346 -9.486,4.268 -11.982,5.766c-5.99,3.195 -8.986,6.041 -8.986,8.537l0,0.299c0.2,1.398 0.649,2.297 1.348,2.696c0.599,0.299 1.598,0.45 2.995,0.45l4.044,0c0,5.128 -5.342,8.925 -16.025,11.389c-1.498,0.395 -3.345,0.592 -5.542,0.592c-4.094,0 -9.236,-0.699 -15.426,-2.097c-1.297,-0.2 -2.995,-0.649 -5.092,-1.348c-2.097,-0.699 -3.795,-1.199 -5.092,-1.498c-0.998,-0.2 -2.047,-0.299 -3.145,-0.299l-1.348,0c-1.698,0.1 -3.245,0.649 -4.642,1.647c-0.898,1.297 -1.348,2.496 -1.348,3.594c0,0.299 0.049,0.599 0.15,0.898c0.299,1.398 0.874,2.372 1.722,2.92c0.849,0.549 1.873,1.323 3.07,2.321c1.199,0.998 1.997,1.897 2.396,2.696c-0.998,1.398 -2.796,2.097 -5.392,2.097c-1.398,0 -2.946,-0.2 -4.642,-0.599c-2.197,0 -4.443,-0.404 -6.739,-1.212c-2.297,-0.809 -4.942,-1.969 -7.938,-3.484c-2.995,-1.514 -5.292,-2.573 -6.89,-3.178c-9.286,-3.736 -16.325,-5.605 -21.117,-5.605c-0.816,0 -1.58,0.049 -2.294,0.15c-2.854,0.399 -4.535,1.498 -5.045,3.295l0,1.348c0,1.598 0.749,2.895 2.246,3.893c1.897,1.199 2.846,2.447 2.846,3.744l0,0.15c-4.693,0 -9.086,-0.774 -13.179,-2.321c-4.094,-1.547 -7.912,-3.919 -11.457,-7.114c-3.545,-3.195 -6.391,-6.065 -8.537,-8.612c-2.146,-2.547 -4.768,-6.016 -7.863,-10.408c-0.499,-0.699 -1.423,-2.246 -2.771,-4.642c-1.348,-2.396 -2.521,-4.294 -3.52,-5.691c-0.998,-1.398 -2.047,-2.447 -3.145,-3.145c-1.398,-1.098 -3.046,-1.647 -4.942,-1.647c-0.798,0 -1.598,0.1 -2.396,0.299c-2.895,0.599 -4.593,2.197 -5.092,4.793c-0.1,0.2 -0.15,0.399 -0.15,0.599c0,0.798 0.2,1.847 0.599,3.145c0.499,1.598 0.849,2.846 1.048,3.744c0.1,0.2 0.15,0.35 0.15,0.45c0,0.798 -0.399,1.647 -1.199,2.547c-2.197,-0.499 -4.194,-1.547 -5.99,-3.145c-1.797,-1.598 -3.095,-3.046 -3.893,-4.343c-0.798,-1.297 -1.997,-3.445 -3.594,-6.44c-4.393,-8.187 -6.69,-14.877 -6.89,-20.069c-0.2,-1.698 -0.299,-3.744 -0.299,-6.141c0,-3.295 0.15,-7.189 0.45,-11.682c0.299,-4.493 0.45,-8.287 0.45,-11.383c0,-2.297 -0.1,-4.194 -0.299,-5.691c-0.2,-2.895 -0.998,-5.292 -2.396,-7.189c-1.098,-1.598 -2.796,-2.396 -5.092,-2.396c-0.399,0 -0.849,0.049 -1.348,0.15c-2.097,0.299 -3.893,1.922 -5.392,4.868c-1.498,2.946 -2.746,4.817 -3.744,5.617c-0.599,-0.2 -1.073,-0.574 -1.423,-1.124c-0.35,-0.549 -0.599,-1.048 -0.749,-1.498c-0.15,-0.45 -0.275,-1.073 -0.375,-1.873c-0.1,-0.798 -0.25,-1.348 -0.45,-1.647c-0.499,-2.496 -0.749,-5.141 -0.749,-7.938c0,-2.297 0.2,-4.693 0.599,-7.189c0.798,-5.491 2.396,-10.084 4.793,-13.778c2.097,-3.594 6.216,-8.087 12.356,-13.479c6.141,-5.392 10.359,-9.585 12.656,-12.581c3.893,-4.992 5.841,-8.887 5.841,-11.682c0,-2.197 -1.297,-3.594 -3.893,-4.194c-0.299,-0.1 -0.649,-0.15 -1.048,-0.15c-1.098,0 -2.396,0.35 -3.893,1.048c-1.598,0.798 -2.895,1.199 -3.893,1.199c-0.2,0 -0.399,-0.049 -0.599,-0.15c0.599,-2.895 3.245,-6.739 7.938,-11.532c5.591,-4.992 14.777,-8.787 27.557,-11.383c6.19,-0.998 9.885,-2.197 11.082,-3.594c0.898,-0.898 1.348,-1.997 1.348,-3.295c0,-1.297 -0.324,-2.321 -0.973,-3.07c-0.649,-0.749 -1.199,-1.273 -1.647,-1.572c-0.45,-0.299 -1.423,-0.649 -2.92,-1.048c-1.498,-0.399 -2.496,-0.699 -2.995,-0.898c1.797,-2.297 4.294,-3.594 7.488,-3.893l2.097,0c2.396,0 4.793,0.299 7.189,0.898c2.995,0.898 6.44,1.797 10.334,2.696c2.696,0.599 4.992,0.898 6.89,0.898c0.898,0 1.698,-0.049 2.396,-0.15c3.295,-0.299 5.791,-1.797 7.488,-4.493c0.798,-1.199 1.199,-2.496 1.199,-3.893c0,-1.598 -0.549,-3.245 -1.647,-4.942c-2.496,-3.893 -10.284,-6.291 -23.363,-7.189c0.1,-0.599 0.324,-1.098 0.674,-1.498c0.35,-0.399 0.699,-0.723 1.048,-0.973c0.35,-0.25 0.824,-0.499 1.423,-0.749c0.599,-0.25 1.048,-0.424 1.348,-0.524c0.299,-0.1 0.824,-0.224 1.572,-0.375c0.749,-0.15 1.173,-0.224 1.273,-0.224c1.897,-0.299 3.844,-0.45 5.841,-0.45c1.997,0 4.094,0.15 6.291,0.45c15.875,1.199 30.003,9.186 42.384,23.963c0.699,0.798 3.72,4.793 9.061,11.982c5.342,7.189 9.66,12.33 12.955,15.426c0.499,0.499 1.873,1.722 4.119,3.669c2.246,1.947 3.669,3.37 4.268,4.268c0.699,1.498 1.223,4.418 1.572,8.761c0.35,4.343 0.674,7.264 0.973,8.761c0.299,1.498 0.774,3.046 1.423,4.642c0.649,1.598 1.448,3.37 2.396,5.316c0.949,1.947 1.672,3.469 2.172,4.568c2.995,7.189 4.493,12.231 4.493,15.127l0,0.749c-0.299,0.998 -0.874,2.221 -1.722,3.669c-0.849,1.448 -1.472,2.571 -1.873,3.37c-0.2,0.798 -0.45,1.997 -0.749,3.594c-0.299,1.598 -0.649,2.596 -1.048,2.995c-1.398,1.498 -3.345,2.496 -5.841,2.995c-0.898,0.2 -1.847,0.299 -2.846,0.299c-1.598,0 -3.245,-0.299 -4.942,-0.898l-0.007,0.001Z" style="fill:url(#_Linear12);fill-rule:nonzero;"/><path d="M5144.008,1109.275c1.055,1.22 2.337,2.219 3.846,2.998c4.702,2.429 11.287,2.516 19.757,0.263c8.21,-2.839 13.093,-5.766 14.652,-8.781l0.206,-0.4c1.018,-2.621 -0.247,-6.59 -3.794,-11.906c-2.889,-4.415 -6.019,-7.492 -9.39,-9.234c-0.798,-0.412 -1.575,-0.758 -2.331,-1.036c-0.535,-0.051 -1.628,-0.111 -3.28,-0.177c-1.294,-0.107 -2.339,-0.366 -3.138,-0.778l-0.4,-0.206c3.772,-4.907 7.219,-7.228 10.341,-6.963c1.208,-0.163 2.743,0.238 4.605,1.2c1.33,0.687 2.88,1.713 4.648,3.076c2.521,1.864 4.624,3.232 6.309,4.103c1.242,0.642 2.263,1.057 3.065,1.247c1.96,0.338 3.628,0.048 5.002,-0.871c1.374,-0.92 2.866,-2.284 4.475,-4.094c1.61,-1.81 3.201,-3.151 4.775,-4.023c0.652,1.348 0.953,3.049 0.903,5.103c-0.05,2.053 0.275,3.71 0.972,4.97c0.523,0.945 1.583,1.829 3.181,2.655l1.596,0.825c4.044,1.528 7.8,1.108 11.27,-1.257c2.568,-1.708 4.631,-4.069 6.19,-7.085c0.691,-1.338 1.272,-2.788 1.743,-4.352c1.3,-3.167 1.561,-7.153 0.784,-11.959c-0.901,-5.435 -3.333,-10.786 -7.298,-16.054c-3.965,-5.268 -9.451,-9.712 -16.459,-13.333l-1.596,-0.825c-8.161,-4.217 -16.855,-6.858 -26.081,-7.924c-9.94,-1.209 -18.74,-0.708 -26.4,1.501c-9.455,2.856 -18.203,8.15 -26.246,15.885c-6.776,6.371 -12.542,14.161 -17.3,23.368c-0.961,1.86 -1.856,3.809 -2.685,5.848c-8.982,20.428 -8.679,40.506 0.907,60.233c8.979,18.293 23.847,32.801 44.604,43.527l4.657,2.406c5.056,2.613 9.529,4.613 13.419,6.002c3.89,1.389 8.703,2.405 14.44,3.049c5.736,0.646 11.03,0.187 15.884,-1.376c5.755,-2.002 9.301,-4.297 10.638,-6.885c0.239,-0.463 0.434,-0.949 0.585,-1.457c0.178,-1.432 -0.132,-2.355 -0.93,-2.767l-0.665,-0.344c-0.621,-0.321 -1.399,-0.61 -2.332,-0.868c-0.935,-0.258 -1.712,-0.548 -2.332,-0.868l-0.665,-0.344c0.544,-0.617 2.413,-1.844 5.609,-3.676c2.88,-1.659 4.939,-3.686 6.176,-6.08l0.481,-0.931c0.285,-1.202 0.405,-2.797 0.364,-4.785c-0.041,-1.988 0.08,-3.471 0.361,-4.45c7.305,4.786 11.714,10.716 13.228,17.793c1.473,6.718 0.285,13.803 -3.565,21.254l-0.619,1.198l-0.27,-0.139c-0.627,-0.324 -0.935,-1.326 -0.921,-3.004c0.014,-1.678 -0.428,-2.75 -1.326,-3.214l-0.404,-0.209c-1.513,2.928 -4.299,5.842 -8.359,8.746c-4.059,2.904 -6.524,5.199 -7.394,6.884c-0.278,0.755 -0.063,1.317 0.647,1.684c0.355,0.183 0.889,0.347 1.601,0.49c1.294,0.107 2.251,0.32 2.872,0.641c0.266,0.137 0.465,0.296 0.597,0.477c-3.256,3.038 -6.839,4.699 -10.75,4.982c-3.911,0.283 -8.805,-0.307 -14.679,-1.769c-0.312,-0.048 -1.08,-0.248 -2.303,-0.6c-1.223,-0.351 -2.103,-0.553 -2.638,-0.605c-0.535,-0.051 -1.271,-0.095 -2.209,-0.13c-0.937,-0.035 -1.776,0.066 -2.516,0.301c-0.739,0.236 -1.471,0.616 -2.192,1.143c-0.412,0.798 -0.123,1.651 0.87,2.558c0.992,0.906 1.442,1.559 1.347,1.961c-5.525,2.427 -12.811,1.304 -21.859,-3.371c-0.976,-0.504 -2.569,-1.553 -4.781,-3.145c-1.371,-1.045 -2.632,-1.866 -3.785,-2.462c-0.621,-0.321 -1.22,-0.575 -1.799,-0.761c-1.511,-0.556 -3.03,-0.442 -4.559,0.341l-0.275,0.532c-0.412,0.798 -0.334,1.626 0.235,2.482c0.655,1.126 0.799,2.043 0.432,2.752c-1.474,0.026 -3.231,-0.49 -5.272,-1.544c-0.798,-0.412 -1.572,-0.871 -2.324,-1.375c-3.23,-2.015 -5.944,-3.994 -8.142,-5.938c-2.199,-1.943 -4.762,-4.161 -7.688,-6.654c-2.926,-2.492 -5.207,-4.333 -6.84,-5.523l-2.928,-1.513c-4.169,-2.154 -7.003,-2.214 -8.505,-0.18l-0.137,0.266c-0.55,1.065 -0.343,2.295 0.621,3.692c1.096,1.577 1.412,2.922 0.952,4.031c-1.022,-0.415 -1.975,-0.852 -2.862,-1.311c-4.524,-2.338 -7.924,-5.218 -10.201,-8.642c-2.715,-4.1 -4.927,-9.823 -6.638,-17.169c-1.711,-7.346 -2.977,-12.074 -3.797,-14.184l-0.584,-1.481c-0.477,-1.034 -0.737,-1.617 -0.78,-1.752c-0.043,-0.135 -0.26,-0.64 -0.65,-1.515c-0.39,-0.876 -0.717,-1.439 -0.982,-1.687c-0.265,-0.249 -0.638,-0.723 -1.12,-1.421c-0.482,-0.698 -0.933,-1.185 -1.354,-1.458c-0.421,-0.273 -0.942,-0.571 -1.562,-0.891c-0.132,-0.181 -0.242,-0.293 -0.331,-0.339c-0.443,-0.229 -0.977,-0.392 -1.601,-0.49c-0.624,-0.097 -1.359,-0.196 -2.207,-0.297l-0.275,0.532c-0.458,0.887 -0.789,2.178 -0.989,3.871c-0.058,0.981 -0.292,1.871 -0.705,2.67c-0.275,0.532 -0.639,1.019 -1.09,1.459l-0.665,-0.344c-2.661,-1.375 -4.334,-4.88 -5.018,-10.516c-0.539,-3.088 -0.591,-7.61 -0.155,-13.567c0.436,-5.956 0.562,-10.387 0.378,-13.292c-0.089,-6.789 -1.242,-10.756 -3.459,-11.902l-0.266,-0.137c-1.333,-0.464 -2.338,-0.478 -3.014,-0.04c-0.541,0.395 -1.133,1.213 -1.774,2.454l-1.856,3.593c-4.555,-2.354 -5.477,-8.842 -2.762,-19.465c0.337,-1.512 1.009,-3.244 2.018,-5.195c1.879,-3.637 4.861,-7.885 8.944,-12.742c0.773,-1.061 1.951,-2.363 3.535,-3.905c1.584,-1.542 2.807,-2.821 3.668,-3.836c0.636,-0.795 1.206,-1.682 1.709,-2.656l0.619,-1.198c0.69,-1.554 0.913,-3.18 0.668,-4.88c-0.74,-1.394 -1.599,-2.343 -2.574,-2.848c-0.266,-0.137 -0.555,-0.231 -0.867,-0.28c-1.379,-0.376 -2.508,-0.312 -3.385,0.189c-0.877,0.502 -2.035,1.056 -3.471,1.662c-1.437,0.606 -2.602,0.903 -3.495,0.891c-0.783,-1.529 -0.579,-3.447 0.612,-5.753c0.642,-1.242 1.53,-2.525 2.663,-3.849c1.009,-1.952 2.398,-3.762 4.171,-5.431c1.773,-1.669 4.018,-3.487 6.739,-5.453c2.72,-1.966 4.715,-3.52 5.986,-4.662c7.582,-6.535 12.474,-11.93 14.673,-16.187c0.374,-0.725 0.682,-1.427 0.92,-2.106c0.955,-2.718 0.751,-4.717 -0.612,-5.995l-1.198,-0.619c-1.419,-0.733 -2.916,-0.664 -4.49,0.208c-1.935,1.135 -3.48,1.405 -4.632,0.809l-0.133,-0.069c2.154,-4.169 4.858,-7.716 8.112,-10.643c3.254,-2.927 7.114,-5.23 11.58,-6.913c4.466,-1.683 8.322,-2.893 11.57,-3.631c3.248,-0.738 7.533,-1.474 12.856,-2.207c0.85,-0.122 2.649,-0.233 5.396,-0.331c2.747,-0.098 4.972,-0.269 6.672,-0.514c1.7,-0.245 3.113,-0.696 4.237,-1.35c1.617,-0.737 2.861,-1.95 3.732,-3.635c0.366,-0.709 0.645,-1.465 0.834,-2.266c0.797,-2.847 0.157,-5.089 -1.921,-6.724c-0.132,-0.181 -0.286,-0.316 -0.464,-0.408c-0.709,-0.366 -1.733,-0.67 -3.069,-0.911c-1.649,-0.29 -2.918,-0.552 -3.807,-0.788c-0.224,-0.003 -0.379,-0.028 -0.468,-0.074c-0.709,-0.366 -1.28,-1.111 -1.712,-2.234c1.452,-1.723 3.3,-3.016 5.544,-3.878c2.244,-0.863 4.127,-1.352 5.646,-1.465c1.519,-0.114 3.977,-0.193 7.371,-0.237c9.29,-0.144 16.288,0.886 20.992,3.092c1.6,0.602 3.463,1.453 5.593,2.553c2.928,1.513 6.318,3.433 10.172,5.762c3.854,2.328 7.156,4.204 9.906,5.625c2.041,1.054 3.772,1.836 5.193,2.347c2.664,1.151 5.16,1.542 7.487,1.172c1.924,-0.242 3.412,-1.384 4.466,-3.424c0.183,-0.355 0.346,-0.777 0.486,-1.266c0.697,-2 0.08,-4.341 -1.849,-7.025c-1.93,-2.683 -3.019,-4.651 -3.271,-5.904c0.453,-0.441 1.003,-0.69 1.652,-0.748c0.648,-0.059 1.206,-0.051 1.674,0.022c0.468,0.074 1.08,0.248 1.836,0.526c0.755,0.278 1.312,0.397 1.67,0.357c2.447,0.702 4.911,1.695 7.396,2.979c2.041,1.054 4.077,2.332 6.112,3.832c4.512,3.23 7.859,6.758 10.041,10.583c2.231,3.513 4.331,9.235 6.303,17.165c1.971,7.931 3.76,13.603 5.367,17.019c2.648,5.751 5.214,9.268 7.697,10.552c1.952,1.009 3.789,0.497 5.513,-1.534c0.226,-0.22 0.431,-0.508 0.614,-0.862c0.504,-0.976 0.789,-2.289 0.856,-3.94c0.024,-1.786 0.264,-3.122 0.723,-4.009c0.092,-0.178 0.227,-0.332 0.408,-0.464c2.297,1.861 4.498,5.976 6.601,12.346c1.868,7.259 1.023,17.161 -2.538,29.707c-1.955,5.958 -2.586,9.79 -1.894,11.496c0.386,1.21 1.155,2.114 2.309,2.71c1.153,0.596 2.211,0.777 3.174,0.545c0.963,-0.233 1.681,-0.48 2.153,-0.742c0.472,-0.262 1.229,-0.966 2.272,-2.113c1.042,-1.147 1.767,-1.896 2.173,-2.249c1.216,2.651 1.222,5.465 0.022,8.44l-0.963,1.863c-1.1,2.129 -2.466,4.121 -4.098,5.974c-2.173,2.249 -4.552,4.897 -7.139,7.943c-1.77,2.12 -3.09,4.023 -3.961,5.709c-0.412,0.798 -0.735,1.531 -0.967,2.197c-1.247,3.065 -1.062,5.97 0.554,8.715c0.698,1.259 1.667,2.211 2.909,2.852c1.419,0.733 3.135,1.002 5.147,0.806c4.605,-0.43 10.31,-6.249 17.112,-17.456c0.486,0.364 0.827,0.792 1.021,1.286c0.194,0.494 0.322,0.953 0.383,1.378c0.061,0.425 0.065,0.961 0.012,1.608c-0.053,0.647 -0.104,1.126 -0.153,1.438c-0.048,0.312 -0.179,0.835 -0.389,1.569c-0.211,0.734 -0.339,1.145 -0.385,1.234c-0.605,1.822 -1.365,3.622 -2.282,5.395c-0.917,1.774 -2.012,3.568 -3.287,5.382c-8.352,13.554 -21.934,22.439 -40.745,26.655c-1.03,0.255 -5.966,1.104 -14.804,2.55c-8.839,1.445 -15.389,2.921 -19.651,4.428c-0.673,0.214 -2.389,0.873 -5.151,1.975c-2.761,1.102 -4.678,1.713 -5.752,1.833c-1.651,-0.066 -4.486,-0.942 -8.505,-2.625c-4.019,-1.683 -6.762,-2.736 -8.23,-3.157c-1.468,-0.422 -3.061,-0.71 -4.777,-0.867c-1.717,-0.157 -3.659,-0.261 -5.823,-0.312c-2.166,-0.051 -3.85,-0.107 -5.055,-0.167c-7.762,-0.639 -12.929,-1.623 -15.501,-2.952l-0.665,-0.344c-0.75,-0.724 -1.572,-1.796 -2.469,-3.214c-0.897,-1.419 -1.608,-2.488 -2.134,-3.211c-0.617,-0.544 -1.568,-1.316 -2.85,-2.315c-1.282,-0.999 -2.009,-1.768 -2.18,-2.306c-0.689,-1.929 -0.682,-4.117 0.02,-6.564c0.235,-0.89 0.582,-1.778 1.041,-2.665c0.733,-1.419 1.755,-2.745 3.067,-3.979l0.002,-0.007Z" style="fill:url(#_Linear13);fill-rule:nonzero;"/><path d="M5622.814,688.107c0.919,1.325 2.086,2.457 3.502,3.392c4.415,2.918 10.954,3.709 19.616,2.373c8.466,-1.944 13.635,-4.333 15.507,-7.165c0.11,-0.167 0.193,-0.291 0.247,-0.375c1.292,-2.497 0.459,-6.579 -2.499,-12.244c-2.401,-4.699 -5.183,-8.093 -8.348,-10.185c-0.75,-0.496 -1.485,-0.921 -2.206,-1.279c-0.527,-0.108 -1.607,-0.284 -3.242,-0.527c-1.274,-0.244 -2.287,-0.614 -3.037,-1.11c-0.083,-0.055 -0.208,-0.138 -0.375,-0.247c4.274,-4.476 7.95,-6.415 11.026,-5.818c1.218,-0.032 2.702,0.529 4.451,1.685c1.249,0.826 2.68,2.011 4.293,3.555c2.307,2.123 4.251,3.708 5.834,4.754c1.166,0.771 2.137,1.293 2.914,1.567c1.913,0.546 3.601,0.436 5.067,-0.331c1.464,-0.767 3.094,-1.965 4.887,-3.592c1.793,-1.628 3.52,-2.79 5.178,-3.489c0.504,1.41 0.621,3.133 0.353,5.17c-0.269,2.036 -0.124,3.719 0.435,5.045c0.42,0.995 1.379,1.989 2.878,2.979c0.416,0.275 0.917,0.606 1.499,0.991c3.857,1.951 7.637,1.936 11.34,-0.045c2.736,-1.423 5.04,-3.551 6.912,-6.383c0.83,-1.256 1.563,-2.636 2.198,-4.141c1.631,-3.01 2.317,-6.946 2.059,-11.806c-0.314,-5.5 -2.161,-11.081 -5.541,-16.743c-3.379,-5.661 -8.359,-10.667 -14.939,-15.016c-0.499,-0.33 -1,-0.66 -1.499,-0.991c-7.663,-5.066 -16.025,-8.621 -25.085,-10.667c-9.753,-2.265 -18.556,-2.708 -26.409,-1.33c-9.706,1.828 -18.971,6.157 -27.794,12.987c-7.419,5.611 -13.984,12.739 -19.7,21.384c-1.155,1.746 -2.252,3.589 -3.294,5.528c-11.115,19.351 -12.961,39.346 -5.538,59.985c6.971,19.148 20.204,35.163 39.694,48.047c1.416,0.936 2.873,1.899 4.373,2.89c4.748,3.138 8.982,5.605 12.701,7.402c3.72,1.797 8.397,3.322 14.03,4.576c5.634,1.255 10.947,1.365 15.939,0.33c5.935,-1.375 9.707,-3.278 11.314,-5.709c0.288,-0.435 0.533,-0.897 0.737,-1.387c0.33,-1.404 0.121,-2.356 -0.629,-2.85c-0.167,-0.11 -0.375,-0.247 -0.625,-0.413c-0.583,-0.385 -1.325,-0.757 -2.227,-1.112c-0.902,-0.357 -1.644,-0.727 -2.227,-1.112c-0.25,-0.166 -0.458,-0.303 -0.625,-0.413c0.607,-0.557 2.597,-1.575 5.97,-3.056c3.041,-1.341 5.305,-3.137 6.791,-5.385c0.166,-0.25 0.358,-0.542 0.579,-0.874c0.411,-1.165 0.703,-2.738 0.874,-4.718c0.173,-1.981 0.45,-3.443 0.834,-4.386c6.751,5.539 10.501,11.908 11.249,19.105c0.746,6.837 -1.192,13.754 -5.817,20.751c-0.275,0.416 -0.523,0.791 -0.743,1.125c-0.085,-0.056 -0.169,-0.112 -0.254,-0.168c-0.59,-0.39 -0.788,-1.418 -0.595,-3.086c0.193,-1.668 -0.132,-2.78 -0.975,-3.338c-0.083,-0.055 -0.209,-0.138 -0.378,-0.251c-1.817,2.749 -4.899,5.35 -9.247,7.802c-4.347,2.453 -7.043,4.471 -8.088,6.054c-0.358,0.721 -0.202,1.302 0.464,1.743c0.334,0.22 0.847,0.439 1.539,0.659c1.274,0.244 2.204,0.559 2.787,0.944c0.25,0.166 0.43,0.344 0.542,0.538c-3.562,2.673 -7.302,3.941 -11.222,3.804c-3.919,-0.137 -8.721,-1.247 -14.406,-3.329c-0.305,-0.082 -1.047,-0.362 -2.226,-0.843c-1.179,-0.48 -2.031,-0.774 -2.558,-0.883c-0.527,-0.108 -1.254,-0.23 -2.182,-0.366c-0.928,-0.135 -1.772,-0.124 -2.534,0.031c-0.761,0.155 -1.529,0.455 -2.302,0.902c-0.496,0.75 -0.298,1.628 0.592,2.635c0.89,1.008 1.266,1.705 1.13,2.093c-5.752,1.823 -12.877,-0.074 -21.373,-5.689c-0.917,-0.606 -2.389,-1.818 -4.418,-3.638c-1.25,-1.186 -2.418,-2.137 -3.5,-2.853c-0.583,-0.385 -1.153,-0.702 -1.707,-0.949c-1.442,-0.714 -2.966,-0.764 -4.57,-0.148c-0.11,0.167 -0.22,0.334 -0.33,0.499c-0.496,0.75 -0.506,1.58 -0.032,2.493c0.531,1.188 0.576,2.116 0.136,2.782c-1.468,-0.132 -3.16,-0.832 -5.076,-2.098c-0.75,-0.496 -1.471,-1.034 -2.164,-1.615c-2.995,-2.349 -5.483,-4.607 -7.461,-6.775c-1.98,-2.167 -4.29,-4.646 -6.932,-7.437c-2.643,-2.79 -4.714,-4.865 -6.21,-6.223c-1,-0.66 -1.916,-1.266 -2.749,-1.817c-3.915,-2.588 -6.728,-2.95 -8.437,-1.088c-0.055,0.083 -0.11,0.167 -0.166,0.25c-0.66,1 -0.587,2.245 0.222,3.737c0.92,1.685 1.092,3.056 0.515,4.11c-0.971,-0.522 -1.874,-1.058 -2.706,-1.609c-4.248,-2.808 -7.321,-6.035 -9.218,-9.684c-2.26,-4.366 -3.849,-10.293 -4.764,-17.78c-0.916,-7.487 -1.669,-12.323 -2.259,-14.509l-0.421,-1.536c-0.365,-1.079 -0.56,-1.687 -0.589,-1.825c-0.029,-0.138 -0.19,-0.664 -0.484,-1.577c-0.294,-0.912 -0.56,-1.507 -0.796,-1.783c-0.237,-0.276 -0.557,-0.787 -0.962,-1.533c-0.405,-0.746 -0.802,-1.278 -1.19,-1.594c-0.389,-0.317 -0.875,-0.668 -1.458,-1.054c-0.112,-0.193 -0.209,-0.317 -0.292,-0.373c-0.416,-0.275 -0.929,-0.495 -1.539,-0.659c-0.61,-0.163 -1.331,-0.34 -2.162,-0.531c-0.11,0.167 -0.22,0.334 -0.33,0.499c-0.551,0.833 -1.017,2.081 -1.398,3.744c-0.162,0.97 -0.491,1.83 -0.987,2.579c-0.33,0.499 -0.744,0.944 -1.241,1.334c-0.25,-0.166 -0.458,-0.303 -0.625,-0.413c-2.498,-1.652 -3.788,-5.316 -3.865,-10.993c-0.206,-3.129 0.225,-7.631 1.296,-13.505c1.071,-5.875 1.669,-10.267 1.797,-13.175c0.638,-6.76 -0.084,-10.827 -2.167,-12.204c-0.083,-0.055 -0.167,-0.11 -0.25,-0.166c-1.277,-0.604 -2.274,-0.725 -2.992,-0.362c-0.58,0.335 -1.256,1.085 -2.027,2.251c-0.11,0.167 -1.954,2.957 -2.23,3.374c-4.278,-2.827 -4.5,-9.378 -0.665,-19.649c0.497,-1.467 1.35,-3.117 2.562,-4.949c2.257,-3.415 5.675,-7.319 10.255,-11.713c0.882,-0.973 2.193,-2.141 3.933,-3.505c1.739,-1.364 3.092,-2.504 4.057,-3.422c0.717,-0.722 1.378,-1.542 1.984,-2.459c0.22,-0.334 0.468,-0.709 0.743,-1.125c0.852,-1.471 1.248,-3.065 1.186,-4.781c-0.588,-1.465 -1.339,-2.501 -2.256,-3.107c-0.25,-0.166 -0.527,-0.289 -0.833,-0.37c-1.331,-0.521 -2.46,-0.579 -3.386,-0.174c-0.926,0.405 -2.136,0.833 -3.63,1.281c-1.494,0.449 -2.683,0.62 -3.57,0.513c-0.615,-1.603 -0.208,-3.489 1.224,-5.654c0.771,-1.166 1.791,-2.348 3.06,-3.543c1.211,-1.832 2.787,-3.484 4.727,-4.954c1.94,-1.47 4.369,-3.037 7.283,-4.701c2.915,-1.664 5.064,-2.996 6.45,-3.995c8.237,-5.687 13.677,-10.528 16.319,-14.526c0.45,-0.681 0.829,-1.346 1.14,-1.996c1.24,-2.601 1.251,-4.609 0.033,-6.026c-0.416,-0.275 -0.791,-0.523 -1.125,-0.743c-1.333,-0.881 -2.828,-0.972 -4.487,-0.273c-2.045,0.922 -3.609,1.025 -4.693,0.309c0,0 -0.041,-0.028 -0.125,-0.083c2.588,-3.915 5.656,-7.153 9.204,-9.715c3.548,-2.562 7.633,-4.44 12.252,-5.635c4.62,-1.195 8.584,-1.986 11.891,-2.373c3.308,-0.386 7.648,-0.66 13.019,-0.82c0.858,-0.031 2.658,0.052 5.401,0.248c2.742,0.197 4.972,0.265 6.689,0.202c1.716,-0.062 3.169,-0.359 4.358,-0.889c1.687,-0.56 3.054,-1.632 4.099,-3.215c0.441,-0.666 0.797,-1.388 1.072,-2.165c1.097,-2.746 0.7,-5.043 -1.19,-6.891c-0.112,-0.193 -0.251,-0.345 -0.418,-0.455c-0.666,-0.441 -1.651,-0.852 -2.954,-1.234c-1.608,-0.465 -2.842,-0.862 -3.701,-1.19c-0.222,-0.026 -0.374,-0.068 -0.458,-0.123c-0.666,-0.441 -1.154,-1.241 -1.463,-2.404c1.628,-1.557 3.604,-2.646 5.927,-3.263c2.323,-0.619 4.248,-0.903 5.771,-0.853c1.523,0.049 3.975,0.233 7.354,0.552c9.252,0.85 16.1,2.622 20.541,5.319c1.526,0.769 3.288,1.815 5.288,3.135c2.749,1.817 5.914,4.089 9.497,6.816c3.583,2.727 6.666,4.945 9.248,6.651c1.916,1.266 3.553,2.229 4.913,2.888c2.526,1.43 4.965,2.085 7.319,1.965c1.938,-0.036 3.54,-1.011 4.807,-2.926c0.22,-0.334 0.427,-0.735 0.619,-1.207c0.906,-1.914 0.544,-4.309 -1.088,-7.182c-1.631,-2.873 -2.505,-4.947 -2.62,-6.22c0.497,-0.39 1.071,-0.579 1.722,-0.567c0.651,0.012 1.205,0.078 1.662,0.201c0.458,0.123 1.047,0.362 1.768,0.72c0.721,0.358 1.262,0.535 1.622,0.534c2.358,0.96 4.702,2.211 7.035,3.752c1.916,1.266 3.805,2.754 5.667,4.464c4.141,3.695 7.091,7.559 8.852,11.595c1.843,3.731 3.32,9.645 4.432,17.74c1.112,8.095 2.284,13.927 3.517,17.495c2.017,6.001 4.193,9.772 6.525,11.315c1.832,1.211 3.714,0.899 5.645,-0.936c0.248,-0.194 0.483,-0.459 0.703,-0.793c0.606,-0.917 1.029,-2.192 1.272,-3.827c0.215,-1.774 0.597,-3.076 1.148,-3.91c0.11,-0.167 0.262,-0.306 0.455,-0.418c2.085,2.097 3.834,6.423 5.244,12.981c1.081,7.418 -0.818,17.173 -5.699,29.266c-2.58,5.714 -3.617,9.457 -3.112,11.227c0.254,1.246 0.922,2.226 2.006,2.941c1.082,0.715 2.115,1.01 3.098,0.881c0.982,-0.129 1.723,-0.298 2.22,-0.507c0.498,-0.209 1.326,-0.829 2.484,-1.859c1.159,-1.029 1.96,-1.697 2.402,-2.004c0.925,2.765 0.631,5.564 -0.881,8.394c-0.385,0.583 -0.771,1.166 -1.156,1.749c-1.322,1.999 -2.893,3.833 -4.714,5.501c-2.402,2.004 -5.051,4.381 -7.947,7.135c-1.986,1.919 -3.502,3.669 -4.548,5.252c-0.496,0.75 -0.894,1.444 -1.196,2.082c-1.567,2.914 -1.694,5.822 -0.381,8.724c0.559,1.327 1.422,2.376 2.588,3.147c1.333,0.881 3.01,1.331 5.031,1.35c4.625,0.064 10.918,-5.11 18.88,-15.527c0.445,0.414 0.737,0.876 0.878,1.388c0.14,0.512 0.219,0.982 0.233,1.411c0.016,0.429 -0.038,0.963 -0.16,1.6c-0.122,0.637 -0.224,1.109 -0.306,1.414c-0.082,0.305 -0.267,0.811 -0.554,1.518c-0.288,0.707 -0.459,1.103 -0.514,1.186c-0.796,1.748 -1.745,3.454 -2.846,5.121c-1.101,1.666 -2.382,3.332 -3.843,5c-9.754,12.583 -24.208,19.965 -43.362,22.145c-1.051,0.143 -6.049,0.46 -14.992,0.952c-8.943,0.492 -15.613,1.259 -20.013,2.302c-0.691,0.141 -2.47,0.612 -5.332,1.412c-2.863,0.801 -4.834,1.203 -5.914,1.208c-1.634,-0.243 -4.36,-1.416 -8.176,-3.52c-3.816,-2.104 -6.431,-3.443 -7.846,-4.019c-1.415,-0.576 -2.968,-1.034 -4.657,-1.373c-1.691,-0.339 -3.609,-0.65 -5.757,-0.933c-2.147,-0.282 -3.816,-0.518 -5.008,-0.707c-7.649,-1.465 -12.681,-2.996 -15.097,-4.593c-0.25,-0.166 -0.458,-0.303 -0.625,-0.413c-0.668,-0.801 -1.371,-1.954 -2.112,-3.46c-0.74,-1.507 -1.333,-2.647 -1.779,-3.42c-0.557,-0.607 -1.418,-1.476 -2.586,-2.606c-1.167,-1.131 -1.808,-1.973 -1.921,-2.526c-0.478,-1.992 -0.238,-4.167 0.722,-6.524c0.329,-0.859 0.768,-1.706 1.319,-2.539c0.881,-1.333 2.039,-2.542 3.475,-3.628l0.009,0.007Z" style="fill:url(#_Linear14);fill-rule:nonzero;"/></g><defs><linearGradient id="_Linear1" x1="0" y1="0" x2="1" y2="0" gradientUnits="userSpaceOnUse" gradientTransform="matrix(278.147789,418.091136,-418.091136,278.147789,1098.630652,341.058082)"><stop offset="0" style="stop-color:#66b7f1;stop-opacity:0.47"/><stop offset="0.5" style="stop-color:#66b7f1;stop-opacity:0.35"/><stop offset="1" style="stop-color:#66b7f1;stop-opacity:0"/></linearGradient><linearGradient id="_Linear2" x1="0" y1="0" x2="1" y2="0" gradientUnits="userSpaceOnUse" gradientTransform="matrix(2.529002,-102.887407,102.887407,2.529002,2805.658961,754.791539)"><stop offset="0" style="stop-color:#66b7f1;stop-opacity:0.47"/><stop offset="0.5" style="stop-color:#66b7f1;stop-opacity:0.35"/><stop offset="1" style="stop-color:#66b7f1;stop-opacity:0"/></linearGradient><linearGradient id="_Linear3" x1="0" y1="0" x2="1" y2="0" gradientUnits="userSpaceOnUse" gradientTransform="matrix(85.273314,57.62531,-57.62531,85.273314,3075.474576,1163.051392)"><stop offset="0" style="stop-color:#66b7f1;stop-opacity:0.47"/><stop offset="0.5" style="stop-color:#66b7f1;stop-opacity:0.35"/><stop offset="1" style="stop-color:#66b7f1;stop-opacity:0"/></linearGradient><linearGradient id="_Linear4" x1="0" y1="0" x2="1" y2="0" gradientUnits="userSpaceOnUse" gradientTransform="matrix(2.529002,-102.887407,102.887407,2.529002,508.624655,441.53272)"><stop offset="0" style="stop-color:#66b7f1;stop-opacity:0.47"/><stop offset="0.5" style="stop-color:#66b7f1;stop-opacity:0.35"/><stop offset="1" style="stop-color:#66b7f1;stop-opacity:0"/></linearGradient><linearGradient id="_Linear5" x1="0" y1="0" x2="1" y2="0" gradientUnits="userSpaceOnUse" gradientTransform="matrix(-136.247728,-25.522597,25.522597,-136.247728,557.087103,959.668022)"><stop offset="0" style="stop-color:#66b7f1;stop-opacity:0.47"/><stop offset="0.5" style="stop-color:#66b7f1;stop-opacity:0.35"/><stop offset="1" style="stop-color:#66b7f1;stop-opacity:0"/></linearGradient><linearGradient id="_Linear6" x1="0" y1="0" x2="1" y2="0" gradientUnits="userSpaceOnUse" gradientTransform="matrix(-134.615862,33.066842,-33.066842,-134.615862,2057.836358,452.7416)"><stop offset="0" style="stop-color:#66b7f1;stop-opacity:0.47"/><stop offset="0.5" style="stop-color:#66b7f1;stop-opacity:0.35"/><stop offset="1" style="stop-color:#66b7f1;stop-opacity:0"/></linearGradient><linearGradient id="_Linear7" x1="0" y1="0" x2="1" y2="0" gradientUnits="userSpaceOnUse" gradientTransform="matrix(44.075021,131.42389,-131.42389,44.075021,6444.684278,379.470159)"><stop offset="0" style="stop-color:#66b7f1;stop-opacity:0.47"/><stop offset="0.5" style="stop-color:#66b7f1;stop-opacity:0.35"/><stop offset="1" style="stop-color:#66b7f1;stop-opacity:0"/></linearGradient><linearGradient id="_Linear8" x1="0" y1="0" x2="1" y2="0" gradientUnits="userSpaceOnUse" gradientTransform="matrix(-136.134371,-26.120477,26.120477,-136.134371,3447.269833,570.566619)"><stop offset="0" style="stop-color:#66b7f1;stop-opacity:0.47"/><stop offset="0.5" style="stop-color:#66b7f1;stop-opacity:0.35"/><stop offset="1" style="stop-color:#66b7f1;stop-opacity:0"/></linearGradient><linearGradient id="_Linear9" x1="0" y1="0" x2="1" y2="0" gradientUnits="userSpaceOnUse" gradientTransform="matrix(83.114037,-211.503825,211.503825,83.114037,2118.694235,1151.728657)"><stop offset="0" style="stop-color:#66b7f1;stop-opacity:0.47"/><stop offset="0.5" style="stop-color:#66b7f1;stop-opacity:0.35"/><stop offset="1" style="stop-color:#66b7f1;stop-opacity:0"/></linearGradient><linearGradient id="_Linear10" x1="0" y1="0" x2="1" y2="0" gradientUnits="userSpaceOnUse" gradientTransform="matrix(321.384794,-91.21478,91.21478,321.384794,4518.663238,552.80861)"><stop offset="0" style="stop-color:#66b7f1;stop-opacity:0.47"/><stop offset="0.5" style="stop-color:#66b7f1;stop-opacity:0.35"/><stop offset="1" style="stop-color:#66b7f1;stop-opacity:0"/></linearGradient><linearGradient id="_Linear11" x1="0" y1="0" x2="1" y2="0" gradientUnits="userSpaceOnUse" gradientTransform="matrix(-63.948835,38.073634,-38.073634,-63.948835,6416.406746,959.48898)"><stop offset="0" style="stop-color:#66b7f1;stop-opacity:0.47"/><stop offset="1" style="stop-color:#66b7f1;stop-opacity:0"/></linearGradient><linearGradient id="_Linear12" x1="0" y1="0" x2="1" y2="0" gradientUnits="userSpaceOnUse" gradientTransform="matrix(151.519044,48.549067,-48.549067,151.519044,4097.353663,955.269061)"><stop offset="0" style="stop-color:#66b7f1;stop-opacity:0.47"/><stop offset="0.5" style="stop-color:#66b7f1;stop-opacity:0.35"/><stop offset="1" style="stop-color:#66b7f1;stop-opacity:0"/></linearGradient><linearGradient id="_Linear13" x1="0" y1="0" x2="1" y2="0" gradientUnits="userSpaceOnUse" gradientTransform="matrix(-112.686621,112.324343,-112.324343,-112.686621,5175.776065,1009.132521)"><stop offset="0" style="stop-color:#66b7f1;stop-opacity:0.47"/><stop offset="0.5" style="stop-color:#66b7f1;stop-opacity:0.35"/><stop offset="1" style="stop-color:#66b7f1;stop-opacity:0"/></linearGradient><linearGradient id="_Linear14" x1="0" y1="0" x2="1" y2="0" gradientUnits="userSpaceOnUse" gradientTransform="matrix(237.549718,-59.493611,59.493611,237.549718,5478.996487,706.329185)"><stop offset="0" style="stop-color:#66b7f1;stop-opacity:0.47"/><stop offset="0.5" style="stop-color:#66b7f1;stop-opacity:0.35"/><stop offset="1" style="stop-color:#66b7f1;stop-opacity:0"/></linearGradient></defs></svg>