<?xml version="1.0" encoding="UTF-8" standalone="no"?><!DOCTYPE svg PUBLIC "-//W3C//DTD SVG 1.1//EN" "http://www.w3.org/Graphics/SVG/1.1/DTD/svg11.dtd"><svg width="100%" height="100%" viewBox="0 0 5423 657" version="1.1" xmlns="http://www.w3.org/2000/svg" xmlns:xlink="http://www.w3.org/1999/xlink" xml:space="preserve" xmlns:serif="http://www.serif.com/" style="fill-rule:evenodd;clip-rule:evenodd;stroke-linejoin:round;stroke-miterlimit:2;"><rect id="Header-View" serif:id="Header View" x="0" y="0" width="5422.41" height="656.867" style="fill:none;"/><g id="Header"><path d="M921.061,167.099c0,0 4.44,-7.72 13.321,-23.159l19.545,5.531l1.409,27.057c0,0 1.641,0.735 4.924,2.206c8.825,5.475 15.228,10.264 19.209,14.368c0,0 2.99,3.462 8.969,10.387c0,0 10.237,-2.065 30.712,-6.194l8.846,18.472l-23.481,22.72c0,0 0.796,3.721 2.389,11.164c1.593,7.442 1.77,14.146 0.533,20.111c0,0 8.436,4.778 25.308,14.335l-5.602,19.795l-28.792,1.324c-1.983,3.499 -3.929,7.03 -5.84,10.594c-1.911,3.564 -4.697,7.67 -8.358,12.317c-3.661,4.647 -5.903,6.99 -6.725,7.028c0,0 2.517,9.914 7.55,29.743l-17.557,9.917l-22.783,-20.386c-6.591,2.568 -11.546,4.219 -14.867,4.954c-3.32,0.734 -8.551,1.446 -15.694,2.138c0,0 -2.386,-0.178 -7.157,-0.533l-15.589,26.393l-19.795,-5.602l-1.078,-30.617c0,0 -3.492,-1.845 -10.477,-5.536c-6.975,-4.681 -11.861,-8.454 -14.659,-11.321c-2.797,-2.867 -4.405,-4.517 -4.824,-4.951c-0.418,-0.434 -1.167,-1.616 -2.245,-3.545c0,0 -9.055,2.986 -27.164,8.957l-10.633,-17.895l20.509,-23.696c-2.869,-9.563 -4.358,-18.442 -4.467,-26.637c-0.108,-8.195 -0.056,-12.984 0.155,-14.368c0,0 -7.532,-4.207 -22.596,-12.62l5.496,-19.42l16.268,-0.403l11.64,-0.359c0.213,-0.752 0.999,-2.491 2.359,-5.219c1.361,-2.727 2.124,-4.383 2.29,-4.968c0.165,-0.585 1.999,-3.065 5.5,-7.442c3.501,-4.377 8.073,-8.699 13.715,-12.966c0,0 -2.541,-10.147 -7.624,-30.44l17.933,-9.81l22.715,21.585c0.107,-0.06 2.585,-0.847 7.434,-2.362c10.247,-3.054 19.546,-3.399 27.899,-1.035c0.501,0.142 0.961,0.272 1.378,0.39Zm12.803,20.268c-21.644,-5.765 -41.736,-3.467 -60.275,6.893c-8.764,4.827 -16.569,11.369 -23.417,19.625c-6.847,8.256 -11.689,17.396 -14.526,27.419c-2.837,10.023 -3.544,20.491 -2.122,31.403c1.422,10.913 4.568,20.757 9.437,29.532c4.869,8.776 11.455,16.504 19.759,23.184c8.304,6.68 17.634,11.486 27.991,14.417c10.357,2.931 20.801,3.722 31.332,2.372c10.531,-1.35 20.185,-4.459 28.96,-9.328c8.776,-4.869 16.504,-11.455 23.184,-19.759c6.68,-8.304 11.486,-17.634 14.417,-27.991c2.931,-10.357 3.728,-20.822 2.39,-31.395c-2.712,-21.337 -12.414,-38.697 -29.105,-52.082c-7.646,-6.134 -16.989,-10.898 -28.027,-14.292Z" style="fill:url(#_Linear1);fill-rule:nonzero;"/><path d="M2073.23,185.324c0,0 -1.683,-8.745 -5.048,-26.236l18.41,-8.583l18.746,19.562c0,0 1.723,-0.516 5.169,-1.548c10.258,-1.622 18.235,-2.18 23.93,-1.675c0,0 4.525,0.668 13.576,2.003c0,0 6.401,-8.252 19.203,-24.756l18.766,8.203l-2.93,32.541c0,0 3.034,2.297 9.103,6.89c6.068,4.593 10.583,9.552 13.544,14.876c0,0 9.508,-1.895 28.525,-5.685l8.693,18.646l-20.931,19.815c0.785,3.944 1.619,7.889 2.501,11.836c0.882,3.947 1.456,8.875 1.721,14.785c0.265,5.91 0.099,9.148 -0.499,9.715c0,0 8.383,5.861 25.15,17.582l-6.811,18.979l-30.568,-0.546c-3.311,6.25 -5.984,10.738 -8.017,13.464c-2.034,2.725 -5.528,6.682 -10.483,11.873c0,0 -1.922,1.424 -5.766,4.273l5.444,30.166l-18.646,8.693l-20.821,-22.473c0,0 -3.85,0.885 -11.549,2.655c-8.339,1.014 -14.503,1.35 -18.494,1.008c-3.991,-0.342 -6.286,-0.541 -6.887,-0.596c-0.6,-0.055 -1.939,-0.461 -4.015,-1.217c0,0 -4.904,8.176 -14.711,24.529l-19.742,-6.599l0.043,-31.339c-8.42,-5.365 -15.349,-11.114 -20.786,-17.246c-5.436,-6.133 -8.527,-9.793 -9.271,-10.978c0,0 -8.451,1.737 -25.352,5.211l-8.528,-18.292l12.052,-10.934l8.577,-7.878c-0.33,-0.708 -0.872,-2.539 -1.624,-5.492c-0.752,-2.954 -1.256,-4.706 -1.513,-5.257c-0.257,-0.551 -0.49,-3.627 -0.699,-9.228c-0.209,-5.601 0.427,-11.86 1.911,-18.777c0,0 -8.554,-6.021 -25.661,-18.062l7.165,-19.144l31.299,1.498c0.042,-0.115 1.404,-2.33 4.085,-6.645c5.761,-9.007 12.576,-15.345 20.443,-19.013c0.472,-0.22 0.905,-0.422 1.298,-0.605Zm22.935,6.978c-20.151,9.778 -33.86,24.645 -41.125,44.602c-3.48,9.38 -5.115,19.433 -4.904,30.157c0.211,10.724 2.517,20.807 6.919,30.248c4.402,9.441 10.706,17.827 18.913,25.159c8.207,7.332 17.02,12.729 26.44,16.19c9.42,3.462 19.455,5.009 30.106,4.64c10.651,-0.368 20.854,-2.827 30.61,-7.375c9.756,-4.548 18.179,-10.774 25.269,-18.677c7.09,-7.903 12.366,-16.564 15.828,-25.984c3.462,-9.42 5.009,-19.455 4.64,-30.106c-0.368,-10.651 -2.827,-20.854 -7.375,-30.61c-4.548,-9.756 -10.783,-18.198 -18.704,-25.328c-15.994,-14.38 -34.682,-21.183 -56.063,-20.41c-9.796,0.353 -19.981,2.851 -30.555,7.493Z" style="fill:url(#_Linear2);fill-rule:nonzero;"/><path d="M201.591,409.343c1.086,-0.887 1.986,-1.976 2.701,-3.268c2.227,-4.026 2.466,-9.747 0.717,-17.163c-2.263,-7.205 -4.686,-11.522 -7.269,-12.951c-0.152,-0.084 -0.266,-0.147 -0.342,-0.189c-2.253,-0.949 -5.733,0.052 -10.441,3.002c-3.908,2.401 -6.661,5.045 -8.258,7.931c-0.378,0.684 -0.698,1.35 -0.958,2c-0.058,0.464 -0.137,1.412 -0.235,2.846c-0.125,1.122 -0.376,2.024 -0.754,2.708c-0.042,0.076 -0.105,0.19 -0.189,0.342c-4.171,-3.399 -6.103,-6.452 -5.795,-9.159c-0.111,-1.054 0.274,-2.378 1.157,-3.973c0.63,-1.139 1.56,-2.46 2.788,-3.963c1.683,-2.144 2.923,-3.938 3.722,-5.381c0.588,-1.063 0.975,-1.941 1.159,-2.633c0.343,-1.695 0.132,-3.151 -0.633,-4.368c-0.765,-1.217 -1.914,-2.547 -3.447,-3.991c-1.533,-1.443 -2.659,-2.86 -3.378,-4.25c1.188,-0.533 2.674,-0.753 4.457,-0.659c1.783,0.094 3.231,-0.147 4.343,-0.722c0.834,-0.431 1.629,-1.331 2.386,-2.698c0.21,-0.38 0.462,-0.835 0.756,-1.367c1.427,-3.476 1.156,-6.751 -0.813,-9.825c-1.42,-2.274 -3.422,-4.126 -6.004,-5.554c-1.145,-0.634 -2.391,-1.174 -3.739,-1.622c-2.72,-1.208 -6.178,-1.534 -10.373,-0.978c-4.745,0.648 -9.456,2.63 -14.132,5.945c-4.676,3.316 -8.674,7.973 -11.994,13.974c-0.252,0.456 -0.504,0.911 -0.756,1.367c-3.867,6.988 -6.377,14.478 -7.532,22.47c-1.297,8.608 -1.08,16.268 0.652,22.98c2.247,8.287 6.632,16.021 13.155,23.202c5.369,6.046 11.996,11.251 19.879,15.613c1.593,0.881 3.265,1.707 5.016,2.478c17.531,8.311 34.987,8.545 52.368,0.702c16.12,-7.351 29.097,-19.913 38.931,-37.686c0.714,-1.291 1.45,-2.62 2.206,-3.988c2.396,-4.329 4.245,-8.167 5.548,-11.514c1.303,-3.347 2.305,-7.504 3.007,-12.473c0.703,-4.968 0.435,-9.581 -0.803,-13.837c-1.597,-5.05 -3.504,-8.189 -5.721,-9.416c-0.396,-0.219 -0.814,-0.401 -1.252,-0.544c-1.24,-0.19 -2.05,0.056 -2.428,0.74c-0.084,0.152 -0.189,0.342 -0.315,0.57c-0.294,0.532 -0.565,1.2 -0.812,2.006c-0.247,0.806 -0.518,1.474 -0.812,2.006c-0.126,0.228 -0.231,0.418 -0.315,0.57c-0.524,-0.488 -1.542,-2.143 -3.056,-4.965c-1.37,-2.544 -3.081,-4.383 -5.131,-5.518c-0.228,-0.126 -0.494,-0.273 -0.798,-0.441c-1.038,-0.276 -2.421,-0.422 -4.149,-0.436c-1.728,-0.014 -3.014,-0.155 -3.858,-0.423c4.34,-6.23 9.603,-9.915 15.79,-11.055c5.875,-1.114 12.002,0.093 18.382,3.624c0.38,0.21 0.722,0.399 1.025,0.567c-0.043,0.077 -0.085,0.154 -0.128,0.231c-0.297,0.538 -1.175,0.78 -2.634,0.726c-1.458,-0.054 -2.4,0.304 -2.826,1.073c-0.042,0.076 -0.106,0.191 -0.191,0.345c2.506,1.387 4.971,3.881 7.393,7.481c2.423,3.599 4.356,5.798 5.799,6.597c0.65,0.26 1.143,0.087 1.479,-0.521c0.168,-0.304 0.323,-0.764 0.466,-1.379c0.125,-1.122 0.334,-1.948 0.628,-2.48c0.126,-0.228 0.269,-0.397 0.429,-0.507c2.56,2.904 3.914,6.06 4.063,9.466c0.149,3.406 -0.484,7.644 -1.901,12.713c-0.05,0.27 -0.243,0.932 -0.578,1.987c-0.335,1.054 -0.532,1.814 -0.591,2.277c-0.058,0.464 -0.114,1.103 -0.167,1.916c-0.053,0.814 0.013,1.545 0.2,2.194c0.187,0.649 0.5,1.293 0.939,1.933c0.684,0.378 1.431,0.147 2.244,-0.693c0.812,-0.84 1.391,-1.214 1.737,-1.122c1.973,4.862 0.816,11.166 -3.471,18.913c-0.462,0.835 -1.413,2.195 -2.851,4.077c-0.942,1.165 -1.687,2.241 -2.233,3.229c-0.294,0.532 -0.529,1.046 -0.706,1.544c-0.521,1.299 -0.459,2.623 0.184,3.971c0.152,0.084 0.304,0.168 0.456,0.252c0.684,0.378 1.404,0.331 2.162,-0.143c0.994,-0.541 1.795,-0.644 2.402,-0.308c-0.015,1.282 -0.505,2.796 -1.472,4.543c-0.378,0.684 -0.796,1.345 -1.252,1.986c-1.831,2.757 -3.618,5.067 -5.362,6.929c-1.743,1.863 -3.733,4.035 -5.973,6.517c-2.238,2.482 -3.895,4.418 -4.969,5.807c-0.504,0.911 -0.967,1.747 -1.387,2.506c-1.975,3.57 -2.098,6.032 -0.367,7.386c0.076,0.042 0.152,0.084 0.228,0.126c0.911,0.504 1.986,0.355 3.224,-0.448c1.398,-0.913 2.574,-1.155 3.527,-0.727c-0.386,0.878 -0.79,1.696 -1.21,2.456c-2.143,3.874 -4.731,6.757 -7.763,8.651c-3.63,2.257 -8.658,4.039 -15.085,5.344c-6.427,1.305 -10.567,2.288 -12.421,2.949l-1.302,0.47c-0.91,0.389 -1.424,0.601 -1.542,0.635c-0.118,0.034 -0.562,0.21 -1.333,0.527c-0.771,0.317 -1.268,0.588 -1.491,0.812c-0.223,0.224 -0.644,0.536 -1.263,0.938c-0.619,0.402 -1.053,0.782 -1.301,1.14c-0.248,0.359 -0.519,0.804 -0.813,1.336c-0.16,0.11 -0.261,0.203 -0.303,0.279c-0.21,0.38 -0.365,0.84 -0.466,1.379c-0.1,0.54 -0.205,1.177 -0.313,1.91c0.152,0.084 0.304,0.168 0.456,0.252c0.76,0.42 1.873,0.739 3.34,0.955c0.852,0.074 1.619,0.301 2.303,0.679c0.456,0.252 0.869,0.58 1.241,0.984c-0.126,0.228 -0.231,0.418 -0.315,0.57c-1.261,2.279 -4.349,3.646 -9.263,4.101c-2.697,0.392 -6.629,0.325 -11.794,-0.201c-5.165,-0.527 -9.012,-0.746 -11.541,-0.657c-5.902,-0.091 -9.378,0.813 -10.429,2.712c-0.042,0.076 -0.084,0.152 -0.126,0.228c-0.436,1.147 -0.473,2.02 -0.109,2.618c0.33,0.48 1.026,1.014 2.089,1.603c0.152,0.084 2.696,1.492 3.076,1.702c-2.158,3.901 -7.82,4.54 -16.985,1.919c-1.305,-0.33 -2.794,-0.958 -4.465,-1.882c-3.114,-1.723 -6.731,-4.419 -10.852,-8.088c-0.903,-0.698 -2.005,-1.755 -3.306,-3.169c-1.301,-1.414 -2.382,-2.508 -3.243,-3.283c-0.675,-0.572 -1.431,-1.089 -2.266,-1.552c-0.304,-0.168 -0.646,-0.357 -1.025,-0.567c-1.333,-0.639 -2.742,-0.872 -4.225,-0.701c-1.23,0.609 -2.076,1.331 -2.538,2.167c-0.126,0.228 -0.214,0.477 -0.264,0.747c-0.361,1.189 -0.334,2.172 0.081,2.947c0.414,0.775 0.867,1.794 1.358,3.058c0.491,1.264 0.721,2.284 0.688,3.059c-1.348,0.643 -3.009,0.418 -4.984,-0.674c-1.063,-0.588 -2.157,-1.392 -3.28,-2.41c-1.671,-0.925 -3.21,-2.178 -4.617,-3.759c-1.407,-1.581 -2.931,-3.579 -4.572,-5.992c-1.642,-2.412 -2.943,-4.184 -3.903,-5.317c-5.491,-6.751 -10.059,-11.135 -13.705,-13.152c-0.621,-0.343 -1.223,-0.627 -1.808,-0.851c-2.339,-0.897 -4.08,-0.77 -5.225,0.383c-0.21,0.38 -0.399,0.722 -0.567,1.025c-0.672,1.215 -0.649,2.518 0.07,3.908c0.939,1.71 1.135,3.059 0.589,4.046c0,0 -0.021,0.038 -0.063,0.114c-3.57,-1.975 -6.586,-4.413 -9.049,-7.314c-2.463,-2.9 -4.37,-6.312 -5.721,-10.234c-1.351,-3.922 -2.308,-7.304 -2.869,-10.144c-0.561,-2.84 -1.095,-6.583 -1.6,-11.228c-0.086,-0.742 -0.137,-2.308 -0.153,-4.698c-0.017,-2.39 -0.111,-4.327 -0.282,-5.811c-0.171,-1.484 -0.527,-2.722 -1.069,-3.716c-0.601,-1.424 -1.623,-2.535 -3.066,-3.334c-0.608,-0.336 -1.257,-0.596 -1.949,-0.781c-2.455,-0.763 -4.418,-0.262 -5.891,1.502c-0.16,0.11 -0.282,0.241 -0.366,0.393c-0.336,0.608 -0.626,1.489 -0.868,2.645c-0.293,1.425 -0.552,2.522 -0.779,3.29c-0.008,0.194 -0.033,0.329 -0.075,0.405c-0.336,0.608 -0.997,1.085 -1.983,1.432c-1.461,-1.304 -2.539,-2.942 -3.233,-4.914c-0.695,-1.972 -1.073,-3.619 -1.134,-4.943c-0.061,-1.324 -0.069,-3.461 -0.024,-6.412c0.104,-8.077 1.173,-14.133 3.207,-18.167c0.563,-1.375 1.348,-2.974 2.357,-4.797c1.387,-2.506 3.14,-5.406 5.259,-8.697c2.119,-3.292 3.83,-6.115 5.133,-8.47c0.967,-1.747 1.689,-3.232 2.168,-4.455c1.067,-2.287 1.468,-4.446 1.203,-6.477c-0.163,-1.678 -1.118,-3 -2.865,-3.966c-0.304,-0.168 -0.667,-0.319 -1.088,-0.453c-1.721,-0.655 -3.771,-0.177 -6.15,1.433c-2.379,1.61 -4.117,2.509 -5.212,2.696c-0.372,-0.404 -0.575,-0.889 -0.61,-1.453c-0.035,-0.565 -0.014,-1.05 0.061,-1.455c0.075,-0.405 0.243,-0.932 0.503,-1.582c0.26,-0.65 0.377,-1.13 0.352,-1.442c0.671,-2.109 1.595,-4.227 2.772,-6.353c0.967,-1.747 2.127,-3.486 3.482,-5.216c2.919,-3.841 6.068,-6.663 9.446,-8.464c3.108,-1.852 8.132,-3.536 15.073,-5.053c6.941,-1.517 11.915,-2.931 14.923,-4.243c5.064,-2.159 8.184,-4.301 9.36,-6.428c0.925,-1.671 0.526,-3.281 -1.197,-4.829c-0.186,-0.202 -0.431,-0.387 -0.734,-0.555c-0.835,-0.462 -1.97,-0.743 -3.403,-0.842c-1.551,-0.065 -2.707,-0.307 -3.467,-0.728c-0.152,-0.084 -0.283,-0.206 -0.393,-0.366c1.675,-1.95 5.305,-3.761 10.892,-5.431c6.355,-1.444 14.939,-0.464 25.754,2.941c5.129,1.846 8.444,2.49 9.944,1.931c1.062,-0.305 1.866,-0.952 2.412,-1.939c0.546,-0.987 0.73,-1.903 0.552,-2.745c-0.178,-0.843 -0.376,-1.473 -0.591,-1.89c-0.216,-0.417 -0.809,-1.093 -1.78,-2.027c-0.971,-0.934 -1.605,-1.582 -1.9,-1.944c2.334,-0.99 4.779,-0.927 7.336,0.19c0.532,0.294 1.063,0.588 1.595,0.883c1.823,1.009 3.52,2.245 5.09,3.71c1.9,1.944 4.142,4.078 6.726,6.401c1.799,1.59 3.419,2.785 4.863,3.583c0.684,0.378 1.312,0.676 1.886,0.895c2.633,1.159 5.162,1.07 7.588,-0.266c1.112,-0.575 1.962,-1.395 2.551,-2.458c0.672,-1.215 0.948,-2.7 0.827,-4.453c-0.26,-4.013 -5.175,-9.114 -14.747,-15.303c0.328,-0.414 0.709,-0.699 1.143,-0.856c0.434,-0.157 0.836,-0.256 1.207,-0.299c0.371,-0.043 0.837,-0.033 1.398,0.029c0.561,0.062 0.976,0.118 1.246,0.169c0.27,0.05 0.721,0.176 1.354,0.377c0.633,0.201 0.987,0.323 1.063,0.365c1.569,0.571 3.113,1.276 4.632,2.117c1.519,0.841 3.051,1.837 4.596,2.99c11.572,7.594 18.957,19.617 22.156,36.069c0.195,0.902 0.812,5.211 1.849,12.928c1.038,7.717 2.158,13.446 3.362,17.188c0.17,0.59 0.699,2.098 1.589,4.525c0.889,2.427 1.373,4.108 1.45,5.044c-0.099,1.433 -0.929,3.876 -2.492,7.327c-1.562,3.451 -2.545,5.809 -2.947,7.075c-0.403,1.265 -0.693,2.642 -0.872,4.131c-0.179,1.488 -0.317,3.173 -0.415,5.053c-0.098,1.88 -0.188,3.343 -0.271,4.389c-0.747,6.729 -1.73,11.196 -2.949,13.398c-0.126,0.228 -0.231,0.418 -0.315,0.57c-0.648,0.633 -1.6,1.322 -2.855,2.066c-1.255,0.744 -2.203,1.336 -2.843,1.775c-0.488,0.524 -1.182,1.33 -2.083,2.419c-0.9,1.089 -1.586,1.702 -2.058,1.837c-1.694,0.551 -3.595,0.491 -5.704,-0.18c-0.768,-0.226 -1.531,-0.55 -2.291,-0.97c-1.215,-0.672 -2.342,-1.594 -3.381,-2.764Z" style="fill:url(#_Linear3);fill-rule:nonzero;"/><path d="M1580.845,521.318c-0.201,-1.388 -0.671,-2.72 -1.41,-3.998c-2.304,-3.982 -7.085,-7.133 -14.344,-9.452c-7.342,-1.77 -12.29,-1.916 -14.845,-0.438c-0.15,0.087 -0.263,0.152 -0.338,0.196c-1.973,1.443 -2.908,4.941 -2.803,10.497c0.046,4.587 0.895,8.307 2.547,11.163c0.391,0.676 0.798,1.293 1.221,1.851c0.368,0.289 1.14,0.845 2.318,1.667c0.897,0.684 1.542,1.365 1.933,2.041c0.043,0.075 0.109,0.188 0.196,0.338c-5.062,1.825 -8.673,1.909 -10.836,0.251c-0.961,-0.447 -1.897,-1.46 -2.81,-3.038c-0.652,-1.127 -1.306,-2.604 -1.962,-4.431c-0.972,-2.547 -1.871,-4.534 -2.697,-5.961c-0.609,-1.052 -1.162,-1.835 -1.66,-2.349c-1.277,-1.167 -2.634,-1.736 -4.071,-1.706c-1.437,0.029 -3.169,0.329 -5.196,0.9c-2.027,0.571 -3.821,0.806 -5.382,0.707c0.155,-1.293 0.731,-2.68 1.73,-4.16c0.999,-1.48 1.538,-2.845 1.617,-4.095c0.06,-0.937 -0.302,-2.082 -1.084,-3.434c-0.217,-0.376 -0.478,-0.827 -0.782,-1.352c-2.245,-3.014 -5.192,-4.468 -8.841,-4.362c-2.681,0.047 -5.298,0.809 -7.853,2.287c-1.133,0.655 -2.238,1.445 -3.316,2.37c-2.436,1.71 -4.496,4.506 -6.18,8.389c-1.888,4.402 -2.615,9.46 -2.181,15.176c0.434,5.716 2.369,11.541 5.803,17.477c0.261,0.451 0.522,0.902 0.782,1.352c3.999,6.913 9.127,12.922 15.383,18.027c6.711,5.544 13.389,9.302 20.035,11.274c8.261,2.341 17.149,2.564 26.663,0.671c7.948,-1.489 15.821,-4.49 23.621,-9.001c1.576,-0.911 3.145,-1.919 4.707,-3.024c16.152,-10.748 25.341,-25.591 27.568,-44.53c1.999,-17.603 -2.087,-35.196 -12.258,-52.778c-0.739,-1.277 -1.5,-2.592 -2.282,-3.945c-2.478,-4.283 -4.815,-7.844 -7.013,-10.685c-2.198,-2.84 -5.246,-5.84 -9.144,-9.001c-3.897,-3.161 -7.989,-5.307 -12.275,-6.437c-5.152,-1.232 -8.824,-1.213 -11.017,0.056c-0.392,0.227 -0.763,0.491 -1.111,0.793c-0.802,0.965 -1.007,1.786 -0.616,2.462c0.087,0.15 0.196,0.338 0.326,0.564c0.304,0.526 0.738,1.102 1.301,1.729c0.563,0.627 0.997,1.203 1.301,1.729c0.13,0.225 0.239,0.413 0.326,0.564c-0.688,0.197 -2.631,0.219 -5.83,0.063c-2.886,-0.135 -5.344,0.384 -7.373,1.557c-0.225,0.13 -0.488,0.283 -0.789,0.456c-0.771,0.747 -1.608,1.858 -2.51,3.332c-0.902,1.475 -1.685,2.504 -2.35,3.089c-3.105,-6.928 -3.554,-13.338 -1.346,-19.228c2.07,-5.61 6.26,-10.24 12.572,-13.892c0.376,-0.217 0.714,-0.413 1.014,-0.587c0.044,0.076 0.088,0.153 0.132,0.229c0.308,0.532 0.063,1.409 -0.734,2.632c-0.797,1.223 -0.975,2.214 -0.535,2.975c0.043,0.075 0.109,0.189 0.198,0.342c2.48,-1.434 5.886,-2.263 10.22,-2.486c4.333,-0.224 7.214,-0.749 8.641,-1.574c0.558,-0.423 0.663,-0.935 0.315,-1.536c-0.174,-0.301 -0.488,-0.67 -0.943,-1.109c-0.897,-0.684 -1.498,-1.289 -1.802,-1.815c-0.13,-0.225 -0.202,-0.435 -0.213,-0.629c3.808,-0.699 7.21,-0.235 10.206,1.391c2.997,1.626 6.303,4.351 9.92,8.176c0.206,0.182 0.674,0.688 1.405,1.519c0.731,0.831 1.281,1.39 1.648,1.679c0.368,0.289 0.886,0.666 1.556,1.13c0.67,0.465 1.331,0.784 1.984,0.958c0.652,0.174 1.366,0.238 2.141,0.19c0.676,-0.391 0.863,-1.151 0.561,-2.28c-0.302,-1.129 -0.325,-1.818 -0.068,-2.067c5.183,0.812 9.992,5.05 14.426,12.714c0.478,0.827 1.154,2.341 2.027,4.544c0.514,1.408 1.053,2.6 1.618,3.577c0.304,0.526 0.624,0.993 0.96,1.4c0.846,1.115 2.012,1.744 3.499,1.887c0.15,-0.087 0.301,-0.174 0.451,-0.261c0.676,-0.391 1.007,-1.034 0.991,-1.927c0.048,-1.131 0.372,-1.87 0.973,-2.218c1.091,0.673 2.136,1.873 3.136,3.601c0.391,0.676 0.744,1.375 1.057,2.096c1.421,2.989 2.48,5.71 3.179,8.164c0.7,2.453 1.537,5.278 2.511,8.476c0.975,3.197 1.781,5.613 2.42,7.25c0.522,0.902 1,1.728 1.434,2.48c2.043,3.531 4.091,4.904 6.143,4.118c0.075,-0.043 0.15,-0.087 0.225,-0.13c0.902,-0.522 1.327,-1.52 1.276,-2.995c-0.063,-1.669 0.335,-2.801 1.193,-3.398c0.553,0.783 1.047,1.55 1.482,2.302c2.217,3.832 3.356,7.535 3.418,11.11c0.066,4.274 -0.997,9.502 -3.187,15.683c-2.19,6.181 -3.48,10.236 -3.868,12.166l-0.267,1.358c-0.135,0.981 -0.218,1.53 -0.25,1.649c-0.032,0.119 -0.11,0.59 -0.235,1.414c-0.125,0.824 -0.149,1.39 -0.072,1.696c0.077,0.306 0.128,0.828 0.154,1.566c0.025,0.737 0.128,1.305 0.308,1.702c0.18,0.397 0.422,0.859 0.726,1.385c0.012,0.194 0.039,0.328 0.083,0.403c0.217,0.376 0.532,0.745 0.943,1.109c0.411,0.364 0.903,0.781 1.476,1.252c0.15,-0.087 0.301,-0.174 0.451,-0.261c0.751,-0.435 1.598,-1.225 2.539,-2.372c0.502,-0.692 1.092,-1.233 1.768,-1.624c0.451,-0.261 0.945,-0.446 1.483,-0.557c0.13,0.225 0.239,0.413 0.326,0.564c1.304,2.254 0.886,5.605 -1.255,10.052c-1.053,2.514 -3.134,5.85 -6.245,10.006c-3.111,4.156 -5.28,7.342 -6.506,9.555c-3.117,5.013 -4.133,8.458 -3.046,10.336c0.043,0.075 0.087,0.15 0.13,0.225c0.759,0.965 1.488,1.446 2.188,1.442c0.581,-0.035 1.398,-0.357 2.45,-0.966c0.15,-0.087 2.667,-1.543 3.043,-1.76c2.232,3.859 -0.135,9.042 -7.101,15.548c-0.955,0.949 -2.259,1.902 -3.912,2.858c-3.081,1.782 -7.255,3.495 -12.522,5.138c-1.064,0.415 -2.537,0.816 -4.419,1.203c-1.882,0.387 -3.377,0.75 -4.484,1.09c-0.838,0.284 -1.671,0.666 -2.497,1.144c-0.301,0.174 -0.639,0.369 -1.014,0.587c-1.234,0.814 -2.159,1.901 -2.777,3.261c-0.111,1.368 0.072,2.465 0.55,3.292c0.13,0.225 0.298,0.429 0.504,0.611c0.834,0.922 1.69,1.404 2.568,1.448c0.878,0.044 1.985,0.181 3.321,0.41c1.336,0.23 2.329,0.558 2.977,0.985c-0.143,1.487 -1.191,2.795 -3.145,3.925c-1.052,0.609 -2.304,1.132 -3.755,1.57c-1.653,0.956 -3.52,1.63 -5.6,2.022c-2.08,0.392 -4.577,0.669 -7.49,0.834c-2.913,0.165 -5.102,0.368 -6.568,0.608c-8.614,1.231 -14.725,2.889 -18.332,4.976c-0.614,0.355 -1.168,0.726 -1.661,1.111c-1.973,1.543 -2.761,3.101 -2.362,4.676c0.217,0.376 0.413,0.714 0.587,1.014c0.695,1.202 1.824,1.853 3.386,1.952c1.949,0.076 3.206,0.602 3.771,1.579c0,0 0.022,0.038 0.065,0.113c-3.531,2.043 -7.174,3.373 -10.929,3.991c-3.754,0.618 -7.661,0.496 -11.719,-0.366c-4.058,-0.861 -7.45,-1.783 -10.173,-2.764c-2.724,-0.981 -6.207,-2.451 -10.449,-4.41c-0.68,-0.309 -2.049,-1.071 -4.106,-2.288c-2.058,-1.216 -3.766,-2.133 -5.126,-2.751c-1.36,-0.617 -2.605,-0.95 -3.736,-0.998c-1.53,-0.218 -3.009,0.086 -4.437,0.912c-0.601,0.348 -1.159,0.771 -1.673,1.269c-1.918,1.711 -2.5,3.653 -1.746,5.824c0.012,0.194 0.061,0.366 0.148,0.516c0.348,0.601 0.954,1.303 1.82,2.106c1.071,0.985 1.878,1.772 2.419,2.361c0.162,0.107 0.265,0.198 0.308,0.273c0.348,0.601 0.417,1.414 0.207,2.438c-1.87,0.581 -3.83,0.661 -5.878,0.241c-2.048,-0.42 -3.655,-0.944 -4.821,-1.573c-1.166,-0.629 -3.002,-1.723 -5.509,-3.282c-6.87,-4.249 -11.511,-8.283 -13.922,-12.103c-0.889,-1.19 -1.855,-2.687 -2.899,-4.491c-1.434,-2.48 -3.017,-5.475 -4.748,-8.987c-1.731,-3.512 -3.27,-6.432 -4.617,-8.761c-1,-1.728 -1.901,-3.112 -2.703,-4.152c-1.411,-2.092 -3.055,-3.548 -4.933,-4.367c-1.522,-0.724 -3.147,-0.586 -4.875,0.414c-0.301,0.174 -0.617,0.407 -0.949,0.7c-1.447,1.138 -2.094,3.142 -1.938,6.01c0.155,2.869 0.031,4.821 -0.373,5.857c-0.538,0.111 -1.058,0.035 -1.56,-0.226c-0.502,-0.261 -0.907,-0.528 -1.216,-0.801c-0.308,-0.273 -0.674,-0.688 -1.097,-1.246c-0.423,-0.558 -0.775,-0.906 -1.055,-1.044c-1.462,-1.661 -2.802,-3.544 -4.019,-5.647c-1,-1.728 -1.893,-3.618 -2.679,-5.671c-1.79,-4.48 -2.587,-8.632 -2.392,-12.456c0.013,-3.618 1.156,-8.792 3.43,-15.523c2.274,-6.731 3.623,-11.723 4.047,-14.977c0.757,-5.452 0.527,-9.23 -0.69,-11.334c-0.956,-1.653 -2.542,-2.14 -4.756,-1.461c-0.269,0.055 -0.554,0.17 -0.854,0.344c-0.827,0.478 -1.651,1.306 -2.474,2.484c-0.854,1.297 -1.657,2.162 -2.409,2.597c-0.15,0.087 -0.322,0.136 -0.516,0.148c-0.81,-2.44 -0.492,-6.485 0.953,-12.134c2.034,-6.191 7.295,-13.045 15.783,-20.563c4.224,-3.446 6.482,-5.956 6.775,-7.53c0.285,-1.067 0.145,-2.09 -0.42,-3.066c-0.565,-0.977 -1.255,-1.606 -2.069,-1.887c-0.814,-0.281 -1.456,-0.436 -1.924,-0.466c-0.469,-0.03 -1.353,0.131 -2.654,0.482c-1.301,0.351 -2.183,0.561 -2.645,0.628c0.353,-2.511 1.666,-4.574 3.94,-6.19c0.526,-0.304 1.052,-0.609 1.578,-0.913c1.803,-1.043 3.737,-1.861 5.801,-2.453c2.645,-0.628 5.629,-1.451 8.95,-2.47c2.29,-0.723 4.148,-1.497 5.576,-2.323c0.676,-0.391 1.256,-0.777 1.738,-1.156c2.349,-1.66 3.576,-3.874 3.679,-6.641c0.079,-1.249 -0.185,-2.4 -0.794,-3.452c-0.695,-1.202 -1.826,-2.203 -3.391,-3.002c-3.574,-1.844 -10.478,-0.256 -20.712,4.762c-0.186,-0.494 -0.234,-0.968 -0.145,-1.42c0.089,-0.453 0.211,-0.849 0.365,-1.189c0.154,-0.34 0.403,-0.734 0.745,-1.183c0.342,-0.449 0.604,-0.776 0.786,-0.981c0.182,-0.206 0.522,-0.528 1.02,-0.966c0.498,-0.439 0.785,-0.68 0.86,-0.723c1.297,-1.051 2.697,-2.012 4.2,-2.881c1.503,-0.869 3.146,-1.669 4.929,-2.4c12.469,-6.01 26.578,-6.149 42.328,-0.419c0.874,0.297 4.885,1.987 12.035,5.072c7.15,3.084 12.638,5.074 16.465,5.969c0.593,0.158 2.159,0.481 4.697,0.968c2.538,0.487 4.228,0.938 5.07,1.354c1.178,0.823 2.844,2.792 4.998,5.909c2.154,3.116 3.669,5.173 4.547,6.17c0.877,0.997 1.908,1.955 3.092,2.874c1.184,0.92 2.557,1.906 4.118,2.958c1.561,1.052 2.769,1.883 3.623,2.492c5.384,4.106 8.706,7.248 9.967,9.427c0.13,0.225 0.239,0.413 0.326,0.564c0.209,0.882 0.31,2.052 0.301,3.511c-0.008,1.459 0.011,2.576 0.058,3.351c0.197,0.688 0.531,1.698 1.001,3.031c0.47,1.333 0.642,2.236 0.515,2.711c-0.4,1.736 -1.43,3.335 -3.092,4.797c-0.589,0.541 -1.26,1.03 -2.011,1.464c-1.202,0.695 -2.572,1.187 -4.111,1.475Z" style="fill:url(#_Linear4);fill-rule:nonzero;"/><path d="M3582.565,280.097c0,0 -5.157,-7.261 -15.471,-21.782l13.195,-15.443l25.169,10.03c0,0 1.354,-1.184 4.062,-3.551c8.663,-5.729 15.69,-9.544 21.082,-11.445c0,0 4.395,-1.269 13.185,-3.806c0,0 2.404,-10.163 7.211,-30.489l20.478,-0.315l10.824,30.828c0,0 3.713,0.832 11.14,2.496c7.427,1.664 13.591,4.305 18.493,7.922c0,0 7.867,-5.666 23.601,-16.999l15.641,13.364l-10.833,26.71c2.35,3.263 4.744,6.508 7.183,9.734c2.439,3.226 5.004,7.473 7.696,12.741c2.692,5.268 3.883,8.284 3.573,9.047c0,0 10.059,1.858 30.176,5.574l1.67,20.095l-28.043,12.176c-0.422,7.061 -0.993,12.253 -1.714,15.576c-0.721,3.323 -2.261,8.373 -4.617,15.151c0,0 -1.158,2.093 -3.475,6.279l17.46,25.194l-13.364,15.641l-28.265,-11.819c0,0 -3.136,2.401 -9.409,7.203c-7.168,4.38 -12.638,7.241 -16.412,8.584c-3.773,1.343 -5.945,2.114 -6.514,2.312c-0.569,0.199 -1.955,0.384 -4.158,0.557c0,0 -1.073,9.474 -3.218,28.421l-20.701,2.179l-12.953,-28.537c-9.886,-1.391 -18.575,-3.75 -26.066,-7.077c-7.49,-3.327 -11.819,-5.376 -12.988,-6.147c0,0 -6.97,5.084 -20.91,15.252l-15.344,-13.11l6.434,-14.947l4.539,-10.725c-0.594,-0.507 -1.846,-1.949 -3.755,-4.324c-1.909,-2.376 -3.094,-3.762 -3.556,-4.157c-0.462,-0.395 -1.949,-3.097 -4.462,-8.107c-2.513,-5.01 -4.528,-10.97 -6.046,-17.879c0,0 -10.28,-1.933 -30.84,-5.798l-1.416,-20.392l29.104,-11.613c-0.01,-0.122 0.311,-2.703 0.962,-7.741c1.509,-10.585 5.082,-19.178 10.721,-25.777c0.338,-0.396 0.648,-0.759 0.93,-1.089Zm23.764,-3.159c-14.284,17.253 -20.595,36.465 -18.933,57.638c0.722,9.979 3.402,19.805 8.04,29.476c4.638,9.672 10.917,17.891 18.837,24.658c7.92,6.767 17.133,11.785 27.641,15.054c10.508,3.269 20.766,4.527 30.773,3.772c10.007,-0.755 19.781,-3.508 29.321,-8.259c9.54,-4.751 17.806,-11.218 24.798,-19.402c6.992,-8.184 12.076,-17.341 15.252,-27.472c3.176,-10.131 4.386,-20.201 3.632,-30.208c-0.755,-10.007 -3.508,-19.781 -8.259,-29.321c-4.751,-9.54 -11.218,-17.806 -19.402,-24.798c-8.184,-6.992 -17.357,-12.09 -27.522,-15.294c-20.517,-6.455 -40.343,-4.899 -59.479,4.669c-8.768,4.383 -17.001,10.878 -24.699,19.486Z" style="fill:url(#_Linear5);fill-rule:nonzero;"/><path d="M5306.627,280.145c0,0 2.554,8.532 7.662,25.595l-17.453,10.391l-20.618,-17.577c0,0 -1.662,0.687 -4.987,2.06c-10.043,2.645 -17.923,4.003 -23.64,4.073c0,0 -4.57,-0.209 -13.709,-0.627c0,0 -5.538,8.854 -16.615,26.562l-19.496,-6.274l-0.358,-32.671c0,0 -3.25,-1.98 -9.749,-5.94c-6.5,-3.96 -11.49,-8.439 -14.972,-13.438c0,0 -9.269,2.842 -27.808,8.525l-10.525,-17.677l18.832,-21.82c-1.178,-3.845 -2.404,-7.686 -3.679,-11.524c-1.275,-3.838 -2.341,-8.683 -3.2,-14.537c-0.858,-5.854 -1.019,-9.092 -0.481,-9.715c0,0 -8.93,-4.988 -26.79,-14.963l4.868,-19.567l30.468,-2.531c2.666,-6.552 4.873,-11.286 6.622,-14.202c1.75,-2.915 4.828,-7.205 9.236,-12.867c0,0 1.769,-1.61 5.307,-4.831l-8.451,-29.465l17.677,-10.525l22.976,20.265c0,0 3.741,-1.268 11.223,-3.803c8.194,-1.848 14.294,-2.802 18.299,-2.863c4.005,-0.061 6.309,-0.094 6.912,-0.099c0.603,-0.005 1.975,0.264 4.117,0.807c0,0 4.056,-8.628 12.169,-25.884l20.305,4.58l3.109,31.184c8.917,4.491 16.389,9.513 22.415,15.068c6.026,5.555 9.468,8.885 10.328,9.99c0,0 8.233,-2.578 24.699,-7.734l10.325,17.341l-10.891,12.091l-7.741,8.7c0.4,0.671 1.123,2.438 2.169,5.301c1.045,2.863 1.723,4.556 2.034,5.078c0.311,0.522 0.852,3.559 1.624,9.111c0.772,5.552 0.768,11.843 -0.012,18.874c0,0 9.116,5.13 27.347,15.39l-5.203,19.767l-31.291,1.658c-0.03,0.119 -1.162,2.46 -3.396,7.023c-4.826,9.541 -10.969,16.532 -18.427,20.973c-0.448,0.266 -0.858,0.511 -1.231,0.733Zm-23.521,-4.636c19.066,-11.755 31.209,-27.926 36.43,-48.512c2.519,-9.683 3.134,-19.849 1.846,-30.497c-1.289,-10.649 -4.597,-20.448 -9.926,-29.399c-5.329,-8.95 -12.445,-16.66 -21.347,-23.129c-8.903,-6.469 -18.214,-10.952 -27.935,-13.449c-9.72,-2.497 -19.86,-3.026 -30.42,-1.589c-10.56,1.438 -20.464,4.91 -29.713,10.417c-9.249,5.507 -17.003,12.548 -23.262,21.124c-6.259,8.576 -10.638,17.724 -13.135,27.444c-2.497,9.72 -3.026,19.86 -1.589,30.42c1.438,10.56 4.91,20.464 10.417,29.713c5.507,9.249 12.559,17.022 21.157,23.318c17.36,12.698 36.637,17.587 57.831,14.667c9.711,-1.337 19.593,-4.846 29.646,-10.528Z" style="fill:url(#_Linear6);fill-rule:nonzero;"/><path d="M3057.297,168.526c0.521,-1.302 0.781,-2.691 0.781,-4.167c0,-4.601 -2.561,-9.722 -7.682,-15.365c-5.469,-5.208 -9.679,-7.812 -12.63,-7.812l-0.391,0c-2.431,0.26 -4.991,2.821 -7.682,7.682c-2.257,3.993 -3.385,7.639 -3.385,10.938c0,0.781 0.043,1.519 0.13,2.214c0.174,0.434 0.564,1.302 1.172,2.604c0.434,1.042 0.651,1.953 0.651,2.734l0,0.391c-5.295,-0.955 -8.464,-2.691 -9.505,-5.208c-0.608,-0.868 -0.911,-2.214 -0.911,-4.036c0,-1.302 0.174,-2.908 0.521,-4.818c0.434,-2.691 0.651,-4.861 0.651,-6.51c0,-1.215 -0.087,-2.17 -0.26,-2.865c-0.521,-1.649 -1.411,-2.821 -2.669,-3.516c-1.259,-0.694 -2.908,-1.302 -4.948,-1.823c-2.04,-0.521 -3.711,-1.215 -5.013,-2.083c0.781,-1.042 1.975,-1.953 3.581,-2.734c1.606,-0.781 2.756,-1.693 3.451,-2.734c0.521,-0.781 0.781,-1.953 0.781,-3.516l0,-1.562c-0.434,-3.733 -2.257,-6.467 -5.469,-8.203c-2.344,-1.302 -4.991,-1.953 -7.943,-1.953c-1.309,0 -2.661,0.13 -4.057,0.391c-2.965,0.26 -6.148,1.649 -9.55,4.167c-3.838,2.865 -7.001,6.879 -9.487,12.044c-2.486,5.165 -3.729,11.176 -3.729,18.034l0,1.562c0,7.986 1.43,15.755 4.289,23.307c3.033,8.16 6.932,14.757 11.696,19.792c5.979,6.163 13.56,10.807 22.744,13.932c7.625,2.691 15.943,4.036 24.953,4.036c1.82,0 3.683,-0.087 5.589,-0.26c19.363,-1.215 34.75,-9.462 46.161,-24.74c10.546,-14.236 15.818,-31.51 15.818,-51.823l0,-4.557c0,-4.948 -0.24,-9.201 -0.72,-12.76c-0.48,-3.559 -1.616,-7.682 -3.408,-12.37c-1.79,-4.688 -4.258,-8.594 -7.402,-11.719c-3.843,-3.646 -7.031,-5.469 -9.564,-5.469c-0.453,0 -0.906,0.043 -1.359,0.13c-1.177,0.434 -1.766,1.042 -1.766,1.823l0,0.651c0,0.608 0.087,1.324 0.26,2.148c0.174,0.825 0.26,1.541 0.26,2.148l0,0.651c-0.694,-0.174 -2.387,-1.128 -5.078,-2.865c-2.431,-1.562 -4.818,-2.344 -7.161,-2.344l-0.911,0c-1.042,0.26 -2.322,0.803 -3.841,1.628c-1.519,0.825 -2.713,1.324 -3.581,1.497c0.781,-7.552 3.602,-13.325 8.464,-17.318c4.601,-3.819 10.547,-5.729 17.839,-5.729l1.172,0l0,0.264c0,0.614 -0.651,1.251 -1.953,1.91c-1.302,0.659 -1.953,1.428 -1.953,2.307l0,0.395c2.865,0 6.228,0.989 10.091,2.966c3.863,1.976 6.619,2.964 8.268,2.964c0.694,-0.087 1.042,-0.477 1.042,-1.172c0,-0.347 -0.087,-0.825 -0.26,-1.432c-0.434,-1.042 -0.651,-1.866 -0.651,-2.474c0,-0.26 0.043,-0.477 0.13,-0.651c3.646,1.302 6.359,3.407 8.138,6.315c1.78,2.908 3.277,6.923 4.492,12.044c0.087,0.26 0.239,0.933 0.456,2.018c0.217,1.085 0.412,1.845 0.586,2.279c0.174,0.434 0.434,1.02 0.781,1.758c0.347,0.738 0.76,1.345 1.237,1.823c0.477,0.477 1.063,0.89 1.758,1.237c0.781,0 1.324,-0.564 1.628,-1.693c0.304,-1.128 0.629,-1.736 0.977,-1.823c4.08,3.299 6.12,9.375 6.12,18.229c0,0.955 -0.174,2.604 -0.521,4.948c-0.26,1.476 -0.391,2.778 -0.391,3.906c0,0.608 0.043,1.172 0.13,1.693c0.174,1.389 0.868,2.517 2.083,3.385l0.521,0c0.781,0 1.389,-0.391 1.823,-1.172c0.608,-0.955 1.259,-1.432 1.953,-1.432c0.608,1.128 0.911,2.691 0.911,4.688c0,0.781 -0.045,1.562 -0.134,2.344c-0.267,3.299 -0.713,6.185 -1.337,8.659c-0.623,2.474 -1.313,5.339 -2.071,8.594c-0.757,3.255 -1.269,5.751 -1.536,7.487l0,2.865c0,4.08 1.085,6.293 3.255,6.641l0.26,0c1.042,0 1.91,-0.651 2.604,-1.953c0.781,-1.476 1.693,-2.257 2.734,-2.344c0.087,0.955 0.13,1.866 0.13,2.734c0,4.427 -0.868,8.203 -2.604,11.328c-2.083,3.733 -5.621,7.726 -10.612,11.979c-4.991,4.253 -8.138,7.118 -9.44,8.594l-0.911,1.042c-0.608,0.781 -0.955,1.215 -1.042,1.302c-0.087,0.087 -0.391,0.456 -0.911,1.107c-0.521,0.651 -0.825,1.128 -0.911,1.432c-0.087,0.304 -0.304,0.781 -0.651,1.432c-0.347,0.651 -0.543,1.194 -0.586,1.628c-0.043,0.434 -0.065,0.955 -0.065,1.562c-0.087,0.174 -0.13,0.304 -0.13,0.391c0,0.434 0.087,0.911 0.26,1.432c0.174,0.521 0.391,1.128 0.651,1.823l0.521,0c0.868,0 1.997,-0.26 3.385,-0.781c0.781,-0.347 1.562,-0.521 2.344,-0.521c0.521,0 1.042,0.087 1.562,0.26l0,0.651c0,2.604 -2.04,5.295 -6.12,8.073c-2.17,1.649 -5.642,3.494 -10.417,5.534c-4.774,2.04 -8.247,3.711 -10.417,5.013c-5.208,2.778 -7.812,5.252 -7.812,7.422l0,0.26c0.174,1.215 0.564,1.997 1.172,2.344c0.521,0.26 1.389,0.391 2.604,0.391l3.516,0c0,4.458 -4.644,7.759 -13.932,9.902c-1.302,0.343 -2.908,0.515 -4.818,0.515c-3.559,0 -8.03,-0.608 -13.411,-1.823c-1.128,-0.174 -2.604,-0.564 -4.427,-1.172c-1.823,-0.608 -3.299,-1.042 -4.427,-1.302c-0.868,-0.174 -1.78,-0.26 -2.734,-0.26l-1.172,0c-1.476,0.087 -2.821,0.564 -4.036,1.432c-0.781,1.128 -1.172,2.17 -1.172,3.125c0,0.26 0.043,0.521 0.13,0.781c0.26,1.215 0.76,2.062 1.497,2.539c0.738,0.477 1.628,1.15 2.669,2.018c1.042,0.868 1.736,1.649 2.083,2.344c-0.868,1.215 -2.431,1.823 -4.688,1.823c-1.215,0 -2.561,-0.174 -4.036,-0.521c-1.91,0 -3.863,-0.351 -5.859,-1.054c-1.997,-0.703 -4.297,-1.712 -6.901,-3.029c-2.604,-1.316 -4.601,-2.237 -5.99,-2.763c-8.073,-3.248 -14.193,-4.873 -18.359,-4.873c-0.709,0 -1.374,0.043 -1.994,0.13c-2.481,0.347 -3.943,1.302 -4.386,2.865l0,1.172c0,1.389 0.651,2.517 1.953,3.385c1.649,1.042 2.474,2.127 2.474,3.255l0,0.13c-4.08,0 -7.899,-0.673 -11.458,-2.018c-3.559,-1.345 -6.879,-3.407 -9.961,-6.185c-3.082,-2.778 -5.556,-5.273 -7.422,-7.487c-1.866,-2.214 -4.145,-5.23 -6.836,-9.049c-0.434,-0.608 -1.237,-1.953 -2.409,-4.036c-1.172,-2.083 -2.192,-3.733 -3.06,-4.948c-0.868,-1.215 -1.78,-2.127 -2.734,-2.734c-1.215,-0.955 -2.648,-1.432 -4.297,-1.432c-0.694,0 -1.389,0.087 -2.083,0.26c-2.517,0.521 -3.993,1.91 -4.427,4.167c-0.087,0.174 -0.13,0.347 -0.13,0.521c0,0.694 0.174,1.606 0.521,2.734c0.434,1.389 0.738,2.474 0.911,3.255c0.087,0.174 0.13,0.304 0.13,0.391c0,0.694 -0.347,1.432 -1.042,2.214c-1.91,-0.434 -3.646,-1.345 -5.208,-2.734c-1.562,-1.389 -2.691,-2.648 -3.385,-3.776c-0.694,-1.128 -1.736,-2.995 -3.125,-5.599c-3.819,-7.118 -5.816,-12.934 -5.99,-17.448c-0.174,-1.476 -0.26,-3.255 -0.26,-5.339c0,-2.865 0.13,-6.25 0.391,-10.156c0.26,-3.906 0.391,-7.205 0.391,-9.896c0,-1.997 -0.087,-3.646 -0.26,-4.948c-0.174,-2.517 -0.868,-4.601 -2.083,-6.25c-0.955,-1.389 -2.431,-2.083 -4.427,-2.083c-0.347,0 -0.738,0.043 -1.172,0.13c-1.823,0.26 -3.385,1.671 -4.688,4.232c-1.302,2.561 -2.387,4.188 -3.255,4.883c-0.521,-0.174 -0.933,-0.499 -1.237,-0.977c-0.304,-0.477 -0.521,-0.911 -0.651,-1.302c-0.13,-0.391 -0.239,-0.933 -0.326,-1.628c-0.087,-0.694 -0.217,-1.172 -0.391,-1.432c-0.434,-2.17 -0.651,-4.47 -0.651,-6.901c0,-1.997 0.174,-4.08 0.521,-6.25c0.694,-4.774 2.083,-8.767 4.167,-11.979c1.823,-3.125 5.404,-7.031 10.742,-11.719c5.339,-4.688 9.006,-8.333 11.003,-10.938c3.385,-4.34 5.078,-7.726 5.078,-10.156c0,-1.91 -1.128,-3.125 -3.385,-3.646c-0.26,-0.087 -0.564,-0.13 -0.911,-0.13c-0.955,0 -2.083,0.304 -3.385,0.911c-1.389,0.694 -2.517,1.042 -3.385,1.042c-0.174,0 -0.347,-0.043 -0.521,-0.13c0.521,-2.517 2.821,-5.859 6.901,-10.026c4.861,-4.34 12.847,-7.639 23.958,-9.896c5.382,-0.868 8.594,-1.91 9.635,-3.125c0.781,-0.781 1.172,-1.736 1.172,-2.865c0,-1.128 -0.282,-2.018 -0.846,-2.669c-0.564,-0.651 -1.042,-1.107 -1.432,-1.367c-0.391,-0.26 -1.237,-0.564 -2.539,-0.911c-1.302,-0.347 -2.17,-0.608 -2.604,-0.781c1.562,-1.997 3.733,-3.125 6.51,-3.385l1.823,0c2.083,0 4.167,0.26 6.25,0.781c2.604,0.781 5.599,1.562 8.984,2.344c2.344,0.521 4.34,0.781 5.99,0.781c0.781,0 1.476,-0.043 2.083,-0.13c2.865,-0.26 5.035,-1.562 6.51,-3.906c0.694,-1.042 1.042,-2.17 1.042,-3.385c0,-1.389 -0.477,-2.821 -1.432,-4.297c-2.17,-3.385 -8.941,-5.469 -20.312,-6.25c0.087,-0.521 0.282,-0.955 0.586,-1.302c0.304,-0.347 0.608,-0.629 0.911,-0.846c0.304,-0.217 0.716,-0.434 1.237,-0.651c0.521,-0.217 0.911,-0.369 1.172,-0.456c0.26,-0.087 0.716,-0.195 1.367,-0.326c0.651,-0.13 1.02,-0.195 1.107,-0.195c1.649,-0.26 3.342,-0.391 5.078,-0.391c1.736,0 3.559,0.13 5.469,0.391c13.802,1.042 26.085,7.986 36.849,20.833c0.608,0.694 3.234,4.167 7.878,10.417c4.644,6.25 8.398,10.72 11.263,13.411c0.434,0.434 1.628,1.497 3.581,3.19c1.953,1.693 3.19,2.93 3.711,3.711c0.608,1.302 1.063,3.841 1.367,7.617c0.304,3.776 0.586,6.315 0.846,7.617c0.26,1.302 0.673,2.648 1.237,4.036c0.564,1.389 1.259,2.93 2.083,4.622c0.825,1.693 1.454,3.016 1.888,3.971c2.604,6.25 3.906,10.634 3.906,13.151l0,0.651c-0.26,0.868 -0.76,1.931 -1.497,3.19c-0.738,1.259 -1.28,2.235 -1.628,2.93c-0.174,0.694 -0.391,1.736 -0.651,3.125c-0.26,1.389 -0.564,2.257 -0.911,2.604c-1.215,1.302 -2.908,2.17 -5.078,2.604c-0.781,0.174 -1.606,0.26 -2.474,0.26c-1.389,0 -2.821,-0.26 -4.297,-0.781Z" style="fill:url(#_Linear7);fill-rule:nonzero;"/><path d="M4584.262,416.687c0.799,1.152 1.814,2.136 3.045,2.949c3.838,2.537 9.523,3.225 17.054,2.063c7.36,-1.69 11.854,-3.767 13.482,-6.229c0.096,-0.145 0.168,-0.253 0.215,-0.326c1.123,-2.171 0.399,-5.72 -2.173,-10.645c-2.087,-4.085 -4.506,-7.036 -7.258,-8.855c-0.652,-0.431 -1.291,-0.801 -1.918,-1.112c-0.458,-0.094 -1.397,-0.247 -2.819,-0.458c-1.108,-0.212 -1.988,-0.534 -2.64,-0.965c-0.072,-0.048 -0.181,-0.12 -0.326,-0.215c3.716,-3.891 6.912,-5.577 9.586,-5.058c1.059,-0.028 2.349,0.46 3.87,1.465c1.086,0.718 2.33,1.748 3.732,3.091c2.006,1.846 3.696,3.224 5.072,4.133c1.014,0.67 1.858,1.124 2.533,1.362c1.663,0.475 3.131,0.379 4.405,-0.288c1.273,-0.667 2.69,-1.708 4.249,-3.123c1.559,-1.415 3.06,-2.426 4.502,-3.033c0.438,1.226 0.54,2.724 0.307,4.495c-0.234,1.77 -0.108,3.233 0.378,4.386c0.365,0.865 1.199,1.729 2.502,2.59c0.362,0.239 0.797,0.527 1.303,0.862c3.353,1.696 6.64,1.683 9.859,-0.039c2.379,-1.237 4.382,-3.087 6.009,-5.549c0.722,-1.092 1.359,-2.292 1.911,-3.6c1.418,-2.617 2.014,-6.039 1.79,-10.264c-0.273,-4.782 -1.879,-9.634 -4.817,-14.556c-2.938,-4.922 -7.267,-9.274 -12.988,-13.055c-0.434,-0.287 -0.869,-0.574 -1.303,-0.862c-6.662,-4.404 -13.932,-7.495 -21.809,-9.274c-8.479,-1.969 -16.133,-2.354 -22.96,-1.156c-8.438,1.589 -16.493,5.353 -24.164,11.291c-6.45,4.878 -12.158,11.075 -17.127,18.591c-1.004,1.518 -1.958,3.12 -2.864,4.806c-9.663,16.824 -11.268,34.207 -4.815,52.151c6.061,16.647 17.565,30.571 34.51,41.772c1.231,0.814 2.498,1.651 3.802,2.513c4.128,2.728 7.809,4.873 11.042,6.435c3.234,1.562 7.3,2.888 12.198,3.978c4.898,1.091 9.517,1.187 13.857,0.287c5.16,-1.195 8.439,-2.85 9.836,-4.963c0.25,-0.378 0.463,-0.78 0.641,-1.206c0.287,-1.221 0.105,-2.048 -0.547,-2.478c-0.145,-0.096 -0.326,-0.215 -0.543,-0.359c-0.507,-0.335 -1.152,-0.658 -1.936,-0.967c-0.784,-0.31 -1.429,-0.632 -1.936,-0.967c-0.217,-0.144 -0.398,-0.263 -0.543,-0.359c0.528,-0.484 2.258,-1.369 5.19,-2.657c2.644,-1.166 4.612,-2.727 5.904,-4.682c0.144,-0.217 0.311,-0.471 0.503,-0.76c0.357,-1.013 0.611,-2.38 0.76,-4.102c0.15,-1.722 0.391,-2.993 0.725,-3.813c5.869,4.816 9.13,10.353 9.78,16.61c0.649,5.944 -1.036,11.958 -5.057,18.041c-0.239,0.362 -0.455,0.688 -0.646,0.978c-0.074,-0.049 -0.147,-0.097 -0.221,-0.146c-0.513,-0.339 -0.685,-1.233 -0.517,-2.683c0.168,-1.45 -0.115,-2.417 -0.848,-2.902c-0.072,-0.048 -0.182,-0.12 -0.329,-0.218c-1.58,2.39 -4.259,4.651 -8.039,6.783c-3.779,2.133 -6.123,3.887 -7.032,5.263c-0.311,0.627 -0.176,1.132 0.403,1.515c0.29,0.191 0.736,0.382 1.338,0.573c1.108,0.212 1.916,0.486 2.423,0.821c0.217,0.144 0.374,0.299 0.471,0.468c-3.097,2.324 -6.348,3.426 -9.756,3.307c-3.407,-0.119 -7.582,-1.084 -12.525,-2.894c-0.265,-0.071 -0.91,-0.315 -1.935,-0.733c-1.025,-0.417 -1.766,-0.673 -2.224,-0.768c-0.458,-0.094 -1.09,-0.2 -1.897,-0.318c-0.807,-0.117 -1.541,-0.108 -2.203,0.027c-0.662,0.135 -1.329,0.396 -2.001,0.784c-0.431,0.652 -0.259,1.415 0.515,2.291c0.774,0.876 1.101,1.482 0.982,1.82c-5.001,1.585 -11.195,-0.064 -18.582,-4.946c-0.797,-0.527 -2.077,-1.581 -3.841,-3.163c-1.087,-1.031 -2.102,-1.858 -3.043,-2.48c-0.507,-0.335 -1.002,-0.61 -1.484,-0.825c-1.254,-0.621 -2.579,-0.664 -3.973,-0.129c-0.096,0.145 -0.191,0.29 -0.287,0.434c-0.431,0.652 -0.44,1.374 -0.028,2.167c0.462,1.033 0.501,1.84 0.118,2.419c-1.276,-0.115 -2.747,-0.723 -4.413,-1.824c-0.652,-0.431 -1.279,-0.899 -1.881,-1.404c-2.604,-2.042 -4.767,-4.005 -6.487,-5.89c-1.721,-1.884 -3.73,-4.039 -6.027,-6.466c-2.298,-2.426 -4.098,-4.23 -5.399,-5.41c-0.869,-0.574 -1.666,-1.101 -2.39,-1.58c-3.404,-2.25 -5.849,-2.565 -7.335,-0.946c-0.048,0.072 -0.096,0.145 -0.144,0.217c-0.574,0.869 -0.51,1.952 0.193,3.249c0.8,1.465 0.949,2.657 0.448,3.573c-0.844,-0.454 -1.629,-0.92 -2.353,-1.399c-3.693,-2.441 -6.365,-5.247 -8.014,-8.419c-1.965,-3.796 -3.346,-8.949 -4.142,-15.458c-0.796,-6.509 -1.451,-10.714 -1.964,-12.614l-0.366,-1.335c-0.317,-0.938 -0.487,-1.467 -0.512,-1.587c-0.025,-0.12 -0.165,-0.577 -0.421,-1.371c-0.256,-0.793 -0.487,-1.31 -0.692,-1.55c-0.206,-0.24 -0.484,-0.684 -0.836,-1.333c-0.352,-0.649 -0.697,-1.111 -1.035,-1.386c-0.338,-0.276 -0.761,-0.581 -1.268,-0.916c-0.097,-0.168 -0.182,-0.276 -0.254,-0.324c-0.362,-0.239 -0.808,-0.43 -1.338,-0.573c-0.53,-0.142 -1.157,-0.296 -1.88,-0.462c-0.096,0.145 -0.191,0.29 -0.287,0.434c-0.479,0.724 -0.884,1.809 -1.215,3.255c-0.141,0.843 -0.427,1.591 -0.858,2.242c-0.287,0.434 -0.647,0.821 -1.079,1.16c-0.217,-0.144 -0.398,-0.263 -0.543,-0.359c-2.172,-1.436 -3.293,-4.622 -3.36,-9.557c-0.179,-2.72 0.196,-6.634 1.127,-11.741c0.931,-5.108 1.451,-8.926 1.562,-11.454c0.555,-5.877 -0.073,-9.413 -1.884,-10.61c-0.072,-0.048 -0.145,-0.096 -0.217,-0.144c-1.11,-0.525 -1.977,-0.63 -2.601,-0.315c-0.504,0.291 -1.092,0.943 -1.762,1.957c-0.096,0.145 -1.699,2.571 -1.939,2.933c-3.719,-2.458 -3.912,-8.153 -0.578,-17.083c0.432,-1.275 1.174,-2.71 2.227,-4.303c1.962,-2.969 4.934,-6.363 8.916,-10.183c0.767,-0.846 1.907,-1.861 3.419,-3.047c1.512,-1.186 2.688,-2.177 3.527,-2.975c0.623,-0.628 1.198,-1.341 1.725,-2.138c0.191,-0.29 0.407,-0.616 0.646,-0.978c0.741,-1.279 1.085,-2.665 1.031,-4.157c-0.511,-1.274 -1.164,-2.174 -1.961,-2.701c-0.217,-0.144 -0.458,-0.251 -0.724,-0.322c-1.157,-0.453 -2.139,-0.503 -2.944,-0.151c-0.805,0.352 -1.857,0.724 -3.156,1.114c-1.299,0.39 -2.333,0.539 -3.104,0.446c-0.535,-1.394 -0.181,-3.033 1.064,-4.916c0.67,-1.014 1.557,-2.041 2.66,-3.08c1.053,-1.593 2.423,-3.029 4.11,-4.307c1.687,-1.278 3.798,-2.64 6.332,-4.087c2.534,-1.447 4.403,-2.605 5.608,-3.473c7.161,-4.944 11.891,-9.153 14.188,-12.629c0.391,-0.592 0.721,-1.17 0.991,-1.735c1.078,-2.261 1.088,-4.007 0.029,-5.239c-0.362,-0.239 -0.688,-0.455 -0.978,-0.646c-1.159,-0.766 -2.459,-0.845 -3.901,-0.237c-1.778,0.802 -3.138,0.891 -4.08,0.269c0,0 -0.036,-0.024 -0.109,-0.072c2.25,-3.404 4.917,-6.219 8.002,-8.446c3.085,-2.227 6.636,-3.86 10.652,-4.899c4.017,-1.039 7.463,-1.727 10.338,-2.063c2.876,-0.336 6.649,-0.574 11.319,-0.713c0.746,-0.027 2.311,0.045 4.696,0.216c2.384,0.171 4.323,0.23 5.815,0.176c1.492,-0.054 2.755,-0.312 3.789,-0.773c1.467,-0.487 2.655,-1.419 3.564,-2.795c0.383,-0.579 0.693,-1.207 0.932,-1.882c0.954,-2.387 0.609,-4.384 -1.035,-5.991c-0.097,-0.168 -0.218,-0.3 -0.363,-0.396c-0.579,-0.383 -1.435,-0.741 -2.568,-1.073c-1.398,-0.404 -2.471,-0.749 -3.218,-1.035c-0.193,-0.023 -0.325,-0.059 -0.398,-0.107c-0.579,-0.383 -1.003,-1.079 -1.272,-2.09c1.415,-1.354 3.133,-2.3 5.153,-2.837c2.02,-0.538 3.693,-0.785 5.017,-0.742c1.324,0.043 3.456,0.203 6.394,0.48c8.044,0.739 13.997,2.28 17.858,4.624c1.327,0.669 2.859,1.578 4.597,2.726c2.39,1.58 5.142,3.555 8.257,5.926c3.115,2.371 5.795,4.299 8.04,5.782c1.666,1.101 3.089,1.938 4.271,2.511c2.196,1.243 4.317,1.813 6.363,1.708c1.685,-0.031 3.078,-0.879 4.179,-2.544c0.191,-0.29 0.371,-0.639 0.538,-1.049c0.788,-1.664 0.473,-3.746 -0.946,-6.244c-1.418,-2.498 -2.178,-4.301 -2.278,-5.408c0.432,-0.339 0.931,-0.503 1.497,-0.493c0.566,0.01 1.048,0.068 1.445,0.175c0.398,0.107 0.91,0.315 1.537,0.626c0.627,0.311 1.097,0.465 1.41,0.464c2.05,0.835 4.088,1.922 6.116,3.262c1.666,1.101 3.308,2.394 4.927,3.881c3.6,3.212 6.165,6.572 7.696,10.081c1.602,3.244 2.886,8.385 3.853,15.423c0.967,7.038 1.986,12.108 3.058,15.21c1.754,5.217 3.645,8.496 5.673,9.837c1.593,1.053 3.229,0.782 4.908,-0.814c0.216,-0.169 0.42,-0.399 0.611,-0.689c0.527,-0.797 0.895,-1.906 1.106,-3.327c0.187,-1.542 0.519,-2.674 0.998,-3.399c0.096,-0.145 0.228,-0.266 0.396,-0.363c1.813,1.823 3.333,5.584 4.559,11.286c0.94,6.449 -0.711,14.93 -4.955,25.444c-2.243,4.968 -3.145,8.222 -2.706,9.761c0.221,1.083 0.802,1.935 1.744,2.557c0.941,0.622 1.839,0.878 2.693,0.766c0.854,-0.112 1.498,-0.259 1.93,-0.441c0.433,-0.182 1.153,-0.721 2.16,-1.616c1.008,-0.895 1.704,-1.475 2.088,-1.742c0.804,2.404 0.549,4.837 -0.766,7.298c-0.335,0.507 -0.67,1.014 -1.005,1.521c-1.149,1.738 -2.515,3.332 -4.098,4.783c-2.088,1.742 -4.391,3.809 -6.909,6.203c-1.727,1.668 -3.045,3.19 -3.954,4.566c-0.431,0.652 -0.777,1.255 -1.04,1.81c-1.362,2.533 -1.473,5.062 -0.331,7.585c0.486,1.154 1.236,2.066 2.25,2.736c1.159,0.766 2.617,1.157 4.374,1.174c4.021,0.056 9.492,-4.443 16.414,-13.499c0.387,0.36 0.641,0.762 0.763,1.207c0.122,0.445 0.19,0.854 0.203,1.227c0.014,0.373 -0.033,0.837 -0.139,1.391c-0.106,0.554 -0.195,0.964 -0.266,1.229c-0.071,0.265 -0.232,0.705 -0.482,1.32c-0.25,0.615 -0.399,0.959 -0.447,1.031c-0.692,1.52 -1.517,3.003 -2.474,4.452c-0.957,1.448 -2.071,2.897 -3.341,4.347c-8.48,10.94 -21.046,17.358 -37.699,19.253c-0.914,0.124 -5.259,0.4 -13.034,0.828c-7.775,0.428 -13.574,1.095 -17.399,2.001c-0.601,0.123 -2.147,0.532 -4.636,1.228c-2.489,0.696 -4.203,1.046 -5.142,1.05c-1.421,-0.211 -3.791,-1.231 -7.108,-3.06c-3.318,-1.829 -5.591,-2.993 -6.821,-3.494c-1.23,-0.501 -2.58,-0.899 -4.049,-1.194c-1.47,-0.295 -3.138,-0.565 -5.005,-0.811c-1.867,-0.245 -3.318,-0.45 -4.354,-0.615c-6.65,-1.274 -11.025,-2.605 -13.125,-3.993c-0.217,-0.144 -0.398,-0.263 -0.543,-0.359c-0.581,-0.696 -1.192,-1.699 -1.836,-3.008c-0.643,-1.31 -1.159,-2.301 -1.547,-2.973c-0.484,-0.528 -1.233,-1.283 -2.248,-2.266c-1.015,-0.983 -1.572,-1.715 -1.67,-2.196c-0.416,-1.732 -0.207,-3.623 0.628,-5.672c0.286,-0.747 0.668,-1.483 1.147,-2.207c0.766,-1.159 1.773,-2.21 3.021,-3.154Z" style="fill:url(#_Linear8);fill-rule:nonzero;"/></g><defs><linearGradient id="_Linear1" x1="0" y1="0" x2="1" y2="0" gradientUnits="userSpaceOnUse" gradientTransform="matrix(241.821648,363.488374,-363.488374,241.821648,769.535464,-3.824437)"><stop offset="0" style="stop-color:#66b7f1;stop-opacity:0.47"/><stop offset="0.5" style="stop-color:#66b7f1;stop-opacity:0.35"/><stop offset="1" style="stop-color:#66b7f1;stop-opacity:0"/></linearGradient><linearGradient id="_Linear2" x1="0" y1="0" x2="1" y2="0" gradientUnits="userSpaceOnUse" gradientTransform="matrix(2.198714,-89.450297,89.450297,2.198714,2238.32243,303.882312)"><stop offset="0" style="stop-color:#66b7f1;stop-opacity:0.47"/><stop offset="0.5" style="stop-color:#66b7f1;stop-opacity:0.35"/><stop offset="1" style="stop-color:#66b7f1;stop-opacity:0"/></linearGradient><linearGradient id="_Linear3" x1="0" y1="0" x2="1" y2="0" gradientUnits="userSpaceOnUse" gradientTransform="matrix(-118.453755,-22.189342,22.189342,-118.453755,176.293564,388.499563)"><stop offset="0" style="stop-color:#66b7f1;stop-opacity:0.47"/><stop offset="0.5" style="stop-color:#66b7f1;stop-opacity:0.35"/><stop offset="1" style="stop-color:#66b7f1;stop-opacity:0"/></linearGradient><linearGradient id="_Linear4" x1="0" y1="0" x2="1" y2="0" gradientUnits="userSpaceOnUse" gradientTransform="matrix(72.259332,-183.881395,183.881395,72.259332,1426.833624,628.240532)"><stop offset="0" style="stop-color:#66b7f1;stop-opacity:0.47"/><stop offset="0.5" style="stop-color:#66b7f1;stop-opacity:0.35"/><stop offset="1" style="stop-color:#66b7f1;stop-opacity:0"/></linearGradient><linearGradient id="_Linear5" x1="0" y1="0" x2="1" y2="0" gradientUnits="userSpaceOnUse" gradientTransform="matrix(279.411894,-79.302117,79.302117,279.411894,3467.45731,316.531239)"><stop offset="0" style="stop-color:#66b7f1;stop-opacity:0.47"/><stop offset="0.5" style="stop-color:#66b7f1;stop-opacity:0.35"/><stop offset="1" style="stop-color:#66b7f1;stop-opacity:0"/></linearGradient><linearGradient id="_Linear6" x1="0" y1="0" x2="1" y2="0" gradientUnits="userSpaceOnUse" gradientTransform="matrix(-55.597108,33.101212,-33.101212,-55.597108,5232.688976,191.973136)"><stop offset="0" style="stop-color:#66b7f1;stop-opacity:0.47"/><stop offset="1" style="stop-color:#66b7f1;stop-opacity:0"/></linearGradient><linearGradient id="_Linear7" x1="0" y1="0" x2="1" y2="0" gradientUnits="userSpaceOnUse" gradientTransform="matrix(131.730635,42.208552,-42.208552,131.730635,2967.269591,183.955614)"><stop offset="0" style="stop-color:#66b7f1;stop-opacity:0.47"/><stop offset="0.5" style="stop-color:#66b7f1;stop-opacity:0.35"/><stop offset="1" style="stop-color:#66b7f1;stop-opacity:0"/></linearGradient><linearGradient id="_Linear8" x1="0" y1="0" x2="1" y2="0" gradientUnits="userSpaceOnUse" gradientTransform="matrix(206.525691,-51.723737,51.723737,206.525691,4459.226866,432.529539)"><stop offset="0" style="stop-color:#66b7f1;stop-opacity:0.47"/><stop offset="0.5" style="stop-color:#66b7f1;stop-opacity:0.35"/><stop offset="1" style="stop-color:#66b7f1;stop-opacity:0"/></linearGradient></defs></svg>