<?xml version="1.0" encoding="UTF-8" standalone="no"?>
<!-- Created with Inkscape (http://www.inkscape.org/) -->

<svg
   width="210mm"
   height="297mm"
   viewBox="0 0 210 297"
   version="1.1"
   id="svg1"
   inkscape:version="1.3 (0e150ed6c4, 2023-07-21)"
   sodipodi:docname="logo_small.svg"
   xmlns:inkscape="http://www.inkscape.org/namespaces/inkscape"
   xmlns:sodipodi="http://sodipodi.sourceforge.net/DTD/sodipodi-0.dtd"
   xmlns:xlink="http://www.w3.org/1999/xlink"
   xmlns="http://www.w3.org/2000/svg"
   xmlns:svg="http://www.w3.org/2000/svg">
  <sodipodi:namedview
     id="namedview1"
     pagecolor="#ffffff"
     bordercolor="#000000"
     borderopacity="0.25"
     inkscape:showpageshadow="2"
     inkscape:pageopacity="0.0"
     inkscape:pagecheckerboard="0"
     inkscape:deskcolor="#d1d1d1"
     inkscape:document-units="mm"
     inkscape:zoom="2.1543544"
     inkscape:cx="349.75676"
     inkscape:cy="139.02077"
     inkscape:window-width="2400"
     inkscape:window-height="1261"
     inkscape:window-x="-9"
     inkscape:window-y="-9"
     inkscape:window-maximized="1"
     inkscape:current-layer="layer1"
     showgrid="true">
    <inkscape:grid
       id="grid14"
       units="mm"
       originx="0"
       originy="0"
       spacingx="0.99999998"
       spacingy="1"
       empcolor="#0099e5"
       empopacity="0.30196078"
       color="#0099e5"
       opacity="0.14901961"
       empspacing="5"
       dotted="false"
       gridanglex="30"
       gridanglez="30"
       visible="true" />
  </sodipodi:namedview>
  <defs
     id="defs1">
    <linearGradient
       id="linearGradient11"
       inkscape:collect="always">
      <stop
         style="stop-color:#1a5292;stop-opacity:1;"
         offset="0"
         id="stop12" />
      <stop
         style="stop-color:#1a5292;stop-opacity:0;"
         offset="1"
         id="stop13" />
    </linearGradient>
    <linearGradient
       id="swatch11"
       inkscape:swatch="solid">
      <stop
         style="stop-color:#1a5292;stop-opacity:1;"
         offset="0"
         id="stop11" />
    </linearGradient>
    <inkscape:perspective
       sodipodi:type="inkscape:persp3d"
       inkscape:vp_x="-67.86448 : 279.08765 : 1"
       inkscape:vp_y="2579.1579 : 1550.5108 : 0"
       inkscape:vp_z="359.28399 : -133.78152 : 1"
       inkscape:persp3d-origin="18.04145 : -4.0971914 : 1"
       id="perspective1" />
    <inkscape:perspective
       sodipodi:type="inkscape:persp3d"
       inkscape:vp_x="40.831099 : 359.91881 : 1"
       inkscape:vp_y="192.0097 : 149.58103 : 0"
       inkscape:vp_z="72.630875 : 320.08845 : 1"
       inkscape:persp3d-origin="47.226509 : 332.59937 : 1"
       id="perspective1-0" />
    <linearGradient
       inkscape:collect="always"
       xlink:href="#linearGradient11"
       id="linearGradient13"
       x1="13.921955"
       y1="121.46896"
       x2="21.517803"
       y2="121.46896"
       gradientUnits="userSpaceOnUse" />
  </defs>
  <g
     inkscape:label="Layer 1"
     inkscape:groupmode="layer"
     id="layer1">
    <g
       sodipodi:type="inkscape:box3d"
       id="g1"
       style="fill:#000000"
       inkscape:perspectiveID="#perspective1"
       inkscape:corner0="6.7505831 : 0.25276928 : 0 : 1"
       inkscape:corner7="6.0295985 : 0.17281399 : 0.52011205 : 1">
      <path
         sodipodi:type="inkscape:box3dside"
         id="path6"
         style="fill:#e9e9ff;fill-rule:evenodd;stroke:none;stroke-width:0.976315;stroke-linejoin:round"
         inkscape:box3dsidetype="11"
         d="m 48.208338,30.728883 11.084758,1.223956 -27.3146,16.420701 -8.703652,-2.655405 z"
         points="59.293096,31.952839 31.978496,48.37354 23.274844,45.718135 48.208338,30.728883 " />
      <path
         sodipodi:type="inkscape:box3dside"
         id="path1"
         style="fill:#353564;fill-rule:evenodd;stroke:none;stroke-linejoin:round"
         inkscape:box3dsidetype="6"
         d="M 27.333237,3.8828774 0.72655255,19.878001 23.274844,45.718135 48.208338,30.728883 Z"
         points="0.72655255,19.878001 23.274844,45.718135 48.208338,30.728883 27.333237,3.8828774 " />
      <path
         sodipodi:type="inkscape:box3dside"
         id="path2"
         style="fill:#4d4d9f;fill-rule:evenodd;stroke:none;stroke-width:0.926068;stroke-linejoin:round"
         inkscape:box3dsidetype="5"
         d="M 27.333237,3.8828774 37.097108,2.4439561 59.293096,31.952839 48.208338,30.728883 Z"
         points="37.097108,2.4439561 59.293096,31.952839 48.208338,30.728883 27.333237,3.8828774 " />
      <path
         sodipodi:type="inkscape:box3dside"
         id="path5"
         style="fill:#afafde;fill-rule:evenodd;stroke:none;stroke-linejoin:round"
         inkscape:box3dsidetype="13"
         d="M 0.72655255,19.878001 7.7615318,20.079606 31.978496,48.37354 23.274844,45.718135 Z"
         points="7.7615318,20.079606 31.978496,48.37354 23.274844,45.718135 0.72655255,19.878001 " />
      <path
         sodipodi:type="inkscape:box3dside"
         id="path4"
         style="fill:#d7d7ff;fill-rule:evenodd;stroke:none;stroke-width:1.00815;stroke-linejoin:round"
         inkscape:box3dsidetype="14"
         d="M 37.097108,2.4439561 7.7615318,20.079606 31.978496,48.37354 59.293096,31.952839 Z"
         points="7.7615318,20.079606 31.978496,48.37354 59.293096,31.952839 37.097108,2.4439561 " />
      <path
         sodipodi:type="inkscape:box3dside"
         id="path3"
         style="fill:#8686bf;fill-rule:evenodd;stroke:none;stroke-linejoin:round"
         inkscape:box3dsidetype="3"
         d="M 27.333237,3.8828774 37.097108,2.4439561 7.7615318,20.079606 0.72655255,19.878001 Z"
         points="37.097108,2.4439561 7.7615318,20.079606 0.72655255,19.878001 27.333237,3.8828774 " />
    </g>
    <path
       sodipodi:type="spiral"
       style="fill:url(#linearGradient13);fill-rule:evenodd;stroke:#000000;stroke-width:0.264583"
       id="path7"
       sodipodi:cx="17.36842"
       sodipodi:cy="121.57895"
       sodipodi:expansion="1"
       sodipodi:revolution="3"
       sodipodi:radius="4.2401719"
       sodipodi:argument="-17.889486"
       sodipodi:t0="0"
       d="m 17.36842,121.57895 c 0.121915,0.17416 -0.174622,0.25027 -0.289474,0.20263 -0.311241,-0.12909 -0.290094,-0.55319 -0.11579,-0.78158 0.31179,-0.40852 0.924727,-0.35466 1.273684,-0.0289 0.512109,0.47801 0.42214,1.30166 -0.05789,1.76579 -0.639809,0.61862 -1.680552,0.49091 -2.257895,-0.14473 -0.726528,-0.7999 -0.560367,-2.06039 0.231577,-2.75 0.95915,-0.83521 2.440769,-0.63022 3.242105,0.31842 0.944348,1.11793 0.700322,2.82148 -0.40526,3.73421 -1.276438,1.05378 -3.202414,0.77059 -4.226316,-0.4921 -1.163423,-1.43476 -0.840977,-3.58351 0.578944,-4.71843 1.592936,-1.2732 3.964709,-0.91144 5.210526,0.66579 1.383094,1.75103 0.981982,4.346 -0.752627,5.70263"
       transform="matrix(3.8401963,0,0,3.2990432,-35.350327,-375.87483)" />
    <g
       sodipodi:type="inkscape:box3d"
       id="g2"
       style="fill:#000000"
       inkscape:perspectiveID="#perspective1-0"
       inkscape:corner0="6.7505831 : 0.25276928 : 0 : 1"
       inkscape:corner7="6.0295985 : 0.17281399 : 0.52011205 : 1">
      <path
         sodipodi:type="inkscape:box3dside"
         id="path6-5"
         style="fill:#e9e9ff;fill-rule:evenodd;stroke:none;stroke-linejoin:round"
         inkscape:box3dsidetype="11"
         d="m 49.472334,-61.682362 0.825223,0.118078 -2.033481,1.584139 -0.647957,-0.256172 z"
         points="50.297557,-61.564284 48.264076,-59.980145 47.616119,-60.236317 49.472334,-61.682362 " />
      <path
         sodipodi:type="inkscape:box3dside"
         id="path1-4"
         style="fill:#353564;fill-rule:evenodd;stroke:none;stroke-linejoin:round"
         inkscape:box3dsidetype="6"
         d="m 47.918253,-64.272253 -1.980779,1.543083 1.678645,2.492853 1.856215,-1.446045 z"
         points="45.937474,-62.72917 47.616119,-60.236317 49.472334,-61.682362 47.918253,-64.272253 " />
      <path
         sodipodi:type="inkscape:box3dside"
         id="path2-3"
         style="fill:#4d4d9f;fill-rule:evenodd;stroke:none;stroke-width:0.91858;stroke-linejoin:round"
         inkscape:box3dsidetype="5"
         d="m 47.918253,-64.272253 0.726887,-0.138815 1.652417,2.846784 -0.825223,-0.118078 z"
         points="48.64514,-64.411068 50.297557,-61.564284 49.472334,-61.682362 47.918253,-64.272253 " />
      <path
         sodipodi:type="inkscape:box3dside"
         id="path5-3"
         style="fill:#afafde;fill-rule:evenodd;stroke:none;stroke-linejoin:round"
         inkscape:box3dsidetype="13"
         d="m 45.937474,-62.72917 0.52373,0.01945 1.802872,2.729575 -0.647957,-0.256172 z"
         points="46.461204,-62.70972 48.264076,-59.980145 47.616119,-60.236317 45.937474,-62.72917 " />
      <path
         sodipodi:type="inkscape:box3dside"
         id="path4-0"
         style="fill:#d7d7ff;fill-rule:evenodd;stroke:none;stroke-linejoin:round"
         inkscape:box3dsidetype="14"
         d="m 48.64514,-64.411068 -2.183936,1.701348 1.802872,2.729575 2.033481,-1.584139 z"
         points="46.461204,-62.70972 48.264076,-59.980145 50.297557,-61.564284 48.64514,-64.411068 " />
      <path
         sodipodi:type="inkscape:box3dside"
         id="path3-0"
         style="fill:#8686bf;fill-rule:evenodd;stroke:none;stroke-linejoin:round"
         inkscape:box3dsidetype="3"
         d="m 47.918253,-64.272253 0.726887,-0.138815 -2.183936,1.701348 -0.52373,-0.01945 z"
         points="48.64514,-64.411068 46.461204,-62.70972 45.937474,-62.72917 47.918253,-64.272253 " />
    </g>
    <path
       sodipodi:type="spiral"
       style="fill:none;fill-rule:evenodd;stroke:#000000;stroke-width:0.264583"
       id="path7-9"
       sodipodi:cx="17.36842"
       sodipodi:cy="121.57895"
       sodipodi:expansion="1"
       sodipodi:revolution="3"
       sodipodi:radius="4.2401719"
       sodipodi:argument="-17.889486"
       sodipodi:t0="0"
       d="m 17.36842,121.57895 c 0.121915,0.17416 -0.174622,0.25027 -0.289474,0.20263 -0.311241,-0.12909 -0.290094,-0.55319 -0.11579,-0.78158 0.31179,-0.40852 0.924727,-0.35466 1.273684,-0.0289 0.512109,0.47801 0.42214,1.30166 -0.05789,1.76579 -0.639809,0.61862 -1.680552,0.49091 -2.257895,-0.14473 -0.726528,-0.7999 -0.560367,-2.06039 0.231577,-2.75 0.95915,-0.83521 2.440769,-0.63022 3.242105,0.31842 0.944348,1.11793 0.700322,2.82148 -0.40526,3.73421 -1.276438,1.05378 -3.202414,0.77059 -4.226316,-0.4921 -1.163423,-1.43476 -0.840977,-3.58351 0.578944,-4.71843 1.592936,-1.2732 3.964709,-0.91144 5.210526,0.66579 1.383094,1.75103 0.981982,4.346 -0.752627,5.70263"
       transform="translate(43.655565,135.04383)" />
    <text
       xml:space="preserve"
       style="font-style:normal;font-variant:normal;font-weight:bold;font-stretch:normal;font-size:6.35px;font-family:'Mentor Sans Std';-inkscape-font-specification:'Mentor Sans Std Bold';fill:#45b402;fill-opacity:0.77221;stroke-width:0.264583"
       x="47.160301"
       y="33.03677"
       id="text14"><tspan
         sodipodi:role="line"
         id="tspan14"
         style="font-size:6.35px;stroke-width:0.264583"
         x="47.160301"
         y="33.03677">XP</tspan></text>
  </g>
</svg>
