<?xml version="1.0" encoding="UTF-8" standalone="no"?>
<!-- Created with Inkscape (http://www.inkscape.org/) -->

<svg
   width="220px"
   height="297px"
   viewBox="0 0 210 297"
   version="1.1"
   id="svg1"
   inkscape:version="1.3 (0e150ed6c4, 2023-07-21)"
   sodipodi:docname="logo_full02.svg"
   xmlns:inkscape="http://www.inkscape.org/namespaces/inkscape"
   xmlns:sodipodi="http://sodipodi.sourceforge.net/DTD/sodipodi-0.dtd"
   xmlns:xlink="http://www.w3.org/1999/xlink"
   xmlns="http://www.w3.org/2000/svg"
   xmlns:svg="http://www.w3.org/2000/svg">
  <sodipodi:namedview
     id="namedview1"
     pagecolor="#ffffff"
     bordercolor="#000000"
     borderopacity="0.25"
     inkscape:showpageshadow="2"
     inkscape:pageopacity="0.0"
     inkscape:pagecheckerboard="0"
     inkscape:deskcolor="#d1d1d1"
     inkscape:document-units="mm"
     inkscape:zoom="4.9875"
     inkscape:cx="148.07018"
     inkscape:cy="53.433584"
     inkscape:window-width="1920"
     inkscape:window-height="1111"
     inkscape:window-x="-9"
     inkscape:window-y="1341"
     inkscape:window-maximized="1"
     inkscape:current-layer="layer1" />
  <defs
     id="defs1">
    <inkscape:perspective
       sodipodi:type="inkscape:persp3d"
       inkscape:vp_x="111.31954 : 202.26956 : 1"
       inkscape:vp_y="705.67892 : 239.48787 : 0"
       inkscape:vp_z="228.1909 : 138.49886 : 1"
       inkscape:persp3d-origin="134.82411 : 158.52958 : 1"
       id="perspective1" />
    <inkscape:perspective
       sodipodi:type="inkscape:persp3d"
       inkscape:vp_x="-17.775427 : 282.47675 : 1"
       inkscape:vp_y="922.29178 : 660.93639 : 0"
       inkscape:vp_z="134.97037 : 106.48296 : 1"
       inkscape:persp3d-origin="12.944033 : 161.76355 : 1"
       id="perspective1-5" />
    <linearGradient
       inkscape:collect="always"
       xlink:href="#linearGradient3"
       id="linearGradient4"
       x1="363.98956"
       y1="97.818123"
       x2="350.9664"
       y2="117.94741"
       gradientUnits="userSpaceOnUse" />
    <linearGradient
       id="linearGradient3"
       inkscape:collect="always">
      <stop
         style="stop-color:#7e00ff;stop-opacity:1;"
         offset="0"
         id="stop3" />
      <stop
         style="stop-color:#ff6500;stop-opacity:0;"
         offset="1"
         id="stop4" />
    </linearGradient>
  </defs>
  <g
     inkscape:label="Layer 1"
     inkscape:groupmode="layer"
     id="layer1">
    <g
       sodipodi:type="inkscape:box3d"
       id="g2"
       style="fill:#000000"
       inkscape:perspectiveID="#perspective1-5"
       inkscape:corner0="6.7505831 : 0.25276928 : 0 : 1"
       inkscape:corner7="6.0295985 : 0.17281399 : 0.52011205 : 1">
      <path
         sodipodi:type="inkscape:box3dside"
         id="path6"
         style="fill:#e9e9ff;fill-rule:evenodd;stroke:none;stroke-width:0.849749;stroke-linejoin:round"
         inkscape:box3dsidetype="11"
         d="m 23.731534,19.986556 3.963845,0.521736 -9.767541,6.999654 -3.112375,-1.13192 z"
         points="27.695379,20.508292 17.927838,27.507946 14.815463,26.376026 23.731534,19.986556 " />
      <path
         sodipodi:type="inkscape:box3dside"
         id="path1"
         style="fill:#353564;fill-rule:evenodd;stroke:none;stroke-width:0.870365;stroke-linejoin:round"
         inkscape:box3dsidetype="6"
         d="m 16.26672,8.5429061 -9.5143945,6.8182429 8.0631375,11.014877 8.916071,-6.38947 z"
         points="6.7523255,15.361149 14.815463,26.376026 23.731534,19.986556 16.26672,8.5429061 " />
      <path
         sodipodi:type="inkscape:box3dside"
         id="path2"
         style="fill:#4d4d9f;fill-rule:evenodd;stroke:none;stroke-width:0.806016;stroke-linejoin:round"
         inkscape:box3dsidetype="5"
         d="M 16.26672,8.5429061 19.758223,7.9295366 27.695379,20.508292 23.731534,19.986556 Z"
         points="19.758223,7.9295366 27.695379,20.508292 23.731534,19.986556 16.26672,8.5429061 " />
      <path
         sodipodi:type="inkscape:box3dside"
         id="path5"
         style="fill:#afafde;fill-rule:evenodd;stroke:none;stroke-width:0.870365;stroke-linejoin:round"
         inkscape:box3dsidetype="13"
         d="m 6.7523255,15.361149 2.5156674,0.08594 8.6598451,12.060859 -3.112375,-1.13192 z"
         points="9.2679929,15.447087 17.927838,27.507946 14.815463,26.376026 6.7523255,15.361149 " />
      <path
         sodipodi:type="inkscape:box3dside"
         id="path4"
         style="fill:#d7d7ff;fill-rule:evenodd;stroke:none;stroke-width:0.877458;stroke-linejoin:round"
         inkscape:box3dsidetype="14"
         d="M 19.758223,7.9295366 9.2679929,15.447087 17.927838,27.507946 27.695379,20.508292 Z"
         points="9.2679929,15.447087 17.927838,27.507946 27.695379,20.508292 19.758223,7.9295366 " />
      <path
         sodipodi:type="inkscape:box3dside"
         id="path3-9"
         style="fill:#8686bf;fill-rule:evenodd;stroke:none;stroke-width:0.870365;stroke-linejoin:round"
         inkscape:box3dsidetype="3"
         d="M 16.26672,8.5429061 19.758223,7.9295366 9.2679929,15.447087 6.7523255,15.361149 Z"
         points="19.758223,7.9295366 9.2679929,15.447087 6.7523255,15.361149 16.26672,8.5429061 " />
    </g>
    <path
       sodipodi:type="spiral"
       style="fill:url(#linearGradient4);fill-rule:evenodd;stroke:#000000"
       id="path3"
       sodipodi:cx="362.5751"
       sodipodi:cy="108.8412"
       sodipodi:expansion="1"
       sodipodi:revolution="3.3460486"
       sodipodi:radius="9.6955881"
       sodipodi:argument="-18.690901"
       sodipodi:t0="0"
       d="m 362.5751,108.8412 c 0.43038,0.0689 0.11951,0.61411 -0.11445,0.71531 -0.63401,0.27425 -1.22843,-0.36178 -1.31616,-0.94421 -0.15694,-1.04183 0.79658,-1.86767 1.77396,-1.91702 1.43434,-0.0724 2.51901,1.23481 2.51788,2.60372 -0.002,1.82454 -1.67393,3.17509 -3.43347,3.11874 -2.21421,-0.0709 -3.83354,-2.11339 -3.7196,-4.26323 0.13799,-2.60375 2.55303,-4.49334 5.09299,-4.32046 2.99325,0.20373 5.15399,2.99278 4.92132,5.92274 -0.26863,3.38276 -3.43261,5.81521 -6.75251,5.52218 -3.77227,-0.33296 -6.47682,-3.87248 -6.12303,-7.58226 0.39689,-4.16181 4.31239,-7.13873 8.41201,-6.72389 4.55136,0.46054 7.80085,4.75234 7.32476,9.24177 -0.52398,4.94092 -5.19231,8.46314 -10.07153,7.92561 -1.91863,-0.21136 -3.74959,-1.02144 -5.20673,-2.28564"
       transform="matrix(0.46215259,0,0.00252485,-0.48528949,-149.67483,70.342585)"
       inkscape:transform-center-x="-0.54462993"
       inkscape:transform-center-y="2.0353328" />
    <g
       id="g53"
       transform="matrix(0.39366282,0,0,0.39366282,-135.5101,-32.312865)">
      <text
         xml:space="preserve"
         style="font-style:normal;font-variant:normal;font-weight:bold;font-stretch:normal;font-size:24px;font-family:'Akko Pro';-inkscape-font-specification:'Akko Pro Bold';fill:#f9f9f9"
         x="409.27039"
         y="127.72532"
         id="text1"><tspan
           sodipodi:role="line"
           id="tspan1"
           x="409.27039"
           y="127.72532">MasterPlan XP</tspan></text>
      <text
         xml:space="preserve"
         style="font-style:normal;font-variant:normal;font-weight:bold;font-stretch:normal;font-size:12px;font-family:'Akko Pro';-inkscape-font-specification:'Akko Pro Bold';fill:#f59c36;fill-opacity:1"
         x="564.12018"
         y="115.02145"
         id="text2"><tspan
           sodipodi:role="line"
           id="tspan2"
           x="564.12018"
           y="115.02145">3</tspan></text>
      <text
         xml:space="preserve"
         style="font-style:normal;font-variant:normal;font-weight:normal;font-stretch:normal;font-size:12px;font-family:'Akko Pro';-inkscape-font-specification:'Akko Pro';fill:#b96209;fill-opacity:1"
         x="414.76395"
         y="138.02576"
         id="text3"><tspan
           sodipodi:role="line"
           id="tspan3"
           x="414.76395"
           y="138.02576">4E Adventure Design Studio</tspan></text>
    </g>
    <text
       xml:space="preserve"
       style="font-style:normal;font-variant:normal;font-weight:bold;font-stretch:normal;font-size:3.175px;font-family:'Akko Pro';-inkscape-font-specification:'Akko Pro Bold';fill:#6d00ff;fill-opacity:1;stroke-width:0.264583"
       x="4.7422442"
       y="31.48505"
       id="text54"
       transform="rotate(-38.746319)"><tspan
         sodipodi:role="line"
         id="tspan54"
         x="4.7422442"
         y="31.48505"
         style="stroke-width:0.264583">XP</tspan></text>
  </g>
</svg>
